<svg xmlns="http://www.w3.org/2000/svg" viewBox="0 0 42 42"><path fill="#FFF" d="M21 0C9.5 0 0 9.4 0 21s9.5 21 21 21 21-9.5 21-21S32.5 0 21 0zm0 40.8C10 40.8 1.2 32 1.2 21S10 1.2 21 1.2 40.8 10 40.8 21 32 40.8 21 40.8z"/><path fill="#FFF" d="M31.5 12c-.9.6-1.9.9-2.9 1.2-.8-.9-2-1.5-3.3-1.5-2.6 0-4.5 2.1-4.5 4.7 0 .4 0 .7.1 1.1-3.7-.2-7.1-2.1-9.3-4.9-.4.6-.6 1.4-.6 2.2 0 1.6.8 3 2 4-.7 0-1.4-.2-2.1-.6v.1c0 2.3 1.5 4.2 3.6 4.7-.3.1-.8.1-1.2.1s-.6 0-.8-.1c.6 1.9 2.2 3.3 4.2 3.3-1.5 1.3-3.5 2-5.6 2-.4 0-.7 0-1.1-.1 2 1.3 4.4 2.1 7 2.1 8.4 0 13-7.2 13-13.4v-.6c.9-.7 1.6-1.5 2.2-2.4-.8.4-1.6.6-2.6.7.9-.6 1.6-1.5 1.9-2.6z"/></svg>