<svg xmlns="http://www.w3.org/2000/svg" viewBox="0 0 36 36"><path fill-rule="evenodd" clip-rule="evenodd" fill="#4867AA" d="M18 0C8.1 0 0 8.1 0 18s8.1 18 18 18 18-8.1 18-18S27.9 0 18 0zm0 35C8.6 35 1 27.4 1 18S8.6 1 18 1s17 7.6 17 17-7.6 17-17 17z"/><path fill="#4867AA" d="M22.2 9H20c-2.4 0-4 1.7-4 4.4v2h-2.2c-.2 0-.3.2-.3.4v3c0 .2.2.4.3.4H16v7.5c0 .2.2.4.3.4h2.8c.2 0 .3-.2.3-.4v-7.5h2.5c.2 0 .3-.2.3-.4v-3c0-.1 0-.2-.1-.3-.1-.1-.1-.1-.2-.1h-2.5v-1.7c0-.8.2-1.3 1.2-1.3h1.5c.2 0 .3-.2.3-.4V9.4c.1-.2-.1-.4-.2-.4z"/></svg>