<svg xmlns="http://www.w3.org/2000/svg" viewBox="0 0 17.7 17.7"><path fill="#FFF" d="M8.9 0C4 0 0 4 0 8.9s4 8.9 8.9 8.9 8.9-4 8.9-8.9S13.7 0 8.9 0zm0 17.2C4.3 17.2.6 13.5.6 8.9S4.3.6 8.9.6s8.3 3.7 8.3 8.3-3.7 8.3-8.3 8.3z"/><path fill="#FFF" d="M14.7 7.9c0-.2 0-.5-.1-.9 0-.4-.1-.7-.1-1-.1-.3-.2-.6-.5-.8-.2-.2-.5-.3-.8-.4-1-.1-2.4-.2-4.4-.2-2 0-3.4.1-4.4.2-.2.1-.5.2-.7.4-.3.2-.4.5-.5.8-.1.3-.1.6-.1 1-.1.3-.1.6-.1.9v2c0 .2 0 .5.1.9 0 .4.1.7.1 1 .1.3.2.6.5.8.2.2.5.3.8.4h4.4c2 0 3.4-.1 4.4-.2.3 0 .6-.2.8-.4.2-.2.4-.5.5-.8.1-.3.1-.6.1-1s.1-.7.1-.9v-1c-.1-.3-.1-.6-.1-.8zm-3.5 1.3l-3.3 2.1c-.1 0-.1.1-.2.1s-.1 0-.2-.1-.2-.2-.2-.4V6.8c0-.2.1-.3.2-.4.1-.1.3-.1.4 0l3.3 2.1c.1.1.2.2.2.4 0 .1-.1.2-.2.3z"/></svg>