<svg xmlns="http://www.w3.org/2000/svg" viewBox="0 0 36 36"><path fill-rule="evenodd" clip-rule="evenodd" fill="#00A6E6" d="M18 0C8.1 0 0 8.1 0 18s8.1 18 18 18 18-8.1 18-18S27.9 0 18 0zm0 35C8.6 35 1 27.4 1 18S8.6 1 18 1s17 7.6 17 17-7.6 17-17 17z"/><path fill="#00A6E6" d="M27 10.3c-.8.5-1.6.8-2.5 1-.7-.8-1.7-1.3-2.8-1.3-2.2 0-3.9 1.8-3.9 4 0 .3 0 .6.1.9-3.2-.2-6.1-1.8-8-4.2-.3.6-.5 1.3-.5 2 0 1.4.7 2.6 1.7 3.4-.6 0-1.2-.2-1.8-.5v.1c0 2 1.3 3.6 3.1 4-.3.1-.7.1-1 .1-.3 0-.5 0-.7-.1.5 1.6 1.9 2.8 3.6 2.8-1.3 1.1-3 1.7-4.8 1.7-.3 0-.6 0-.9-.1 1.7 1.1 3.8 1.8 6 1.8 7.2 0 11.1-6.2 11.1-11.5v-.5c.8-.6 1.4-1.3 1.9-2.1-.7.3-1.4.5-2.2.6.7-.4 1.3-1.2 1.6-2.1z"/></svg>