<svg xmlns="http://www.w3.org/2000/svg" width="18" height="18" viewBox="0 0 15 15"><g fill="#FFF"><path d="M7.5 11.7c3.2 0 5.8-2.6 5.8-5.8S10.7 0 7.5 0 1.7 2.6 1.7 5.8s2.6 5.9 5.8 5.9zM7.5.8c2.8 0 5 2.3 5 5s-2.3 5-5 5-5-2.3-5-5 2.2-5 5-5z"/><path d="M7.5 8.3c1.4 0 2.5-1.1 2.5-2.5S8.9 3.3 7.5 3.3 5 4.4 5 5.8s1.1 2.5 2.5 2.5zm0-4.1c.9 0 1.7.8 1.7 1.7s-.8 1.6-1.7 1.6-1.7-.7-1.7-1.7.8-1.6 1.7-1.6zm4.2 7.9H9.8c-.8.3-1.5.4-2.3.4s-1.6-.2-2.3-.4H3.3L1.7 15h11.7l-1.7-2.9zm-8.6 2.1l.8-1.3h1.2c.8.3 1.6.4 2.4.4s1.7-.2 2.4-.4h1.3l.8 1.3H3.1z"/></g></svg>