<svg xmlns="http://www.w3.org/2000/svg" width="18" height="18" viewBox="0 0 18 18"><g fill="#666"><path d="M9 7c-1.1 0-2 .9-2 2 0 .5.2 1 .5 1.3.3.4.9.7 1.5.7s1.2-.3 1.5-.7c.3-.3.5-.8.5-1.3 0-1.1-.9-2-2-2zM8 9c0-.5.5-1 1-1s1 .5 1 1-.5 1-1 1-1-.5-1-1z"/><path d="M13.4 8.3c-1.1-1.1-1.7-2.5-1.7-4V1H6.3v3.3c0 1.5-.6 3-1.7 4L0 13l3.8 3.8 1.4-1.4C5.8 16.9 7.3 18 9 18s3.2-1.1 3.8-2.7l1.4 1.4L18 13l-4.6-4.7zM9 17c-1.5 0-2.7-1.1-3-2.5l.6-.6c.6-.6 1.5-1 2.3-1s1.7.3 2.3 1l.6.6C11.7 15.9 10.5 17 9 17zm4-2.9l-1-1s-.1-.1-.2-.1c-.8-.7-1.8-1.1-2.8-1.1s-2 .4-2.8 1.1c-.1 0-.2.1-.2.2l-1 1-1.2 1.2L1.4 13l3.9-4c1.3-1.3 2-3 2-4.8V2h3.4v2.3c0 1.8.7 3.5 2 4.8l3.9 3.9-2.4 2.4-1.2-1.3z"/></g></svg>