<svg xmlns="http://www.w3.org/2000/svg" width="18" height="18" viewBox="0 0 15 15"><g fill="#FFF"><path d="M7.5 5.8c-.9 0-1.7.8-1.7 1.7 0 .4.2.8.4 1.1.3.3.8.6 1.3.6s1-.3 1.3-.6c.2-.3.4-.7.4-1.1 0-.9-.8-1.7-1.7-1.7zm-.8 1.7c0-.4.4-.8.8-.8s.8.4.8.8-.4.8-.8.8-.8-.4-.8-.8z"/><path d="M11.2 6.9c-1-.9-1.4-2.1-1.4-3.3V.8H5.3v2.8c0 1.3-.5 2.5-1.4 3.3L0 10.8 3.2 14l1.2-1.2c.4 1.3 1.7 2.2 3.1 2.2s2.7-.9 3.2-2.3l1.2 1.2 3.2-3.1-3.9-3.9zm-3.7 7.3c-1.3 0-2.3-.9-2.5-2.1l.5-.5c.5-.5 1.3-.8 1.9-.8s1.4.3 1.9.8l.5.5c0 1.1-1 2.1-2.3 2.1zm3.3-2.4l-.8-.9s-.1-.1-.2-.1c-.7-.6-1.5-.9-2.3-.9s-1.7.3-2.3.9c-.1 0-.2.1-.2.2l-.8.8-1 1-2-2 3.3-3.3c1.1-1.1 1.7-2.5 1.7-4V1.7H9v1.9c0 1.5.6 2.9 1.7 4l3.2 3.2-2 2-1.1-1z"/></g></svg>