<svg xmlns="http://www.w3.org/2000/svg" width="18" height="18" viewBox="0 0 38 38"><path fill="#333" d="M31.8 29.9c-.9-.9-2-1.4-3.3-1.4H19c-1.3 0-2.4-.5-3.3-1.4-.9-.9-1.4-2-1.4-3.3v-3.3h13.4c1.2 0 2.3-.4 3.1-1.3.9-.9 1.3-1.9 1.3-3.1 0-1.2-.4-2.3-1.3-3.1-.9-.9-1.9-1.3-3.1-1.3H14.3V4.8c0-1.3-.5-2.4-1.4-3.3-.9-1-2-1.5-3.3-1.5-1.3 0-2.4.5-3.4 1.4-.9.9-1.4 2-1.4 3.4v19c0 3.9 1.4 7.3 4.2 10 2.8 2.8 6.1 4.2 10 4.2h9.4c1.3 0 2.4-.5 3.3-1.4.9-.9 1.4-2 1.4-3.3s-.4-2.5-1.3-3.4zm-1.5 5.3c-.6.6-1.2.8-1.9.8H19c-3.4 0-6.2-1.2-8.6-3.6C8 30 6.8 27.2 6.8 23.8v-19c0-.8.3-1.4.8-2 .6-.5 1.2-.8 2-.8s1.4.3 1.9.8c.6.6.8 1.2.8 2v8.9h15.3c.7 0 1.2.2 1.7.7.5.5.7 1 .7 1.7s-.2 1.2-.7 1.7c-.5.5-1 .7-1.7.7H12.3v5.3c0 1.9.7 3.5 2 4.8 1.3 1.3 2.9 2 4.7 2h9.4c.8 0 1.4.3 1.9.8s.8 1.2.8 1.9-.2 1.3-.8 1.9z"/></svg>