<svg xmlns="http://www.w3.org/2000/svg" width="18" height="18" viewBox="0 0 38 38"><path fill="#5B5B5B" d="M20 .7v1.7s-.1.2-.2.2c-.2 0-.3-.1-.3-.3S19.1 0 17.2 0s-2 1.3-2 1.8.5 1.5 2.6 2.3c2.2.8 2.9 2 2.9 3.9s-1.3 2.4-1.3 2.4h4.3s.2 0 .2.3v2.2s0 .2-.3.2-.3-.2-.4-.3c-.1-.1-.6-1.8-1.6-1.9h-2.5s-.3 0-.3.4v3.5s0 .1.1.1h2.6s.4-.2.4-.6v-.6s0-.4.4-.4.5.3.5.5v1.1l-.3.3v.2l.3.4V17s-.1.3-.4.3-.5-.2-.5-.4v-.6s0-.5-.4-.6-.7-.2-1.1-.2H19s-.2 0-.2.2v4.1s.2.6.5.7c.4.1 1 .2 1.6.2.6 0 1.8 0 2.4-.8.6-.8 1-1 .9-1.7v-2.4s.1-2.1 2.2-3.9 3.4-2.2 4.9-2.1c1.5 0 4.8.2 6.8 4.1V6.3C38 2.8 35.1 0 31.7 0H19.6s.3.3.4.7z"/><path fill="#5A5A5A" d="M18.4 37.8v-7.2s-.1-.2-.4-.3c-.3 0-.5.3-.5.3h-2.7s-.3-.3-.5-.4c-.2 0-.1-.2.2-.2.3 0 .9-.1 1-.2v-4s-3 2-6.4 2c-3.3 0-8-1.2-9.1-5.4v9.3C0 35.2 2.9 38 6.3 38h11.8v-.2h.3z"/><path fill="#515151" d="M.9 14.8c0-.2-.6 0-.6 0s.2-1.1.8-1.5c.6-.4.8-.5.8-.5v-.7s3.2-1.5 3.8-1.6c.7-.1.8-.3.8-.3s-2.4.5-2.7.6c-.3.1.6-1.4 3.3-1.5s6.5 1.3 6.5 1.3-2.9-2.3-7.1-2.4c0 0 1.6-1.2 7 .9 0 0 .2-1.5.2-1.7 0-.1.3-.7.8-.3.4.3.3 1.8.5 2.2.2.3.8.7 1.7.7.9 0 2.2-.3 2.3-1.3.1-.9.3-2-3.2-3.3h-.1s-2.2-.8-2.1-2.6c.2-1.6.4-2.1 1.6-2.8h-9C2.9 0 0 2.8 0 6.3v9.6l.2-.1s.6-.8.7-1z"/><path fill="#787878" d="M35.3 23.9c-1.8 1.1-3.4 1-4.1 1s-2.9-.2-4.2-1.5c-1.3-1.3-2.3-2.4-2.8-4 0 0-.3.2-.3.3v1.5H21s.6.5.7 1.6c.1 1.1-.9 2.5-2.1 2.8l2.5 4.7h.9v.5h-2.2v-.3h-.9s-.2.1-.2.3v7.1h.2v.2h11.7c3.5 0 6.3-2.8 6.3-6.3V20.7c-.1.4-1 2.2-2.6 3.2z"/><path fill="#595959" d="M17 15.7s-1.7 1.6-2 1.6h-1.3s0-.3.1-.5c.1-.1-1.4-2.2-3.9-2.1 0 0-1.1.1-1.8.3 0 0-.3-.3-.5-.3s-.5.3-.5.3l-.2-.3s-.6.4-.6.5v.5l-.7.4-.3.1-.1.3-.4-.1v.8l-.4.3.1.3-.3.2.1.5-.1.3-.3.2v1.3l.3.4v.6c0 .1.2.3.2.4 0 .1.1.3.1.5s1.6 2.6 3.1 3.1 1.3.1 1.5.1c.1 0 .3-.3.3-.3s-.1.7.2.7c.3 0 2.6.7 5.8-1.1v-3.5s-1.2.1-1.2-.3-.1-.7.2-.7h2.3s.2 0 .2-.4v-4.3l.1.2z"/><path fill="#787878" d="M17.3 21.1v4s-.1.1.2.2c.3 0 2.2 0 2.4-2 .3-1.9-1.9-2.4-2.4-2.4 0 .1-.2 0-.2.2zm14-10.5s-2.1 0-3.4 1.4-2 2.9-2 5.4c0 2.5 1.1 4 1.3 4.5s1.5 2.3 4.1 2.3 3.5-1.4 3.8-1.8 1.7-2.1 1.7-5-1.1-4.6-1.9-5.5-1.9-1.3-3.6-1.3zM17.4 26v4.2s.4.2.5.2h2.4l.2-.4-2.1-4h-1z"/></svg>