<svg xmlns="http://www.w3.org/2000/svg" width="18" height="18" viewBox="0 0 38 38"><g fill="#333"><path d="M15.6 16.5h1c1.7 0 2.5-.4 2.5-1.7V14c0-1.5-.9-1.8-2.4-1.8H14V19h1.6v-2.5zm0-3.1h.8c.7 0 1 .2 1 .7v.4c0 .7-.3.8-1.1.8h-.7v-1.9zm6.3-1.1l-2.1 1v1.3l1.5-.7v3.9h-1.5V19h4.5v-1.2h-1.4v-5.5z"/><path d="M19 6.2c-7.2 0-13 5.8-13 13h2c0-6.1 4.9-11 11-11s11 4.9 11 11h2c0-7.1-5.8-13-13-13zM17.9 0h2v4h-2zM0 15h4v2H0zm34 0h4v2h-4zM31.187 2.57l1.414 1.414-2.828 2.829-1.414-1.414zM5.601 2.359L8.43 5.187 7.015 6.601 4.187 3.773zM3.4 26.1h1.3v1.5c-.2.2-.6.3-.9.3-1.4 0-2.2-1-2.2-2.6s.9-2.5 2.1-2.5c.7 0 1.1.3 1.4.6l.8-.9c-.5-.5-1.2-1-2.3-1-2 0-3.5 1.4-3.5 3.9s1.5 3.8 3.5 3.8c1 0 1.9-.4 2.4-.9V25H3.4v1.1zM14 23.8c0-1.7-1.2-2.2-2.8-2.2H8.6V29h1.5v-2.8h1l1.5 2.8h1.6l-1.7-3c.9-.4 1.5-1 1.5-2.2zM11 25h-1v-2.3h1c.9 0 1.5.3 1.5 1.1S12 25 11 25zm6.8-3.4L15.4 29h1.5l.5-1.9h2.4l.5 1.9h1.5l-2.4-7.4h-1.6zm-.1 4.4l.2-.8.6-2.4.6 2.4.2.8h-1.6zm8.1-1l2.1 4h1.5v-7.4H28v2.9c0 .8.1 1.8.2 2.6l-.7-1.6-2.1-3.9h-1.5V29h1.4v-3c0-.8-.1-1.8-.2-2.6l.7 1.6zm8.5-3.4h-2V29h2.1c2.2 0 3.6-1.2 3.6-3.7-.1-2.5-1.5-3.7-3.7-3.7zm-.1 6.2h-.5v-5h.5c1.4 0 2.2.7 2.2 2.5s-.8 2.5-2.2 2.5zM9.3 30.6H6.9V38h1.5v-2.6h1c1.6 0 2.9-.8 2.9-2.4-.1-1.8-1.4-2.4-3-2.4zm0 3.6h-.9v-2.4h.8c1 0 1.6.3 1.6 1.1 0 .9-.5 1.3-1.5 1.3zm10.6-1.4c0-1.7-1.2-2.2-2.8-2.2h-2.6V38H16v-2.8h1l1.5 2.8h1.6l-1.7-3c.9-.4 1.5-1 1.5-2.2zM17 34h-1v-2.3h1c.9 0 1.5.3 1.5 1.1S17.9 34 17 34zm5.4-3.4h1.5V38h-1.5zm9.4 0h-1.6l-.7 1.5c-.2.3-.3.7-.5 1.2-.2-.5-.4-.8-.5-1.2l-.7-1.5H26l1.9 3.6-2 3.8h1.6l.8-1.6c.2-.4.3-.8.5-1.2.2.5.4.8.6 1.2l.8 1.6h1.6l-2.1-3.7 2.1-3.7z"/></g></svg>