<svg xmlns="http://www.w3.org/2000/svg" width="18" height="18" viewBox="0 0 18 18"><path fill="#333" d="M11.1 13.3H6.7v-1.6C6.7 8.8 4 6.3 4 6.3l.6-.7c.1.1 3.1 2.7 3.1 6.1v.7h2.5v-.7c0-3.3 2.9-6 3.1-6.1l.6.7s-2.7 2.5-2.7 5.4v1.6zm1.3 1.4h-.2c-.2.1-.3.4-.2.7.1.1.2.2.4.2h.2c.2-.1.3-.4.2-.7-.1-.1-.2-.2-.4-.2zm1.7-1.3c-.1 0-.2 0-.3.1-.2.2-.2.5 0 .7.1.1.2.1.3.1.1 0 .2 0 .3-.1.2-.2.2-.5 0-.7 0 0-.1-.1-.3-.1zm1.2-1.7c-.2 0-.3.1-.4.3-.1.2 0 .5.2.6h.2c.2 0 .3-.1.4-.2.1-.2 0-.5-.2-.6 0-.1-.1-.1-.2-.1zm.1-6.3h-.2c-.2.1-.3.4-.2.7.1.2.2.3.4.3h.2c.2-.1.3-.4.2-.6-.1-.3-.2-.4-.4-.4zm-1.2-1.8c-.1 0-.2 0-.3.1-.2.2-.2.5 0 .7.1.1.2.1.3.1.1 0 .2 0 .3-.1.2-.2.2-.5 0-.7-.1-.1-.2-.1-.3-.1zm-1.7-1.3c-.1 0-.3.1-.4.2-.1.2 0 .5.2.7h.2c.1 0 .3-.1.4-.2.1-.2 0-.5-.2-.7h-.2zm-7.2.9h.2c.3-.2.4-.5.2-.7-.1-.1-.2-.2-.4-.2h-.2c-.3.2-.4.4-.2.7.1.2.2.2.4.2zM3.6 4.5c.1 0 .2 0 .3-.1.2-.2.2-.5 0-.7-.1-.1-.2-.1-.3-.1-.1 0-.2 0-.3.1-.2.2-.2.5 0 .7.1.1.2.1.3.1zM2.4 6.3c.2 0 .3-.1.4-.3.1-.2 0-.5-.2-.6h-.2c-.2 0-.3 0-.4.2-.1.2 0 .5.2.6 0 .1.1.1.2.1zm-.1 6.3h.2c.2-.1.3-.4.2-.6-.1-.2-.2-.3-.4-.3h-.2c-.2.1-.3.4-.2.6 0 .2.2.3.4.3zm1.2 1.8c.1 0 .2 0 .3-.1.2-.3.2-.6 0-.8-.1-.1-.2-.1-.3-.1s-.2 0-.3.1c-.2.2-.2.5-.1.7.2.1.3.2.4.2zm1.7 1.3c.1 0 .3-.1.4-.2.1-.2 0-.5-.2-.7h-.2c-.1 0-.3.1-.4.2-.1.2 0 .5.2.7h.2zM9 .9c.5 0 .9.4.9.9s-.4 1-.9 1c-.6 0-1-.4-1-.9s.4-1 1-1M9 0C8 0 7.1.9 7.1 1.9S7.9 3.8 9 3.8s1.9-.9 1.9-1.9S10 0 9 0z"/><path fill="#333" d="M9 5.6c.5 0 .9.4.9.9s-.4 1-.9 1c-.6 0-1-.4-1-.9s.4-1 1-1m0-.9c-1 0-1.9.9-1.9 1.9S7.9 8.5 9 8.5s1.9-.9 1.9-1.9S10 4.7 9 4.7zm0 10.5c.5 0 .9.4.9.9s-.4.9-.9.9-.9-.4-.9-.9c-.1-.5.3-.9.9-.9m0-1c-1 0-1.9.9-1.9 1.9 0 1 .9 1.9 1.9 1.9s1.9-.9 1.9-1.9c-.1-1-.9-1.9-1.9-1.9zM16.1 8c.5 0 .9.4.9.9s-.4.9-.9.9-.9-.4-.9-.9.4-.9.9-.9m0-.9c-1 0-1.9.9-1.9 1.9s.9 1.9 1.9 1.9c1 0 1.9-.9 1.9-1.9s-.9-1.9-1.9-1.9zM1.9 8c.5 0 .9.4.9 1 0 .5-.4.9-.9.9s-1-.4-1-.9c0-.6.5-1 1-1m0-.9C.9 7.1 0 7.9 0 9s.9 1.9 1.9 1.9S3.8 10 3.8 9s-.9-1.9-1.9-1.9z"/></svg>