<svg xmlns="http://www.w3.org/2000/svg" width="18" height="18" viewBox="0 0 18 18"><g fill="#333"><path d="M10.6 11.7c-.1 0-.3.1-.5.2V15c.1.1.3.2.5.2.3 0 .4-.2.4-.7v-2.2c-.1-.4-.2-.6-.4-.6zm3.3 0c-.3 0-.5.2-.5.7v.5h.9v-.5c.1-.5-.1-.7-.4-.7z"/><path d="M15.8 8.2c-.6-.6-1.2-.6-1.5-.7-2.1-.1-5.3-.1-5.3-.1s-3.2 0-5.3.1c-.3 0-.9 0-1.5.7-.5.5-.6 1.5-.6 1.5s-.1 1.2-.1 2.4v1.1c0 1.2.1 2.5.1 2.5s.1 1 .6 1.5c.6.6 1.3.6 1.7.7C5.1 18 9 18 9 18s3.2 0 5.3-.1c.3 0 .9 0 1.5-.6.5-.5.6-1.5.6-1.5s.1-1.2.1-2.5v-1.1c0-1.2-.1-2.5-.1-2.5s-.1-1.1-.6-1.5zM4.8 16h-1v-5.8H2.7v-1h3.2v.9H4.8V16zm3.6 0h-.9v-.6c-.4.4-.7.6-1 .6-.3 0-.5-.1-.6-.4 0-.1-.1-.4-.1-.8v-4h.9v4.1c0 .1.1.2.2.2.2 0 .4-.1.6-.4v-3.9h.9V16zm3.5-1.6c0 .5 0 .8-.1 1-.1.4-.4.6-.7.6s-.7-.2-.9-.6v.6h-1V9.1h.9v2.2c.3-.4.6-.6.9-.6.4 0 .6.2.7.6 0 .2.1.5.1 1v2.1zm3.4-.8h-1.8v.9c0 .5.1.7.5.7.2 0 .4-.1.4-.4v-.6h.9v.7c0 .2-.1.4-.2.6-.2.4-.6.6-1.1.6s-.9-.2-1.1-.5c-.2-.2-.3-.7-.3-1.2v-1.8c0-.5.1-.9.3-1.2.3-.3.6-.5 1.1-.5s.8.2 1.1.5c.2.2.3.7.3 1.2l-.1 1zM6.6 6.9V4.1L7.8 0h-1l-.7 2.7L5.4 0H4.3c.2.6.4 1.3.7 1.9.3.9.5 1.7.6 2.2v2.8h1zM9 7c.5 0 .8-.2 1.1-.5.2-.2.3-.7.3-1.2V3.4c0-.6-.1-.9-.3-1.2-.3-.4-.6-.5-1.1-.5s-.8.2-1.1.5c-.2.3-.3.7-.3 1.2v1.8c0 .6.1.9.3 1.2.2.4.6.6 1.1.6zm-.5-3.8c0-.5.1-.7.4-.7.3 0 .4.2.4.7v2.2c0 .5-.1.7-.4.7-.3 0-.4-.2-.4-.7V3.2zm5.2 3.7V1.8h-.9v3.9c-.2.3-.4.4-.6.4-.1 0-.2-.1-.2-.2V1.7h-1v4.1c0 .4 0 .6.1.8.1.2.3.4.6.4s.7-.2 1-.6V7h1z"/></g></svg>