<svg xmlns="http://www.w3.org/2000/svg" width="18" height="18" viewBox="0 0 18 18"><g fill="#333"><path d="M13.6 12.2l-4-4.3-1.7 1.7H4.8V7.4l2.7-2.9c.3-.2.6-.5.8-.8C9.8 2.1 10.8 1 13.1 1c1.3 0 2.6.6 3.6 1.5 1 1 1.5 2.4 1.4 3.7-.1 1.5-.8 2.2-3.8 5.4l-.7.6zm-4-5.6l4 4.2c2.8-3 3.3-3.6 3.4-4.7.1-1.1-.3-2.2-1.1-3-.8-.8-1.8-1.2-2.8-1.2-1.8 0-2.6.9-4 2.5-.3.2-.6.5-.9.9L5.8 7.9v.9h1.7l2.1-2.2z"/><path d="M9.4 9.7l-.8.6 3.4 3.6.7-.7zm-1.5 1.6l-.7.6 3.4 3.5.6-.7z"/><path d="M4.8 11.2l-.2-.2C1.7 7.8 1.1 7.3 1 6.1c-.1-1 .3-2.1 1-2.9.8-.8 1.9-1.3 3-1.3 1.3 0 2.1.4 2.8 1l.7-.7C7.4 1.4 6.3 1 5 1c-1.4 0-2.7.6-3.7 1.6C.4 3.6-.1 4.8 0 6.2c.1 1.5.8 2.2 3.8 5.4L9 17.1l.7-.7-4.9-5.2z"/></g></svg>