<svg xmlns="http://www.w3.org/2000/svg" width="18" height="18" viewBox="0 0 18 18"><path fill="none" d="M.9 15.6c0 .2.2.5.5.5h12.8c.2 0 .5-.2.5-.5V4.3H.9v11.3zm12.4-1.4H9v-.9h4.3v.9zm0-2.4H9v-.9h4.3v.9zm0-2.3H9v-1h4.3v1zM2.4 6.2h10.9v.9H2.4v-.9zm0 2.3h5.2v3.3H2.4V8.5zm0 4.8h5.2v.9H2.4v-.9z"/><path fill="none" d="M3.3 9.5h3.3v1.4H3.3z"/><path fill="#333" d="M1.9.9v.9h15.2v13.3c0 .5-.4.9-.9.9h-.6c0-.1.1-.3.1-.5V3.3H0v12.3c0 .8.7 1.4 1.4 1.4H16c1 0 1.9-.9 1.9-1.9V.9h-16zm12.8 14.7c0 .2-.2.5-.5.5H1.4c-.2 0-.5-.2-.5-.5V4.3h13.7v11.3z"/><path fill="#333" d="M2.4 6.2h10.9v.9H2.4zM9 8.5h4.3v.9H9zm0 2.4h4.3v.9H9zm0 2.4h4.3v.9H9zm-6.6 0h5.2v.9H2.4zm5.2-4.8H2.4v3.3h5.2V8.5zm-1 2.4H3.3V9.5h3.3v1.4z"/></svg>