<svg xmlns="http://www.w3.org/2000/svg" width="18" height="18" viewBox="0 0 18 18"><path fill="none" d="M16.6.9H1.4c-.2 0-.5.2-.5.5v15.2c0 .2.2.5.5.5h7.1v-6.2H6.6V7.6h1.9V6.2c0-2.4 2.5-2.8 2.6-2.8h3.6v3.3h-2.4v.9h2.4l-.5 3.3h-1.9v6.2h4.3c.2 0 .5-.2.5-.5V1.4c0-.2-.3-.5-.5-.5z"/><path fill="#333" d="M16.6 0H1.4C.7 0 0 .6 0 1.4v15.2c0 .7.7 1.4 1.4 1.4h8V9.9H7.6V8.5h1.8V6.2c0-1.2 1.2-1.9 1.6-1.9h2.7v1.4h-2.3v2.7h2.1l-.1 1.4h-2V18h5.3c.8 0 1.4-.7 1.4-1.4V1.4C18 .6 17.4 0 16.6 0zm.5 16.6c0 .2-.2.5-.5.5h-4.3v-6.2h1.9l.5-3.3h-2.4v-1h2.4V3.3h-3.6s-2.6.5-2.6 2.8v1.4H6.6v3.3h1.9V17H1.4c-.2 0-.5-.2-.5-.5V1.4c0-.2.2-.5.5-.5h15.2c.2 0 .5.2.5.5v15.2z"/></svg>