<svg xmlns="http://www.w3.org/2000/svg" width="18" height="18" viewBox="0 0 38 38"><g fill="#333"><path d="M38 12.8c.2 2.1-.2 4.7-1.6 4.8-2.3.2-1.1-2.3-1.1-3.8.1-4.4-3.7-7.4-7.3-7.4-1 0-3.5.7-3.1-1.5.2-1 1-1 1.8-1.1 6.2-.8 10.8 3.4 11.3 9zm-10.1 5.1c2.7 1.5 5.8 2.2 5.3 6.5-.1 1-.8 2.4-1.4 3.3-4.5 6.3-18 8.9-26.4 4.1-2.8-1.6-5.8-3.9-5.3-8.6.4-4 3.1-7.1 5.7-9.8C8.3 10.9 11 9 14.6 8.1c3.9-1 5.1 2.3 4 5.5 2.3-.2 7.1-2.7 9.2-.2 1 1.1.7 3 .1 4.5zM25 28.1c.8-1 1.7-2.4 1.7-4.1 0-5.3-6.7-7.2-11.9-6.8-2.9.2-4.8.8-6.8 2-1.6 1-3.6 2.5-4 4.9-1.1 5.3 4.7 7.8 8.9 8.1 4.9.3 9.8-1.4 12.1-4.1z"/><path d="M32.8 12.8c.2 1.6-.2 3-1.2 3.1-1.5.1-1-1.1-1.1-2.4-.1-.9-.8-1.8-1.4-2.1-1.2-.6-3.1.4-3.1-1.3 0-1.3 1.1-1.1 1.7-1.2 2.8-.2 4.7 1.7 5.1 3.9zM20.3 23.5c2.3 6.8-9.5 10-11.7 4.1-1.4-3.9 2-7.1 5.6-7.4 3.2-.4 5.5 1.2 6.1 3.3zm-5.4 1.1c.5.8 1.6.2 1.5-.4-.1-.8-1.5-.6-1.5.4zM13 28.2c2-.5 2.2-4.2-.7-3.5-2.6.6-2.1 4.2.7 3.5z"/></g></svg>