<svg xmlns="http://www.w3.org/2000/svg" width="18" height="18" viewBox="0 0 38 38"><g fill="#333"><path d="M21 7v4l-4-4h-3v9h3v-4l4 4h3V7z"/><path d="M35 0H3C1.4 0 0 1.3 0 3v32c0 1.6 1.4 3 3 3h32c1.7 0 3-1.4 3-3V3c0-1.7-1.3-3-3-3zm0 2c.5 0 1 .5 1 1v2h-8V2h7zM11.9 21V2H26v19H11.9zM10 13H2V7h8v6zm0 2v6H2v-6h8zm0 8l3.6 6H2v-6h8zm2.3 0h13.5L19 34.2 12.3 23zM28 23h8v6H24.4l3.6-6zm0-2v-6h8v6h-8zm0-8V7h8v6h-8zM3 2h7v3H2V3c0-.5.5-1 1-1zm0 34c-.5 0-1-.5-1-1v-4h12.8l3 5H3zm32 0H20.2l3-5H36v4c0 .5-.5 1-1 1z"/></g></svg>