<svg xmlns="http://www.w3.org/2000/svg" width="18" height="18" viewBox="0 0 18 18"><path fill="#333" d="M15.2 1.9c1 0 1.9.9 1.9 1.9v7.6c0 1-.9 1.8-1.9 1.8h-4.7l-.3.5L9 15.6l-1-1.9-.4-.5H2.8c-.9 0-1.9-.6-1.9-1.7V3.8c0-1.1.9-1.9 1.9-1.9h12.4zm-.1-1H2.8C1.3.9 0 2.2 0 3.8v7.7c0 1.6 1.3 2.7 2.8 2.7h4.3l1.4 2.6c.1.2.3.3.5.3s.3-.1.4-.2l1.5-2.6h4.3c1.6 0 2.8-1.2 2.8-2.8V3.8C18 2.2 16.7.9 15.1.9z"/><path d="M4.6 6s-.4 0-.8.4V4.8h-1v4.1h1v-.3s.2.4.8.4C4.6 9 6 9 6 7.5 6 7.5 5.9 6 4.6 6zm-.2 2.1c-.3 0-.6-.3-.6-.6s.3-.6.6-.6.6.3.6.6-.3.6-.6.6zm1.9-3.4v.9s.4 0 .4.8v2.4h.9V6.3c.1 0 .1-1.6-1.3-1.6zM9.9 6S8.3 6 8.3 7.5c0 0 0 1.5 1.6 1.5 0 0 1.6 0 1.6-1.5.1 0 .1-1.5-1.6-1.5zm0 2.1c-.3 0-.6-.3-.6-.6s.3-.6.6-.6.6.3.6.6-.2.6-.6.6zm4.3-2v.3s-.3-.4-.8-.4c0 0-1.4 0-1.4 1.5 0 0 0 1.5 1.3 1.5 0 0 .6 0 .9-.4v.2s0 .7-.6.7h-.2v.9h.4s1.4 0 1.4-1.5V6.1h-1zm-.6 2c-.3 0-.6-.3-.6-.6s.3-.6.6-.6.6.3.6.6c.1.4-.2.6-.6.6z" fill="#333"/></svg>