<svg xmlns="http://www.w3.org/2000/svg" width="18" height="18" viewBox="0 0 38 38"><path fill="#333" d="M21.2 29.6c-1.3 0-2.4-.4-3.3-1.2-4.7-3.8-7.8-5.8-13.7-9H4c-.1 0-.2-.1-.3-.1L0 17.4h4.2c8.3 0 13.2-3 13.2-8.1v-1H24v1c0 1.7-.2 3.2-.7 4.7.8-1.4 1.1-3 1-4.6l-.1-1h6.6l.2.9c.2 2.3-.1 4.6-.9 6.6 1-2 1.5-4.2 1.3-6.5l-.1-1.1H38V10c.3 3.6-.7 9.2-4.4 13.6-3.1 3.6-7.4 5.6-12.4 6zM7.7 19.2c4.4 2.5 7.4 4.4 11.4 7.7.5.4 1.3.7 2 .7 4.5-.4 8.2-2.1 10.9-5.3 3.3-3.9 4.2-8.7 4-12h-2.6c.1 5.8-4.1 11.7-9.5 13.2h-.3c-.6 0-1.1-.5-1.1-1.1v-.6l.4-.3c4-2.6 6.2-6.8 6.1-11.2h-2.7c-.2 4.5-3.4 8.5-8.1 10.3l-.2.1h-.2c-.6 0-1.1-.5-1.1-1.1V19l.4-.3c3-2.1 4.6-4.9 4.8-8.3h-2.7c-.4 4.8-4.7 8-11.5 8.8z"/></svg>