<svg xmlns="http://www.w3.org/2000/svg" width="18" height="18" viewBox="0 0 18 18"><g fill="#333"><path d="M16.7 11.4h-2.2c.1-.6.2-1.2.2-1.9h-.9c0 .7-.1 1.3-.2 1.9h-2.2c0-.6 0-1.2.1-1.9h-.9c0 .7 0 1.3-.1 1.9H7.7c0-.6 0-1.2-.1-1.9h-1c0 .7 0 1.3.1 1.9H4.5c-.1-.6-.2-1.2-.2-1.9h-1c0 .7.1 1.3.2 1.9H1.3c-.2-.6-.3-1.3-.3-1.9H0c0 .7.1 1.3.3 1.9l.3.9c0 .1.1.3.2.5.1.3.3.7.5.9.1.1.2.3.3.5.2.3.5.7.8.9C4 16.9 6.3 18 8.8 18h.4c2.5 0 4.7-1.1 6.3-2.8.3-.3.5-.6.8-.9.1-.1.2-.3.3-.5.2-.3.4-.6.5-.9.1-.1.1-.3.2-.5l.3-.9c.2-.6.3-1.2.3-1.9H17c0 .5-.1 1.2-.3 1.8zM11 13.7c0-.3.1-.6.1-.9v-.5h2.1c0 .1-.1.3-.1.5-.1.3-.2.7-.4.9-.1.1-.1.3-.2.5h-1.7c.1-.1.2-.3.2-.5zm-4.2-1.4v.5c0 .3.1.7.1.9 0 .1 0 .3.1.5H5.4c-.1-.1-.1-.3-.2-.5-.1-.3-.2-.6-.4-.9 0-.1-.1-.3-.1-.5h2.1zm-4.3 1.4l-.6-.9c-.1-.1-.1-.3-.2-.5h2c0 .1.1.3.1.5.1.3.2.7.3.9 0 .1.1.3.2.5H2.9c-.2-.1-.3-.3-.4-.5zm1.3 1.5h1c.2.4.6.9.9 1.2-.7-.3-1.3-.8-1.9-1.2zm2.2 0h1.3c.1.6.3 1.2.5 1.6-.6-.3-1.3-.9-1.8-1.6zM9 17c-.2-.2-.5-.9-.8-1.8h1.5c-.2.9-.5 1.5-.7 1.8zm.9-2.8H8.1c0-.1 0-.3-.1-.5 0-.3-.1-.6-.1-.9v-.5h2.5v.5c0 .3-.1.7-.1.9-.3.2-.3.4-.4.5zm.3 2.6c.2-.4.4-1 .5-1.6H12c-.5.7-1.2 1.3-1.8 1.6zm2.1-.5c.3-.3.6-.8.9-1.2h1c-.6.5-1.2 1-1.9 1.2zm3.8-3.5c-.2.3-.4.7-.6.9-.1.1-.2.3-.4.5h-1.5c0-.1.1-.3.2-.5l.3-.9c0-.1.1-.3.1-.5h2c0 .2 0 .3-.1.5zM5.7 1.7c.7-.4 1.5-.6 2.2-.7L9 .9c.4 0 .8 0 1.1.1.8.1 1.5.3 2.2.6C15 2.8 16.9 5.4 17 8.5h1C17.8 3.8 14 .1 9.3 0h-.5C4.1.1.2 3.8 0 8.5h.9C1.1 5.4 3 2.8 5.7 1.7zM0 9.5V9v.5zm0-1zm18 0V9v-.5zm0 1V9v.5z"/><path d="M8.5 1.9h.9v.9h-.9zM5.51 3.905l-.45-.78.78-.45.45.78zM3.1 5.04l.779.45-.45.78-.78-.45zM1.9 8.5h.9v.9h-.9zm13.3 0h.9v.9h-.9zm.153-2.603l-.78.45-.45-.779.78-.45zm-3.26-3.298l.78.45-.45.78-.78-.45zM9 8.3L6 5.4l-.6.6L9 9.7l3.2-3.2-.7-.7z"/></g></svg>