<svg xmlns="http://www.w3.org/2000/svg" width="18" height="18" viewBox="0 0 38 38"><g fill="#333"><path d="M27.6 13.1c0-.2 0-.4-.1-.5-.3-2-1-3.8-2.3-5.5-2.6-3.4-6.9-5.4-11.4-5.4-1.6 0-3.1.2-4.6.7C4.7 3.8 1.7 6.8.5 11-.9 15.8.8 20.5 5 23.7c-.1.5-.2 1-.3 1.6-.1.3-.1.6-.2.9l-1 4.6 4-2.5c.4-.2.7-.4 1-.6.8-.5 1.5-.9 2.2-1.3h.1c.8.1 1.5.2 2.4.3.3.1.7.1 1 .1h.1l2.3.3c-1.9-3.7-.7-8.2 3.3-10.9 1.7-1.1 3.8-1.7 5.9-1.7.6 0 1.3 0 1.9.2l-.1-1.6zm-10.1 3.4c-2.2 2.2-3.3 4.9-3 8.2-.2 0-.4-.1-.7-.1-1-.1-1.9-.3-2.8-.3h-.2c-.3 0-.7.1-.9.2-1.1.6-2.1 1.3-3.4 2.1.2-1 .4-1.9.6-2.8.2-.6.1-1-.5-1.4-3.8-2.7-5.4-6.7-4.2-10.8 1.1-3.8 3.8-6.1 7.5-7.3 1.3-.4 2.6-.6 4-.6 3.8 0 7.5 1.7 9.8 4.7.9 1.2 1.6 2.6 1.8 4.2 0 .3.1.5.1.8-3.1 0-5.9 1-8.1 3.1zm1.2-6c-.8 0-1.5.7-1.4 1.4 0 .8.6 1.4 1.4 1.4.8 0 1.4-.6 1.4-1.4 0-.8-.6-1.4-1.4-1.4zm-9 0c-.8 0-1.4.6-1.5 1.4 0 .8.6 1.4 1.4 1.4.8 0 1.4-.6 1.4-1.4.1-.7-.5-1.4-1.3-1.4zm0 0c-.8 0-1.4.6-1.5 1.4 0 .8.6 1.4 1.4 1.4.8 0 1.4-.6 1.4-1.4.1-.7-.5-1.4-1.3-1.4zm9 0c-.8 0-1.5.7-1.4 1.4 0 .8.6 1.4 1.4 1.4.8 0 1.4-.6 1.4-1.4 0-.8-.6-1.4-1.4-1.4zm0 0c-.8 0-1.5.7-1.4 1.4 0 .8.6 1.4 1.4 1.4.8 0 1.4-.6 1.4-1.4 0-.8-.6-1.4-1.4-1.4zm-9 0c-.8 0-1.4.6-1.5 1.4 0 .8.6 1.4 1.4 1.4.8 0 1.4-.6 1.4-1.4.1-.7-.5-1.4-1.3-1.4z"/><path d="M34.6 32.3c0-.3-.1-.7-.3-1.1l.3-.3c4.1-3.7 4.6-9.5 1.2-14-1.9-2.4-4.9-4.1-8.2-4.5-.6-.1-1.1-.1-1.7-.1h-.3c-2.4 0-4.7.7-6.7 2-3 1.9-4.8 4.9-5.1 8.1-.1.7 0 1.4.1 2.1.1.7.3 1.4.5 2.1.6 1.6 1.6 3.1 2.9 4.4 2.3 2.2 5.1 3.3 8.3 3.3.5 0 .9 0 1.4-.1.6-.1 1.1-.2 1.6-.3.4-.1.7-.2 1-.2.3 0 .8.3 1.3.5.3.2.7.3 1 .5l3.8 1.7-1-4c-.1 0-.1-.1-.1-.1zm-1.4-2.8c-1 .9-1.3 1.6-.7 2.7.1.2.1.5.2.7-1-.4-1.9-1.1-2.9-1.2h-.2c-.9 0-1.8.5-2.8.6-.4 0-.8.1-1.2.1-2.6 0-4.9-.9-6.9-2.7-.9-.8-1.5-1.7-2-2.6-1.9-3.7-.7-8.2 3.3-10.9 1.7-1.1 3.8-1.7 5.9-1.7.6 0 1.3 0 1.9.2 2.5.4 4.8 1.7 6.4 3.6 2.7 3.5 2.4 8.2-1 11.2zm-4.5-10c-.6 0-1.1.5-1.2 1.1 0 .7.5 1.2 1.1 1.2.6 0 1.1-.5 1.2-1.1 0-.6-.5-1.2-1.1-1.2zm-7.4 0c-.6 0-1.2.5-1.2 1.2 0 .6.5 1.1 1.2 1.1.6 0 1.1-.5 1.2-1.1 0-.6-.5-1.2-1.2-1.2zm7.4 0c-.6 0-1.1.5-1.2 1.1 0 .7.5 1.2 1.1 1.2.6 0 1.1-.5 1.2-1.1 0-.6-.5-1.2-1.1-1.2zm-7.4 0c-.6 0-1.2.5-1.2 1.2 0 .6.5 1.1 1.2 1.1.6 0 1.1-.5 1.2-1.1 0-.6-.5-1.2-1.2-1.2zm7.4 0c-.6 0-1.1.5-1.2 1.1 0 .7.5 1.2 1.1 1.2.6 0 1.1-.5 1.2-1.1 0-.6-.5-1.2-1.1-1.2zm-7.4 0c-.6 0-1.2.5-1.2 1.2 0 .6.5 1.1 1.2 1.1.6 0 1.1-.5 1.2-1.1 0-.6-.5-1.2-1.2-1.2z"/></g></svg>