<svg xmlns="http://www.w3.org/2000/svg" width="18" height="18" viewBox="0 0 18 18"><path fill="#333" d="M10.2 8.2c.3-.3.6-.8.6-1.3 0-.9-.9-1.7-1.8-1.7S7.2 6 7.2 7c0 .5.2.9.6 1.3-.8.4-1.4 1.3-1.4 2.3v.8h5.2v-.8c0-1-.6-1.9-1.4-2.4zM9 6.2c.5 0 .8.4.8.8 0 .5-.4.8-.8.8-.5 0-.8-.4-.8-.8 0-.5.3-.8.8-.8zm-1.7 4.2c.1-.8.8-1.5 1.7-1.5.9 0 1.6.7 1.7 1.5H7.3z"/><path fill="#333" d="M12.7 11.4l2.7 4.7H2.9l2.4-4.7h7.4m.6-1H4.7l-2.8 5.7v.9h14.7v-.9l-3.3-5.7zm3.3-2.8h-1V1.9H2.4v5.7h-1V.9h15.2z"/><ellipse fill="none" cx="1.8" cy="10.8" rx=".9" ry=".8"/><path fill="#333" d="M.9 14.2v-.9c0-.4.2-.7.6-.8h.4c.4 0 .8-.2 1-.5.3-.3.6-.8.6-1.3 0-1-.8-1.8-1.8-1.8S0 9.8 0 10.8c0 .5.2 1 .6 1.3-.4.3-.6.7-.6 1.3v1.8h2.8v-.9H.9zm.9-4.3c.5 0 .9.4.9.8s-.4.8-.9.8-.9-.4-.9-.8.4-.8.9-.8z"/><ellipse fill="none" cx="16.2" cy="10.8" rx=".9" ry=".8"/><path fill="#333" d="M15.2 14.2v.9H18v-1.8c0-.5-.2-1-.6-1.3.3-.3.6-.8.6-1.3 0-1-.8-1.8-1.8-1.8s-1.8.8-1.8 1.8c0 .5.2 1 .6 1.3.3.2.6.4 1 .5h.4c.3.1.6.4.6.8v.8h-1.8zm1.9-3.4c0 .5-.4.8-.9.8s-.9-.4-.9-.8.4-.8.9-.8.9.3.9.8z"/></svg>