<svg xmlns="http://www.w3.org/2000/svg" width="18" height="18" viewBox="0 0 18 18"><path fill="none" d="M6.5 3.4l-2 1.9h3.6zm8.1 9l2.1-6.2H4.2L6 12.4zm2.1-10.2l-1.5-.6-1.8 3.7h1.8zm-6.3 3.1v-1H8.5l.8 1z"/><circle fill="none" cx="14.7" cy="15.9" r=".7"/><circle fill="none" cx="6.2" cy="15.9" r=".7"/><path fill="#333" d="M14.7 14.3H6.5l-.3-.9h9.1L18 5.3h-1.8L18 1.7 14.7.4l-2.4 4.8h-.9V3.4H7.7L6.6 2 3.8 4.7 2.7 1H0v.9h2l3.6 12.5c-.6.2-1 .9-1 1.5 0 .9.8 1.7 1.7 1.7S8 16.8 8 15.9c0-.2 0-.5-.2-.7h5.6c-.1.2-.2.5-.2.7 0 .9.8 1.7 1.7 1.7.9 0 1.7-.8 1.7-1.7-.2-.9-1-1.6-1.9-1.6zm.5-12.7l1.5.6-1.5 3h-1.8l1.8-3.6zm-4.8 2.7v.9H9.3l-.8-.9h1.9zm-3.9-.9l1.6 1.8H4.5l2-1.8zM4.2 6.2h12.5l-2 6.2H6L4.2 6.2zm2 10.4c-.4 0-.7-.3-.7-.7 0-.4.3-.7.7-.7.4 0 .7.3.7.7 0 .4-.3.7-.7.7zm8.5 0c-.4 0-.7-.3-.7-.7 0-.4.3-.7.7-.7.4 0 .7.3.7.7 0 .4-.3.7-.7.7z"/></svg>