<svg xmlns="http://www.w3.org/2000/svg" width="18" height="18" viewBox="0 0 38 38"><path fill="#333" d="M26.8 1.9c5.1 0 9.3 4 9.3 9.3v15.6c0 5.1-4 9.3-9.3 9.3H11.2c-5.1 0-9.3-4-9.3-9.3V11.2c0-5.1 4-9.3 9.3-9.3h15.6m0-1.9H11.2C5.1 0 0 5.1 0 11.2v15.6C0 32.9 5.1 38 11.2 38h15.6C32.9 38 38 32.9 38 26.8V11.2C38 5.1 32.9 0 26.8 0z"/><path fill="#333" d="M19 12c3.8 0 7 3.2 7 7s-3.2 7-7 7-7-3.2-7-7 3.2-7 7-7m0-2.1c-5.1 0-9.1 4-9.1 9.1s4 9.1 9.1 9.1 9.1-4 9.1-9.1-4-9.1-9.1-9.1zM28.9 8c.7 0 1.1.4 1.1 1.1 0 .6-.4.8-1.1.8-.6 0-1.1-.4-1.1-1.1.1-.6.7-.8 1.1-.8m0-2.1c-1.7 0-3 1.3-3 3s1.3 3 3 3 3-1.3 3-3-1.3-3-3-3z"/></svg>