<svg xmlns="http://www.w3.org/2000/svg" width="18" height="18" viewBox="0 0 18 18"><g fill="#333"><path d="M0 0v13.7h6.6v-.9H.9V.9h16.2v12.8h.9V0z"/><path d="M14.6 12.3c0 1.5-1.2 2.8-2.8 2.8S9 13.9 9 12.3v-.9H8v.9c0 1.9 1.5 3.5 3.3 3.7v1H9.9v1h3.7v-.9h-1.4v-1c.9-.1 1.6-.5 2.2-1.1.7-.7 1.1-1.7 1.1-2.7v-.9h-1v.9z"/><path d="M9.9 11.4v.9c0 1 .9 1.9 1.9 1.9s1.9-.9 1.9-1.9V8.5c0-1-.9-1.9-1.9-1.9s-1.9.9-1.9 1.9v2.9zm1 0V8.5c0-.5.4-.9.9-.9s.9.4.9.9v3.7c0 .5-.4.9-.9.9s-.9-.4-.9-.9v-.8zM2.4 7.6h5.2v.9H2.4zm0 2.3h4.3v.9H2.4zm.9-5.7l.8 1.4h.7V2.9h-.7v1.8c0-.1 0-.2-.1-.3l-.8-1.5h-.6v2.7h.6V3.8c0 .1 0 .3.1.4zm4.2.3V4c0-.8-.5-1.1-1.2-1.1S5.1 3.2 5.1 4v.5c0 .8.5 1.1 1.2 1.1.8 0 1.2-.4 1.2-1.1zm-1.8-.1v-.3c0-.5.2-.7.6-.7.4 0 .6.2.6.7v.3c0 .5-.2.7-.6.7-.4-.1-.6-.3-.6-.7zm3.4 1.1v-2h.8v-.6H7.7v.6h.7v2zm1.1-2.6h.7v2.7h-.7zm2.4.5h.7v-.5c-.2 0-.5-.1-.7-.1-.8 0-1.2.3-1.2 1.2v.4c0 .9.3 1.1 1.2 1.1.2 0 .6 0 .8-.1V5c-.2 0-.5.1-.7.1-.5 0-.7-.2-.7-.6V4c-.1-.4 0-.6.6-.6zm2.8 0v-.5h-1.8v2.6h1.8v-.4h-1.2v-.6h1.1v-.6h-1.1v-.5z"/></g></svg>