<svg xmlns="http://www.w3.org/2000/svg" width="18" height="18" viewBox="0 0 18 18"><path fill="none" d="M13.7 14.5l1.3-1.2h-1.3z"/><path fill="none" d="M1.9 15.6h10.7l.2-.2v-3.1h3.1l.2-.2V5.7H1.9v9.9zm1.9-8h10.4v.9H3.8v-.9zm0 2.3h10.4v.9H3.8v-.9zm0 2.4h4.3v.9H3.8v-.9zm9.5-9h-1V1.4H5.7v1.9h-1V1.4H1.9v3.3h14.2V1.4h-2.8z"/><path fill="#333" d="M3.8 7.6h10.4v.9H3.8zm0 2.3h10.4v.9H3.8zm12.3 7.2H.9v.9h16.2v-3.8h-1z"/><path fill="#333" d="M13.3.5V0h-.9v.5H5.7V0h-1v.5H.9v16h12l4.1-4.1V.4h-3.7zm.4 14v-1.2H15l-1.3 1.2zm2.4-2.4l-.2.2h-3.1v3.1l-.2.2H1.9V5.7h14.2v6.4zm0-7.4H1.9V1.4h2.8v1.9h.9V1.4h6.6v1.9h.9V1.4h2.8v3.3z"/><path fill="#333" d="M3.8 12.3h4.3v.9H3.8z"/></svg>