<svg xmlns="http://www.w3.org/2000/svg" width="18" height="18" viewBox="0 0 18 18"><text transform="translate(2.368 25.105)" fill="#FF7006" font-family="'HankookKRRegular-KSCpc-EUC-H'" font-size="4.263">결재게시</text><path fill="none" d="M16.628 7.164l-.99.99L15 7.518l.99-.99zM14.32 8.177l.636.636-5.374 5.374-.636-.636z"/><path fill="#333" d="M12.8 17.1H.9V.9h11.9v5.5l.9-1V0H0v18h13.7v-4.5l-.9.9z"/><path fill="#333" d="M16 5.2l-1.7 1.7-.7.7L8.2 13l-.8 2.7 2.7-.8 5.4-5.4.7-.7L18 7.2l-2-2zm-6.4 9l-.6-.7 5.4-5.4.6.8-5.4 5.3zm6.1-6l-.7-.7 1-1 .7.7-1 1zM8.1 2.8h3.3v.9H8.1zm0 2.4h3.3v.9H8.1zm0 2.4h3.3v.9H8.1zM5.8 3l-2 2-1.1-1.1-.7.7 1.8 1.7 2.7-2.7zm0 4.5l-2 2-1.1-1.1-.7.7 1.8 1.7 2.7-2.7zm-3.1 5.4l-.7.7 1.8 1.7 2.7-2.7-.7-.6-2 2z"/></svg>