<svg xmlns="http://www.w3.org/2000/svg" width="18" height="18" viewBox="0 0 76 76"><path fill="#333" d="M70.1 33.3c1.1 0 2 .9 2 2V59c0 1.1-.9 2-2 2H24.7c-1.1 0-2-.9-1.8-1.8V35.6c-.3-1.3.6-2.3 1.8-2.6h45.4m.2-3.9H25c-3.5.3-6.2 2.9-6 6.4v23.7c-.2 3 2.4 5.7 5.7 5.7h45.4c3.2 0 5.9-2.2 5.9-5.5V35.3c0-3.3-2.6-5.9-5.9-5.9l.2-.3zM32.6 13l7.8 8-6-.1c-1.1 0-1.9-.9-1.9-1.9l.1-6m-3.9-9.8l-.2 15.7c0 3.3 2.6 6 5.8 6l15.7.2L28.7 3.2z"/><path fill="none" stroke="#333" stroke-width="3.964" stroke-miterlimit="10" d="M48 29.7v-3.8L28 5H7.9c-3.1 0-5.8 2.7-5.8 6v56.4c0 3.1 2.5 5.7 5.5 5.7h34.8c3.1 0 5.5-2.5 5.5-5.7V63"/><path d="M36.7 40.1l5.3 15h-4l-1-3.2h-4.9l-1 3.2h-3.7l5.1-15h4.2zm-3.8 8.8h3.2l-1-3.2c-.3-.9-.5-1.5-.6-2.6-.1 1.1-.3 1.6-.6 2.6l-1 3.2zm10.4-8.8h6.2c3.3 0 5.3.7 5.3 3.9v1.7c0 3-1.8 3.8-5.6 3.8H47V55h-3.6V40.1zm3.7 2.6V47h1.6c1.9 0 2.5-.3 2.5-1.8v-.9c0-1.2-.7-1.6-2.3-1.6H47zm9.5-2.6h6.2c3.3 0 5.3.7 5.3 3.9v1.7c0 3-1.8 3.8-5.6 3.8h-2.2V55h-3.6V40.1zm3.7 2.6V47h1.6c1.9 0 2.5-.3 2.5-1.8v-.9c0-1.2-.7-1.6-2.3-1.6h-1.8z" fill="#333"/></svg>