<svg xmlns="http://www.w3.org/2000/svg" width="18" height="18" viewBox="0 0 78 78"><path fill="#333" d="M70.6 10.7v44.2H7.4V10.7h63.2m1.2-4H6.2C4.6 6.7 3.4 8 3.4 9.5v49.4h71.3V9.5c-.1-1.5-1.3-2.8-2.9-2.8zM74 64v3.3H4V64h70m2.7-4H1.3c-.7 0-1.3.6-1.3 1.3V70c0 .7.6 1.3 1.3 1.3h75.4c.7 0 1.3-.6 1.3-1.3v-8.7c0-.7-.6-1.3-1.3-1.3z"/><path fill="#333" d="M39 17.3c3.1 0 5.7 2.5 5.7 5.7s-2.5 5.7-5.7 5.7-5.7-2.5-5.7-5.7 2.6-5.7 5.7-5.7m0-4c-5.3 0-9.7 4.3-9.7 9.7 0 5.3 4.3 9.7 9.7 9.7 5.3 0 9.7-4.3 9.7-9.7s-4.4-9.7-9.7-9.7zm6.9 25.3l8.5 3.2v12.6H23.5V41.8l8-3.1 4 3.4 1.1 1H41l1.1-1 3.8-3.5m-.9-4.5l-5.6 5H38l-5.8-5-12.7 5v19.4h38.9V39.1l-13.4-5z"/><path fill="none" stroke="#333" stroke-width="4" stroke-miterlimit="10" d="M37.4 40.4l-1.9 7.3 3.2 4 3.3-4.1-2.1-7.2z"/></svg>