<svg xmlns="http://www.w3.org/2000/svg" width="18" height="18" viewBox="0 0 38 38"><path fill="#FFF" d="M23.8 37.3h-9.5l-1.2-5.6-2.3-1.4-5.3 2-4.7-8.2 4.3-3.8v-2.7L.7 14l4.7-8.2 5.2 1.9 2.6-1.4.9-5.6h9.5l1.2 5.6 2.3 1.4 5.3-2 4.7 8.2-4.3 3.8v2.7l4.4 3.6-4.7 8.2-5.5-1.8-2.3 1.3-.9 5.6zm-7.8-2h6.1l.8-4.9 3.9-2.3 4.8 1.6 3.1-5.3-3.8-3.1v-4.5l3.7-3.3-3.1-5.3-4.6 1.8L23 7.6l-1-4.9h-6.1l-.8 4.9-4.3 2.3-4.5-1.6-3.1 5.3L7 16.7v4.5l-3.7 3.3 3.1 5.3L11 28l3.9 2.3 1.1 5z"/><path fill="#FFF" d="M19 25.6c-3.7 0-6.6-3-6.6-6.6 0-3.7 3-6.6 6.6-6.6 3.7 0 6.6 3 6.6 6.6 0 3.7-2.9 6.6-6.6 6.6zm0-11.2c-2.6 0-4.6 2.1-4.6 4.6 0 2.6 2.1 4.6 4.6 4.6 2.6 0 4.6-2.1 4.6-4.6 0-2.6-2-4.6-4.6-4.6z"/></svg>