<svg xmlns="http://www.w3.org/2000/svg" viewBox="0 0 30 30"><g fill="#333"><path d="M1.7 0v10.9H0v1.6h1.7v1.7H0v1.6h1.7v1.7H0V19h1.7v1.6H0v1.6h1.7v1.7H0v1.6h1.7V30H30l-1.6-1.6H3.3v-3.1h1.3v-1.6H3.3V22h1.3v-1.6H3.3v-1.7h1.3v-1.5H3.3v-1.7h1.3V14H3.3v-1.7h1.3v-1.6H3.3V8.6h25.2v16.6H30V0H1.7zm26.8 3.6H5.6v1.6h22.8v2H3.3V1.6h25.2v2z"/><path d="M14.3 24.3v-7.1h2.3v-5.5H15v3.9h-.7v-3.9h-1.6v3.9h-.9v-3.9h-1.5v5.5h2.4v7.1zm7.1 0v-7.1c1-.4 1.7-1.4 1.7-2.7 0-1.7-1.1-2.8-2.5-2.8s-2.5 1.3-2.5 2.8c0 1.3.7 2.3 1.7 2.7v7.1h1.6zm-1.7-9.9c0-.6.4-1.3 1-1.3s1 .6 1 1.3-.4 1.3-1 1.3-1-.5-1-1.3z"/></g></svg>