<svg xmlns="http://www.w3.org/2000/svg" viewBox="0 0 30 30"><g fill="#333"><path d="M30 17.9V7.3h-7.6V3.1h-1.6v4.3h-6.4V5.5c0-2.6-2-4.7-4.7-4.7C7.1.8 5 2.9 5 5.5v1.9H0v15.3h13.5v1.9c0 2.6 2 4.7 4.7 4.7 2.6 0 4.7-2.1 4.7-4.7v-1.9H30l-1.6-1.6H1.6V8.9h26.8v9H30zm-14.9 4.8h6.2v1.9c0 1.7-1.3 3.1-3.1 3.1-1.7 0-3.1-1.4-3.1-3.1v-1.9zM12.9 7.3H6.7V5.4c0-1.7 1.3-3.1 3.1-3.1 1.7 0 3.1 1.4 3.1 3.1v1.9z"/><path d="M4.8 11.2h2.4v1.6H4.8zm0 4.8h2.4v1.6H4.8zm6.2-4.8h2.4v1.6H11zm6.3 0h2.4v1.6h-2.4zm5.5 0h2.4v1.6h-2.4zm0 4.8h2.4v1.6h-2.4zM11 16h8.7v1.6H11z"/></g></svg>