<svg xmlns="http://www.w3.org/2000/svg" width="32" height="32" viewBox="0 0 18 18"><g fill="#676767"><path d="M3.5 5.1c1.3 0 2.3-1 2.3-2.3S4.8.5 3.5.5c-1.3 0-2.3 1-2.3 2.3s1.1 2.3 2.3 2.3zm0-3.6c.7 0 1.3.6 1.3 1.3s-.5 1.3-1.3 1.3-1.3-.6-1.3-1.3.6-1.3 1.3-1.3zm0 3.9C1.7 5.4.2 6.9.2 8.7v4.8h1.4v4.1h1v-5.1H1.2V8.7c0-1.3 1-2.3 2.3-2.3 1.3 0 2.3 1 2.3 2.3v3.8H4.3v5.1h1v-4.1h1.6V8.7c0-1.8-1.5-3.3-3.4-3.3zm14.3-1.2v-1H6.9v1H16v8.1H7.9v1h.8L7.8 16l1 .3.4-1.2h4.7l.3 1.2 1-.3-.7-2.8h3.4v-1H17v-8h.8zm-4.2 9.9H9.4l.3-.8h3.6l.3.8z"/><path d="M9.4 5.5h5.3v1H9.4zm-1.7 0h.8v1h-.8zm1.7 1.9h5.3v1H9.4zm-1.7 0h.8v1h-.8zm1.7 2h5.3v1H9.4zm-1.7 0h.8v1h-.8z"/></g></svg>