<svg xmlns="http://www.w3.org/2000/svg" width="32" height="32" viewBox="0 0 18 18"><g fill="#676767"><path d="M13.1 1.6v6.1h1V1.2l-.8-.8H6.2l-.7.8v12.2h1V1.5l.1-.1h6.3z"/><path d="M7 2.9h5.6v1H7zm0 2.2h5.6v1H7zm0 2.1h2.4v1H7zm0 2.2h1.4v1H7zm0 2.1h.7v1H7zM.1 5.6v7.8h1V6l.2-.2h3.5v-1h-4z"/><path d="M1.7 7.3h3.1v1H1.7zm0 2.2h3.1v1H1.7zm0 2.3h3.1v1H1.7zm16.2 5.1l-2.2-2.2c.5-.7.8-1.4.8-2.3 0-2.1-1.7-3.8-3.8-3.8s-3.8 1.7-3.8 3.8c0 2.1 1.7 3.8 3.8 3.8.9 0 1.7-.3 2.3-.8l2.2 2.2.7-.7zm-8-4.5c0-1.5 1.2-2.8 2.8-2.8s2.8 1.2 2.8 2.8c0 .7-.3 1.4-.8 1.9s-1.2.8-2 .8c-1.6.1-2.8-1.2-2.8-2.7z"/></g></svg>