<svg xmlns="http://www.w3.org/2000/svg" width="32" height="32" viewBox="0 0 18 18"><path fill="#666" d="M3.825 4.494L2.199 2.867l.707-.707 1.626 1.627zm9.739-.72l1.626-1.626.707.707-1.626 1.626zM15.7 7.3H18v1h-2.3zm-8.7 8h4.1v1H7zm.5 1.7h3.1v1H7.5zM0 7.3h2.3v1H0zM8.5 0h1v2.3h-1zm5.4 8.2c0-2.7-2.2-4.9-4.9-4.9S4.1 5.5 4.1 8.2c0 1.9 1.1 3.7 2.9 4.5v1.8h4.1v-1.8c1.7-.8 2.8-2.5 2.8-4.5zm-3.5 3.7l-.4.1v1.5H8V13h.9v-1h-1l-.2-.1c-1.5-.6-2.5-2-2.5-3.6 0-2.1 1.7-3.9 3.9-3.9S13 6.1 13 8.3c-.1 1.5-1.1 3-2.6 3.6z"/></svg>