<svg xmlns="http://www.w3.org/2000/svg" width="32" height="32" viewBox="0 0 18 18"><path fill="none" d="M6.9 10.7C6.1 9.9 5.5 9 5.2 8.2L1 16.6v.4s.2.1.4.1l8.1-4.5c-.8-.4-1.7-1-2.6-1.9zm4.2.9c.2-.2.2-.7 0-1.3-.3-.7-.8-1.5-1.5-2.2-1.2-1.2-2.3-1.7-3-1.7-.2 0-.4.1-.5.2-.4.4 0 1.9 1.5 3.5 1.5 1.5 3.1 1.9 3.5 1.5z"/><path fill="#666" d="M10.2 7.4C8.5 5.7 6.3 5 5.4 5.9c-.2.1-.3.4-.3.6l-5 9.7c0 .1-.3.8.2 1.4.2.3.6.4 1 .4h.4l9.6-5.4c.2-.1.4-.2.5-.3.5-.5.6-1.3.2-2.3-.3-.9-.9-1.8-1.8-2.6zm-4.1-.8c.1-.1.3-.2.5-.2.7 0 1.8.5 3 1.7.7.7 1.2 1.5 1.5 2.2.2.6.2 1.1 0 1.3-.4.4-2 0-3.5-1.5C6.1 8.5 5.7 7 6.1 6.6zM1.4 17c-.3.1-.4 0-.4 0-.1-.1 0-.3 0-.4l4.3-8.4c.2.8.8 1.7 1.6 2.5s1.7 1.4 2.6 1.7L1.4 17zm8-14.7c.2 1.4-1 2.9-1 3l.8.6c.1-.1 1.4-1.8 1.2-3.7C10.2 1.3 9.8.6 9 0l-.6.8c.6.4.9.9 1 1.5zm6.4 5.1c-1.8-.2-3.6 1.1-3.6 1.2l.6.8s1.5-1.2 2.9-1c.6.1 1.1.4 1.5 1l.8-.6c-.6-.8-1.3-1.3-2.2-1.4zm-2.5-5.9l-.9-.3-.9 3 .9.2zm3.5 4l-.3-.9-2.9.9.2.9zM5.7 3.3h1v1h-1zm8.9-.9h1v1h-1zm-.4 7.6h1v1h-1z"/></svg>