<svg xmlns="http://www.w3.org/2000/svg" width="32" height="32" viewBox="0 0 18 18"><g fill="#666"><path d="M6.6 1.4C7.4 1.1 8.2 1 9 1s1.6.1 2.4.4c3.1 1 5.4 3.8 5.6 7.1h1C17.7 3.8 13.9.1 9.2 0h-.4C4.1.1.3 3.8 0 8.5h1c.2-3.4 2.5-6.2 5.6-7.1zm9.6 11.1h-3c.2-.9.3-1.9.3-3h-1c0 1.1-.2 2.1-.4 3H5.9c-.2-.9-.3-1.9-.4-3h-1c0 1.1.1 2.1.3 3h-3c-.5-.9-.7-1.9-.8-3H0c.1 1.1.3 2.1.7 3 .1.3.3.7.5 1 1.5 2.6 4.3 4.4 7.6 4.5h.4c3.2-.1 6-1.9 7.6-4.5.2-.3.4-.7.5-1 .4-.9.6-1.9.7-3h-1c-.1 1.1-.4 2.1-.8 3zm-13.8 1h2.7c.4 1.3.9 2.4 1.5 3.1-1.7-.5-3.2-1.6-4.2-3.1zM9 17c-1 0-2.2-1.3-2.9-3.5h5.7C11.2 15.7 10 17 9 17zm2.4-.4c.6-.8 1.2-1.9 1.5-3.1h2.7c-1 1.5-2.5 2.6-4.2 3.1z"/><path d="M11.1 6.2L9 8.3 6.9 6.2l-.8-.8-.3-.4-.8.8.8.7 2 2 1 1 .2.2.2-.2 1-1 1.1-1.1.6-.6-.7-.7zM0 9.5V9v.5zm0-1zm18 0V9v-.5zm0 1V9v.5zM8.5 2h1v1h-1zm-2.617.659l.5.866-.866.5-.5-.866zM3.504 6.462l-.866-.5.5-.866.866.5zM2 8.5h1v1H2zm13 0h1v1h-1zm-1.104-2.962l.866-.5.5.866-.866.5zm-1.492-1.534l-.866-.5.5-.866.866.5z"/></g></svg>