<svg xmlns="http://www.w3.org/2000/svg" width="32" height="32" viewBox="0 0 18 18"><g fill="#676767"><path d="M18 11.4c0-.3-.1-.6-.4-.8-.8-.8-2.9-.9-3.6-.9-.6 0-2.8.1-3.6.9-.2.2-.4.5-.4.8v5c0 1.1 2.3 1.5 3.9 1.5.4 0 3.9 0 3.9-1.4v-4.9c.2 0 .2-.1.2-.2zm-4-.8c1.4 0 2.6.3 3 .6.1.1.1.1.1.2v.1c-.1.4-1.5.8-3.1.8s-3-.3-3.1-.8v-.1c0-.1 0-.1.1-.2.4-.3 1.6-.6 3-.6zm-3.1 5.9V15c.8.4 2.1.5 3.1.5.3 0 2 0 3.1-.5v1.5c-.2.2-1.3.6-3.1.6-1.9 0-3-.5-3.1-.6zm6.2-2.4c-.2.2-1.3.6-3.1.6-1.9 0-3-.5-3.1-.6v-1.5c.9.5 2.3.5 3.1.5.8 0 2.2-.1 3.1-.5v1.5z"/><path d="M4.7 10.3V6.6l3.7 1.8 4.2-2.1v2.3h.8V5.9l3.4-1.7L8.4.1 0 4.2l2.1 1.1v2.8c-.2.2-.5.6-.5.9 0 .4.3.8.7.9l-.9 2.6h2.5l-1-2.6c.4 0 .7-.4.7-.9 0-.4-.3-.8-.6-.9V5.8l.6.2h.1l.3.1v4.6c1 1.6 3.3 1.8 4.6 1.9H9v-.8h-.4c-1.1-.1-3-.3-3.9-1.5zM2.8 9c0 .2-.3.2-.3 0 0-.1.1-.1.1-.1.1 0 .2.1.2.1zm5.6-8L15 4.3l-1.9 1H13L8.4 7.5 4.1 5.3l4.9-1-.2-.8-6 1.2-.9-.4L8.4 1z"/></g></svg>