<svg xmlns="http://www.w3.org/2000/svg" width="32" height="32" viewBox="0 0 18 18"><g fill="#676767"><path d="M17.7 11.3c0-.3-.1-.6-.4-.8-.8-.8-2.9-.9-3.6-.9-.6 0-2.8.1-3.6.9-.2.2-.4.5-.4.8v5c0 1.1 2.3 1.5 3.9 1.5.4 0 3.9 0 3.9-1.4v-4.9c.2-.1.2-.1.2-.2zm-4-.9c1.4 0 2.6.3 3 .6.1.1.1.1.1.2v.1c-.1.4-1.5.8-3.1.8s-3-.3-3.1-.8v-.1c0-.1 0-.1.1-.2.4-.3 1.6-.6 3-.6zm-3.1 5.9v-1.5c.8.4 2.1.5 3.1.5.3 0 2 0 3.1-.5v1.5c-.2.2-1.3.6-3.1.6-1.9 0-3-.4-3.1-.6zm6.2-2.4c-.2.2-1.3.6-3.1.6-1.9 0-3-.5-3.1-.6v-1.5c.9.5 2.3.5 3.1.5.8 0 2.2-.1 3.1-.5v1.5z"/><path d="M7.7 12.5h.8v-1H2.3l-1-.9V2.1l.9-.9h12.1l.7.8v6.4h1V1.6L14.7.2H1.8L.3 1.7V11l1.5 1.5h4.9v1.2H5.3v1h3.3v-1h-.9z"/><path d="M13.3 3.1l-.8-.5L10.2 6 8.5 4.8 6.6 6.6 5.4 4.8 3 8.3l.9.6 1.5-2.3 1.1 1.6 2.1-2.1 1.9 1.4z"/></g></svg>