<svg xmlns="http://www.w3.org/2000/svg" width="32" height="32" viewBox="0 0 18 18"><path fill="none" d="M12.2 15.3l2.7-2.6-.8-.8-2.6 2.7zm3.4-3.3l.9-.9-.7-.8-.9.9zm-4.9 3.3l-.4 1.1 1.2-.3z"/><path fill="#666" d="M10.3 10.6H6.2l-2.4 2.1v-2.1H1.1V1H15v6.5h1.1V0H0v11.7h2.7V15l3.9-3.3h3.7zm5.5-1.8l-6 5.9L8.7 18l3.3-1 6-5.9-2.2-2.3zm.7 2.3l-.9.9-.8-.8.9-.9.8.8zm-1.6 1.6l-2.7 2.7-.8-.8 2.7-2.7.8.8zm-4.6 3.7l.4-1.1.8.8-1.2.3z"/><path fill="#666" d="M6.2 5.3h6.9v1H6.2zm0-2.2h6.9v1H6.2zm0 4.3h6.9v1H6.2zm-2.9 0h1.4v1H3.3zm0-2.1h1.4v1H3.3zm0-2.2h1.4v1H3.3z"/></svg>