<svg xmlns="http://www.w3.org/2000/svg" width="32" height="32" viewBox="0 0 18 18"><path fill="none" d="M12.6 4.7c0-2-1.6-3.6-3.6-3.6S5.4 2.7 5.4 4.7 7 8.3 9 8.3s3.6-1.6 3.6-3.6z"/><path fill="#666" d="M14 10.5c-1-.7-2.2-1.2-3.5-1.4 1.8-.6 3.1-2.4 3.1-4.4.1-2.6-2-4.7-4.6-4.7-2.5 0-4.6 2.1-4.6 4.7 0 2 1.3 3.8 3.1 4.4-4.2.7-7.4 4.4-7.4 8.8h1.1C1.2 13.6 4.7 10 9 10c1.6 0 3.1.5 4.4 1.3l.6-.8zM5.4 4.7c0-2 1.6-3.6 3.6-3.6s3.6 1.6 3.6 3.6S11 8.3 9 8.3c-1.9 0-3.6-1.6-3.6-3.6zm12.6 10h-2.2v-2.2h-1.1v2.2h-2.2v1.1h2.2V18h1.1v-2.2H18z"/></svg>