<svg xmlns="http://www.w3.org/2000/svg" width="32" height="32" viewBox="0 0 18 18"><path fill="none" d="M11.3 2.3l1.8 1.3v.3l1.4-1.1V1.4l-.6-.4h-.1l-1.5 1.1L10.8 1h-.2l-.6.4v1l.2-.1zm.8 4.3V4.1L11 3.3h-.5l-.7.5L8.2 5 5.9 3.3h-.5l-1.1.8v2.5l3.9 3.1z"/><path fill="#676767" d="M14.8 12.6l-.5-.9-2.9-1-3.2 1.1h-3l-.3 2 4.8.8.2-1L6 13v-.2h2.3l3.1-1.1 2.2.8.5.8 2.5 1.5-1.2 1.9-3.3-1.7-4.6.8-1.5-.4L2.1 12l-.8-1.7.3-.1 1.1 1.5 1.2 1.2.7-.7-1.1-1.1-.4-.6.1-.1 1.5 1.2.6-.8-1.9-1.5-.9.4-.6-.8-1.9.9 1.3 2.7 4.2 3.7 1.9.6 4.5-.8 3.9 2 2.2-3.6z"/><path fill="#676767" d="M13.1 7.1v-2l2.4-1.9V.9L14.3 0h-.8l-1.2.9-1.2-.9h-.8L9 .9v2.2l-.8.7-2-1.5H5.1L3.3 3.6v3.5l4.9 3.8 4.9-3.8zM10 1.4l.6-.4h.2l1.5 1.1L13.8 1h.2l.5.4v1.4l-1.4 1.1v-.3l-1.7-1.3h-1.1l-.3.1v-1zM4.3 4.1l1.1-.8h.5L8.2 5l1.6-1.2.8-.5h.4l1.1.8v2.6l-3.9 3-3.9-3V4.1z"/></svg>