<svg xmlns="http://www.w3.org/2000/svg" width="32" height="32" viewBox="0 0 18 18"><path fill="none" d="M9.7 2.8H8.3l-.5.7L9 4.8l1.2-1.3z"/><path fill="none" d="M11 7l1.3-1.7V3.1L10.7 1H7.2L5.5 3.1v2.2l1.4 1.8 1.4-1.6-1.8-1.9 1.3-1.8h2.4l1.2 1.8-1.8 1.9-.6.8-1.5 1.5-.6.8-4.5 4.9h2l.4 2.1 3.6-5 .6-.8 1.4-1.9zm.1 1.6l-1.4 2 3.9 5 .3-2h1.8z"/><path fill="#666" d="M11.7 7.8l1.6-2.2V2.8L11.2 0H6.8L4.5 2.8v2.9l1.7 2.2L0 14.7h3.5l.8 3.3 4.8-6.6 5.2 6.6.5-3.4H18l-6.3-6.8zM9 9.8l-.6.8-3.6 5-.4-2.1H2.3l4.5-4.9.7-.7L9 6.3l.7-.7 1.8-2-1.2-1.8H7.8L6.5 3.6l1.8 2-1.4 1.5-1.4-1.8V3.1L7.2 1h3.5l1.6 2.1v2.2L11 7l-.6.8-1.4 2zm0-5L7.8 3.5l.5-.7h1.4l.5.7L9 4.8zm4.9 8.8l-.3 1.9-3.9-5 1.4-2 4.6 5h-1.8z"/></svg>