<svg xmlns="http://www.w3.org/2000/svg" width="32" height="32" viewBox="0 0 18 18"><g fill="#676767"><path d="M12.3 10.4c0-1-.7-1.6-.7-1.6-.5-.5-1-.7-1.6-.7-1.2 0-2.1 1.1-2.1 1.1l-3.3 3.3.7.7 3.4-3.4c.1-.1.7-.6 1.3-.7.3 0 .6.1.8.4 0 0 .4.4.4.9 0 .4-.2.9-.7 1.4-1.7 1.7-6.3 6.1-6.4 6.1h1.4s3.9-3.7 5.6-5.4c.8-.7 1.2-1.4 1.2-2.1z"/><path d="M16.3.1h-9l-.9.9v3.5L.8 10.4v7.5h1v-7.1L6.4 6v3.3l1-1V1.4l.3-.3h8.2l.5.4v13.7l-.5.5H9.5l-1.1 1h8l1-1.1V1.1z"/><path d="M8 3.3h1v1H8zm1.7 0h1v1h-1zm1.7 0h1v1h-1zm1.7 0h1v1h-1zm1.7 0h1v1h-1z"/></g></svg>