<svg xmlns="http://www.w3.org/2000/svg" width="32" height="32" viewBox="0 0 18 18"><path fill="none" d="M3.9 12.8c-1.6 0-2.9 1.3-2.9 2.9V17h5.8v-1.3c0-1.6-1.3-2.9-2.9-2.9z"/><ellipse fill="none" cx="3.9" cy="9.6" rx="1.8" ry="1.8"/><path fill="none" d="M12.7 4.9V1.1s0-.1-.1-.1h-6s-.1 0-.1.1v3.8s0 .1.1.1h1.5v.7l.6-.5.4-.2h.3l3.3-.1c0 .1 0 0 0 0zM8.4 3.6H7.3V2.5h1.1v1.1zm1.8 0H9.1V2.5h1.1v1.1zm1.7 0h-1.1V2.5h1.1v1.1z"/><ellipse fill="none" cx="14.1" cy="9.6" rx="1.8" ry="1.8"/><path fill="none" d="M14.1 12.8c-1.6 0-2.9 1.3-2.9 2.9V17H17v-1.3c0-1.6-1.3-2.9-2.9-2.9z"/><path fill="#676767" d="M5.1 12c.9-.5 1.6-1.4 1.6-2.5 0-1.5-1.2-2.8-2.8-2.8S1.1 8 1.1 9.6c0 1.1.6 2 1.6 2.5C1.1 12.6 0 14 0 15.7V18h7.8v-2.3c0-1.7-1.1-3.1-2.7-3.7zm-3-2.4c0-1 .8-1.8 1.8-1.8s1.8.8 1.8 1.8-.8 1.8-1.8 1.8-1.8-.9-1.8-1.8zM6.8 17H1v-1.3c0-1.6 1.3-2.9 2.9-2.9 1.6 0 2.9 1.3 2.9 2.9V17zm8.5-5c.9-.5 1.6-1.4 1.6-2.5 0-1.5-1.2-2.8-2.8-2.8S11.3 8 11.3 9.6c0 1.1.6 2 1.6 2.5-1.5.5-2.7 2-2.7 3.7V18H18v-2.3c0-1.7-1.1-3.1-2.7-3.7zm-3-2.4c0-1 .8-1.8 1.8-1.8s1.8.8 1.8 1.8-.8 1.8-1.8 1.8-1.8-.9-1.8-1.8zM17 17h-5.8v-1.3c0-1.6 1.3-2.9 2.9-2.9 1.6 0 2.9 1.3 2.9 2.9V17z"/><path fill="#666" d="M13.7 4.9V1.1c0-.6-.5-1.1-1.1-1.1h-6C6 0 5.5.5 5.5 1.1v3.8C5.5 5.5 6 6 6.6 6h.5v1.7L9.4 6h3.2c.6 0 1.1-.5 1.1-1.1zM9.1 5l-.3.2-.6.5V5H6.6s-.1 0-.1-.1V1.1s0-.1.1-.1h6s.1 0 .1.1v3.8s0 .1-.1.1H9.1z"/><path fill="#666" d="M7.3 2.5h1.1v1.1H7.3zm1.8 0h1.1v1.1H9.1zm1.8 0H12v1.1h-1.1z"/></svg>