<svg xmlns="http://www.w3.org/2000/svg" width="32" height="32" viewBox="0 0 18 18"><path fill="none" d="M7.2 6.9l-.7-.7L2.4 2c-.3-.3-.8-.3-1.1 0-.2.2-.3.4-.3.6 0 .2.1.4.3.6l4 3.7.7.8c.3-.3.7-.6 1.2-.8zm4 6.1l2.9 2.7.3 1.1h.7l.5-.5.1-.7-1.2-.4-2.8-3c-.1.2-.3.5-.5.8z"/><circle fill="none" cx="8.5" cy="2.2" r="1"/><path fill="none" d="M15.3 2.2l-2.2 2.2V5L9.9 8.2 9.6 8c-.5-.1-.9-.2-1.3-.2C6.5 7.8 6 9.6 6 9.6l-.1.5-.5-.1c-.4-.2-.8-.2-1.1-.2-.9 0-1.7.4-2.3 1.1-1 1.3-.4 3.5 1.3 4.8 1.8 1.4 3.9 1.4 5 0 .5-.6.7-1.3.5-2l-.1-.4.4-.1s1.4-.5 1.9-1.7v-.1c.2-.7.1-1.5-.3-2.4l-.2-.3 3.2-3.1.7-.1 2.1-2.1-1.2-1.2zM4.9 16.1L2.8 14l.7-.7 2.1 2.1-.7.7zm3.6-3.9c-1 0-1.8-.8-1.8-1.8s.8-1.8 1.8-1.8 1.8.8 1.8 1.8-.8 1.8-1.8 1.8z"/><circle fill="none" cx="8.5" cy="10.4" r=".7"/><path fill="#666" d="M8.5 8.7c-1 0-1.8.8-1.8 1.8s.8 1.8 1.8 1.8 1.8-.8 1.8-1.8-.8-1.8-1.8-1.8zm0 2.5c-.4 0-.7-.3-.7-.7 0-.4.3-.7.7-.7.4 0 .7.3.7.7.1.3-.3.7-.7.7zm-3.525 4.572l-2.122-2.12.708-.708 2.12 2.121z"/><path fill="#666" d="M16.8 5.4l.7-.7-.4-.4.9-.9L15.3.8l-.8.8-.4-.6-.7.7.5.5-.2.2-.6-.4-.7.7.5.5-.8.8v.6L9.7 7c-.5-.2-.9-.2-1.3-.2L3.2 1.3C2.5.6 1.3.6.6 1.3c-.4.3-.6.8-.6 1.3s.2 1 .6 1.3l4 3.7.9.8c-.2.2-.2.3-.3.4-1.6-.3-3.1.2-4 1.4-1.4 1.8-.7 4.5 1.5 6.2 1.1.8 2.2 1.3 3.4 1.3 1.2 0 2.3-.5 3.1-1.5.6-.7.8-1.5.8-2.4.1-.1.3-.2.5-.3l2.8 2.6.5 1.5h1.9l1.1-1.1.2-1.8-1.7-.6-3-3.2c.1-.7 0-1.4-.4-2.2l2.4-2.3.7-.1.6-.5.4.4.7-.7-.4-.4.1-.1.4.4zM1.3 3.2C1.1 3 1 2.8 1 2.6c0-.2.1-.4.3-.6.3-.3.9-.3 1.2 0l4 4.1.7.8c-.5.2-.9.5-1.2.8l-.7-.8-4-3.7zm14.5 12.4l-.1.7-.5.5h-.7l-.3-1.1-3-2.7c.2-.2.5-.5.6-.8l2.8 3 1.2.4zM14.4 5.5l-.7.1-3.2 3.1.2.3c.5.9.6 1.7.3 2.4v.1c-.5 1.2-1.9 1.6-1.9 1.7l-.4.1.1.4c.1.7-.1 1.4-.5 2-1.1 1.4-3.2 1.4-5 0C1.6 14.3 1 12.2 2 10.8c.5-.7 1.3-1.1 2.3-1.1.3.1.7.1 1.1.3l.5.2.1-.6s.5-1.8 2.2-1.8c.4 0 .9.1 1.4.3l.3.1 3.3-3.1v-.6l2.2-2.2 1.2 1.2-2.2 2z"/><path fill="#666" d="M8.5 4.2c1.1 0 2-.9 2-2s-.9-2-2-2-2 .9-2 2 .9 2 2 2zm0-2.9c.5 0 1 .4 1 1 0 .5-.4 1-1 1-.5 0-1-.4-1-1 .1-.6.5-1 1-1z"/></svg>