<svg xmlns="http://www.w3.org/2000/svg" width="32" height="32" viewBox="0 0 18 18"><path d="M17.6 17.2l-2.4-2.4c.5-.7.8-1.5.8-2.4 0-2.2-1.8-4-4-4s-4 1.8-4 4 1.8 4 4 4c.9 0 1.8-.3 2.5-.9l2.3 2.4.8-.7zM9 12.4c0-1.7 1.4-3 3-3 1.7 0 3 1.4 3 3 0 .8-.3 1.5-.9 2.1-.6.6-1.3.9-2.2.9-1.5 0-2.9-1.4-2.9-3zm1.2-8.7c.4.2 1 .1 1.4-.4.3-.4.7-.8 1.3-.9.4 0 .9.2 1.3.5l-.6.7-1.6.7.4.9 1.1-.4.3 1.7 1-.2-.3-1.9.5-.8c.8 1.1 1 2.7.3 4.3l-.2.4.9.7c.1-.2.2-.5.3-.7.8-2.1.5-4.2-.7-5.6-.8-.9-1.8-1.4-2.7-1.3-.8.1-1.5.5-2 1.3 0 0-.1.1-.2.1-.3-.1-.4-1.7-.2-2.4l-1-.3c-.1.5-.4 3.1.7 3.6zm-3.4 9c-1.2-.1-2-.5-2.1-.6-.1-.3-.4-.4-.7-.5-.3-.1-.6 0-.8.2-.9.7-1 1.7-1.1 2.5l1 .1c.1-.7.1-1.3.7-1.8.4.6 1.8 1 2.9 1.1h.6l-.2-1h-.3zM2.4 11c-.2-.7.3-1.3 1.4-1.6 3.6-1.1 5.1-3.7 5-5.6 0-.2 0-.5-.1-.8-.1-.6-.2-1.4 0-2l-1-.2c-.2.8-.1 1.7 0 2.4 0 .2.1.5.1.7.1 1.6-1.2 3.7-4.3 4.6-1.7.4-2.4 1.5-2.1 2.8-.5.4-.9 1.1-1 1.9l1 .2c.1-.5.3-1 .6-1.3.3-.3.5-.7.4-1.1z" fill="#676767"/></svg>