<svg xmlns="http://www.w3.org/2000/svg" width="32" height="32" viewBox="0 0 18 18"><path fill="#666" d="M14.7 9.7h-1C13.7 7.1 11.6 5 9 5V4c3.1.1 5.7 2.6 5.7 5.7zm-11.5-6c.2 0 .4.1.5.2l.6.6.3.3.9.9c.4.4.4.7 0 1.1 0 .1-.1.2-.2.3l-.9.9c-.3.3-.2.5-.2.7.2.6.6 1.1 1.1 1.8.9 1.2 1.9 2.1 3 2.7.1.1.3.2.4.2.1.1.2.1.3.2.1.1.2.1.3.1.3 0 .5-.2.5-.2l1.2-1.2c.1-.1.3-.3.5-.3s.4.1.5.2l1.9 1.9c.4.3.4.7 0 1.1l-.4.4-.7.7c-.3.4-.7.5-1.3.5h-.2c-1-.1-1.9-.5-2.7-.8-1.9-.9-3.6-2.3-5-3.9-.9-1.2-1.6-2.5-2.1-3.9-.4-.8-.5-1.5-.4-2.1 0-.4.2-.7.5-1l1.2-1.2c.1-.2.2-.2.4-.2m0-1c-.3 0-.7.1-1.2.5L.8 4.4C.4 4.8.1 5.4.1 6c-.1.8 0 1.6.4 2.5.6 1.5 1.4 2.9 2.6 4.4 1.5 1.8 3.3 3.2 5.3 4.2.8.4 1.8.8 3 .9h.2c.8 0 1.5-.3 2-.9.2-.3.4-.5.6-.6l.1-.1.1-.1.2-.2.1-.1c.7-.7.7-1.7 0-2.5l-1.9-1.9c-.3-.3-.7-.5-1.2-.5-.4 0-.9.2-1.2.5l-1 1c-.1 0-.1-.1-.2-.1-.1-.1-.2-.1-.3-.2-1-.5-1.9-1.3-2.8-2.4-.4-.5-.6-.9-.8-1.3.2-.3.5-.5.7-.8.1 0 .1-.1.2-.2l.1-.1c.4-.4.6-.8.6-1.2s-.2-.9-.6-1.2l-.9-1-.2-.1-.1-.2c-.3-.2-.5-.4-.7-.6-.3-.4-.7-.5-1.2-.5z"/><path fill="#666" d="M18 9.7h-1c0-4.4-3.6-7.9-7.9-7.9v-1c4.9 0 8.9 4 8.9 8.9z"/></svg>