<svg xmlns="http://www.w3.org/2000/svg" width="32" height="32" viewBox="0 0 18 18"><g fill="#676767"><path d="M17.8 11.4c0-.3-.1-.6-.4-.8-.8-.8-2.9-.9-3.6-.9s-2.8.1-3.6.9c-.2.2-.4.5-.4.8v5c0 1.1 2.3 1.5 3.9 1.5.4 0 3.9 0 3.9-1.4v-4.9c.2-.1.2-.1.2-.2zm-4-.9c1.4 0 2.6.3 3 .6.1.1.1.1.1.2v.1c-.1.4-1.5.8-3.1.8s-3-.3-3.1-.8v-.1c0-.1 0-.1.1-.2.4-.3 1.6-.6 3-.6zm-3 5.9v-1.5c.8.4 2.1.5 3.1.5.3 0 2 0 3.1-.5v1.5c-.2.2-1.3.6-3.1.6-2 0-3-.4-3.1-.6zm6.1-2.4c-.2.2-1.3.6-3.1.6-1.9 0-3-.5-3.1-.6v-1.5c.9.5 2.3.5 3.1.5s2.2-.1 3.1-.5V14z"/><path d="M1.2 12.9V4.3l.9-.9h12l.8.8v4.6h1v-5l-1.4-1.4h-3.9V.9L10 .3H6l-.5.6v1.5H1.7L.2 3.9v9.4l1.5 1.5h6.9v-1H2.2l-1-.9zM6.5 1.3h3.2v1.1H6.5V1.3z"/><path d="M8.5 11V8.9h2.2v-1H8.5V5.8h-1v2.1H5.4v1h2.1V11z"/></g></svg>