<svg xmlns="http://www.w3.org/2000/svg" width="32" height="32" viewBox="0 0 18 18"><g fill="#676767"><path d="M17.2 11.4c0-.3-.1-.6-.4-.8-.8-.8-2.9-.9-3.6-.9s-2.8.1-3.6.9c-.2.2-.4.5-.4.8v5c0 1.1 2.3 1.5 3.9 1.5.4 0 3.9 0 3.9-1.4v-4.9c.1-.1.2-.1.2-.2zm-4-.9c1.4 0 2.6.3 3 .6.1.1.1.1.1.2v.1c-.1.4-1.5.8-3.1.8s-3-.3-3.1-.8v-.1c0-.1 0-.1.1-.2.4-.3 1.6-.6 3-.6zm-3.1 5.9v-1.5c.8.4 2.1.5 3.1.5.3 0 2 0 3.1-.5v1.5c-.2.3-1.3.6-3.1.6-1.9 0-3-.4-3.1-.6zm6.2-2.4c-.2.2-1.3.6-3.1.6-1.9 0-3-.5-3.1-.6v-1.5c.9.5 2.3.5 3.1.5.8 0 2.2-.1 3.1-.5V14z"/><path d="M1.8 8.9c0-3 2.4-5.4 5.4-5.4 2.6 0 4.8 1.8 5.3 4.3l.2.8h1l-.2-1c-.6-2.8-3-4.9-5.8-5.1V1.1h1.8v-1H5v1h1.8v1.3C3.5 2.7.9 5.4.9 8.8c0 3.6 2.9 6.4 6.4 6.4h.9v-1h-.9c-3 .1-5.5-2.3-5.5-5.3z"/><path d="M7.4 7.2c-.8 0-1.5.7-1.5 1.5 0 .3.1.5.2.7l-1.8 1.8.7.7 1.8-1.8c.2.1.4.1.6.1.8 0 1.5-.7 1.5-1.5s-.6-1.5-1.5-1.5zm0 2c-.3 0-.5-.2-.5-.5s.2-.5.5-.5.5.2.5.5-.2.5-.5.5z"/></g></svg>