<svg xmlns="http://www.w3.org/2000/svg" width="32" height="32" viewBox="0 0 18 18"><path fill="#676767" d="M8.7 10L3.1 5.6V1.7l2-1.5h1.3l2.3 1.7L11.1.2h1.2l2 1.4v4L8.7 10zM4.1 5.2l4.6 3.6 4.6-3.6v-3l-1.3-1h-.6l-2.7 2-2.6-2h-.6l-1.3 1v3z"/><path fill="#676767" d="M15.8 17.8l-3.9-1.9-4.5.7-1.9-.6-4.2-3.7L0 9.6l1.9-.9 1.6 2.2L4.6 12l-.7.7-1.2-1.2L1.6 10l-.2.1.8 1.7 3.9 3.4 1.4.4 4.6-.8 3.3 1.7 1.2-1.9-2.5-1.5-.5-.8-2.2-.8-3.1 1.1H6.1l-.1.2 3.9.6-.2 1-4.8-.8.3-2h3l3.2-1.1 2.9 1 .5.9 3.2 1.8z"/><path fill="#676767" d="M4.7 11.4l-1.4-1.1-.7.3-.4-.9 1.2-.6 1.9 1.5z"/></svg>