<svg xmlns="http://www.w3.org/2000/svg" width="32" height="32" viewBox="0 0 18 18"><path fill="none" d="M8.3 6L7.1 4.5 5.2 6zm-4.1.1zM16.6 3l-1.1-.6L13.7 6H15zm-6.1 3V4.9H8.7L9.6 6zm-5.1 9.5c0 .3.2.5.5.5s.5-.2.5-.5-.2-.5-.4-.5h-.2c-.2 0-.4.2-.4.5zM4.5 7l1.3 5.3h8.5l2-5.3zm9.1 8c-.2 0-.4.2-.4.5s.2.5.5.5.5-.2.5-.5-.2-.5-.4-.5h-.2z"/><path fill="#666" d="M17.7 6h-1.6L18 2.5 15.1 1l-2.6 5h-1V3.9H7.9L7.2 3 4.1 5.6 3.2 2H0v1h2.4l2.8 11c-.5.3-.9.8-.9 1.4 0 .8.7 1.5 1.5 1.5s1.5-.7 1.5-1.5c0-.2 0-.3-.1-.5h4.9c-.1.2-.1.3-.1.5 0 .8.7 1.5 1.5 1.5s1.5-.7 1.5-1.5-.5-1.4-1.3-1.5H6.3l-.2-.6H15L17.7 6zm-2.2-3.6l1.1.6L15 6h-1.4l1.9-3.6zm-5 2.5V6h-.9l-.9-1.1h1.8zM8.3 6H5.2L7 4.5 8.3 6zm-4.1.1zm2.2 9.4c0 .3-.2.5-.5.5s-.5-.2-.5-.5.2-.5.4-.5H6c.2 0 .4.2.4.5zm7.8 0c0 .3-.2.5-.5.5s-.5-.2-.5-.5.2-.5.4-.5h.2c.2 0 .4.2.4.5zm-8.4-3.2L4.5 7h11.8l-2 5.3H5.8z"/></svg>