<svg xmlns="http://www.w3.org/2000/svg" width="32" height="32" viewBox="0 0 18 18"><g fill="#666"><path d="M7.6 7.5c1.4 0 2.5-1.1 2.5-2.5S9 2.5 7.6 2.5C6.2 2.4 5.1 3.6 5.1 5s1.1 2.5 2.5 2.5zm0-4.1c.8 0 1.5.7 1.5 1.5s-.7 1.5-1.5 1.5c-.9.1-1.5-.6-1.5-1.4 0-.9.6-1.6 1.5-1.6z"/><path d="M17.9 17.2l-4.6-4.8c1.2-1.4 1.8-3.1 1.8-4.9 0-4.1-3.4-7.5-7.5-7.5S.1 3.4.1 7.6s3.4 7.5 7.5 7.5c1.9 0 3.6-.7 5-1.9l4.6 4.8.7-.8zM1.1 7.6C1.1 4 4 1.1 7.6 1.1s6.5 2.9 6.5 6.5c0 1.6-.6 3.1-1.6 4.2-.4-2.3-2.5-4.1-4.9-4.1-2.4 0-4.5 1.8-4.9 4.1-1-1.1-1.6-2.6-1.6-4.2zm2.5 5.1c0-2.2 1.8-4 4-4s4 1.8 4 4c-1.1.9-2.5 1.4-4 1.4s-2.9-.5-4-1.4z"/></g></svg>