<svg xmlns="http://www.w3.org/2000/svg" width="32" height="32" viewBox="0 0 18 18"><g fill="#666"><path d="M0 14h10v-1H3.5L1 10.5v-3L3.5 5H10V4H0v10zm1-9h1.1L1 6.1V5zm0 6.9L2.1 13H1v-1.1z"/><path d="M4.5 9c0 1.4 1.1 2.5 2.5 2.5S9.5 10.4 9.5 9 8.4 6.5 7 6.5 4.5 7.6 4.5 9zm4 0c0 .8-.7 1.5-1.5 1.5S5.5 9.8 5.5 9 6.2 7.5 7 7.5s1.5.7 1.5 1.5zm6.5 4h3v1h-3zm-4 0h3v1h-3zm4-1.5h3v1h-3zm0-1.5h3v1h-3zm-4 0h3v1h-3zm0-1.5h3v1h-3zM11 7h3v1h-3zm0-1.5h3v1h-3zM11 4h3v1h-3zm0 7.5h3v1h-3zm7-8.6h-7v-1h4.6L14.4.7l.7-.7zM0 15.1h10v1H2.4l1.2 1.2-.7.7z"/></g></svg>