<svg xmlns="http://www.w3.org/2000/svg" width="18" height="18" viewBox="0 0 32 32"><g fill="#666"><path d="M15.1 15.5c-1.7 0-3.1 1.4-3.1 3.1s1.4 3.1 3.1 3.1 3.1-1.4 3.1-3.1c0-1.7-1.3-3.1-3.1-3.1zm0 4.3c-.7 0-1.3-.6-1.3-1.3 0-.7.6-1.3 1.3-1.3.7 0 1.3.6 1.3 1.3 0 .8-.5 1.3-1.3 1.3zm-8.871 3.204l3.818 3.818-1.273 1.273-3.818-3.819z"/><path d="M29.9 9.6l1.3-1.3-.7-.7L32 6.1l-4.8-4.7-1.4 1.4-.8-.9-1.3 1.3.9.9-.4.4-.9-.9L22 4.9l.9 1-1.4 1.5.1 1.1-4.4 4.2c-.7-.2-1.5-.3-2.2-.4l-9.3-10C4.4 1.1 2.2 1.1 1 2.3c-.7.6-1 1.4-1 2.4C0 5.5.3 6.4 1 7l7 6.5L9.6 15l-.3.6c-2.8-.5-5.5.4-7.1 2.5-2.5 3.2-1.3 8 2.6 11.1 1.9 1.5 3.9 2.3 6 2.3 2.2 0 4.2-1 5.4-2.7 1-1.3 1.5-2.8 1.4-4.3.2-.1.5-.3.9-.5l5.1 4.7.9 2.7h3.4l2-1.9.3-3.3-3-1-5.3-5.8c.2-1.2-.1-2.6-.6-3.9l4.3-4.1 1.2-.1 1-1 .7.7 1.3-1.3-.7-.7.4-.4.4 1zM2.2 5.7c-.3-.4-.4-.7-.4-1.1s.1-.7.4-1.1c.6-.5 1.6-.5 2.2 0l7.1 7.4 1.3 1.4c-.9.3-1.5.7-2 1.3l-1.4-1.4-7.2-6.5zm25.9 21.9l-.1 1.2-1 1h-1.3l-.6-1.9-5.3-4.9c.4-.4.9-1 1.2-1.5l5 5.4 2.1.7zM25.6 9.7l-1.2.1-5.7 5.4.3.6c.9 1.6 1.1 3 .6 4.2v.2c-.9 2-3.3 2.9-3.3 3l-.9.2.1.7c.2 1.3-.1 2.5-1 3.6-1.9 2.5-5.7 2.6-8.9 0-3.1-2.5-4.1-6.3-2.2-8.5 1-1.3 2.3-1.9 4.1-1.9.6 0 1.3.1 1.9.3l1 .3.1-1s.9-3.2 3.9-3.2c.7 0 1.5.2 2.5.5l.5.2L23.5 9V7.9L27.3 4l2.1 2.1-3.8 3.6z"/><path d="M15.1 7.5c1.9 0 3.5-1.6 3.5-3.5S17 .5 15.1.5 11.6 2 11.6 3.9s1.6 3.6 3.5 3.6zm0-5.3c1 0 1.7.7 1.7 1.7s-.7 1.7-1.7 1.7-1.7-.7-1.7-1.7c0-.9.8-1.7 1.7-1.7z"/></g></svg>