<svg xmlns="http://www.w3.org/2000/svg" width="18" height="18" viewBox="0 0 30 30"><path fill="#DDD" d="M17.5 0h-5C4.5 0 0 6.1 0 13v4c0 9 5.3 13 12.5 13h5C26.8 30 30 22.7 30 17v-4c0-7-4.6-13-12.5-13z"/><path d="M14.3 16.2c1.3-.5 2.3-1.8 2.3-3.3 0-1.9-1.6-3.5-3.5-3.5S9.6 11 9.6 12.9c0 1.5.9 2.8 2.3 3.3-3.2.6-5.6 3.4-5.6 6.8h1c0-3.2 2.6-5.9 5.9-5.9s5.9 2.6 5.9 5.9h1c-.2-3.4-2.6-6.2-5.8-6.8zm-3.8-3.3c0-1.4 1.1-2.5 2.5-2.5s2.5 1.1 2.5 2.5-1.1 2.5-2.5 2.5-2.5-1.1-2.5-2.5zm9.3.4c.8-.6 1.4-1.7 1.4-2.8 0-1.9-1.6-3.5-3.5-3.5-.7 0-1.3.2-1.9.6l.5.8c.4-.2.9-.4 1.3-.4 1.4 0 2.5 1.1 2.5 2.5 0 1.2-.8 2.2-1.9 2.4h-.1v1c2 0 4.7 2.2 4.7 6.3h1c.1-3.8-2-6.1-4-6.9z" fill="#666"/></svg>