<svg xmlns="http://www.w3.org/2000/svg" width="18" height="18" viewBox="0 0 18 18"><g fill="#FFF"><path d="M15.8 11.3c1.3 0 2.3-1 2.3-2.3s-1-2.3-2.3-2.3h-.4c-.1-.2-.2-.5-.3-.7l.3-.3c.9-.9.9-2.3 0-3.1-.9-.9-2.3-.9-3.2 0l-.3.3c-.2-.1-.4-.2-.7-.3v-.3C11.3 1 10.3 0 9 0S6.8 1 6.8 2.3v.4c-.3 0-.5.1-.7.2l-.2-.3c-.9-.9-2.4-.9-3.2 0-.9.9-.9 2.3 0 3.1l.3.4c-.2.2-.3.4-.4.7h-.3C1 6.8 0 7.7 0 9s1 2.3 2.3 2.3h.4c.1.2.2.5.3.7l-.3.3c-.9.9-.9 2.3 0 3.2.9.9 2.3.9 3.1 0l.3-.3c.2.1.4.2.7.3v.4C6.7 17 7.7 18 9 18s2.3-1 2.3-2.3v-.4c.2-.1.5-.2.7-.3l.3.3c.9.9 2.3.9 3.2 0 .9-.9.9-2.3 0-3.2l-.3-.3c.1-.2.2-.4.3-.7h.3zm-1.5 1.9c.3.3.3.8 0 1.1-.3.3-.8.3-1 0l-1.1-1.1c-.7.5-1.5.9-2.4 1v1.5c0 .5-.3.8-.8.8s-.8-.3-.8-.8v-1.6c-.9-.1-1.7-.4-2.4-1l-1.1 1c-.3.3-.8.3-1.1 0s-.3-.8 0-1L4.7 12c-.5-.7-.9-1.5-1-2.4H2.3c-.5.2-.8-.1-.8-.6s.3-.8.8-.8h1.6c.2-.9.4-1.7 1-2.4l-1-1.1c-.3-.3-.3-.8 0-1.1s.8-.3 1.1 0l1.1 1.1c.7-.5 1.5-.9 2.4-1V2.3c0-.4.3-.8.8-.8s.8.3.8.8v1.6c.9.2 1.7.4 2.4 1l1.1-1c.3-.3.8-.3 1 0s.3.8 0 1.1l-1 1.1c.5.7.9 1.5 1 2.4h1.6c.5 0 .8.3.8.8s-.3.8-.8.8h-1.6c-.1.9-.4 1.7-1 2.4l.7.7z"/><path d="M9 6C7.4 6 6 7.4 6 9s1.4 3 3 3 3-1.4 3-3-1.4-3-3-3zm0 4.5c-.8 0-1.5-.7-1.5-1.5S8.2 7.5 9 7.5s1.5.7 1.5 1.5-.7 1.5-1.5 1.5z"/></g></svg>