<svg xmlns="http://www.w3.org/2000/svg" width="18" height="18" viewBox="0 0 24 24"><g fill="#999"><path d="M21 15c1.7 0 3-1.3 3-3s-1.3-3-3-3h-.5c-.1-.3-.2-.6-.4-.9l.4-.4c1.2-1.2 1.2-3.1 0-4.2-1.2-1.2-3.1-1.2-4.2 0l-.4.4c-.3-.1-.6-.3-.9-.4V3c0-1.7-1.3-3-3-3S9 1.3 9 3v.5c-.3.1-.6.2-.9.4l-.3-.4c-1.2-1.2-3.1-1.2-4.2 0-1.2 1.2-1.2 3.1 0 4.2l.4.4c-.3.3-.4.6-.5.9H3c-1.7 0-3 1.3-3 3s1.3 3 3 3h.5c.1.3.2.6.4.9l-.4.4c-1.2 1.2-1.2 3.1 0 4.2 1.2 1.2 3.1 1.2 4.2 0l.4-.4c.3.1.6.3.9.4v.5c0 1.7 1.3 3 3 3s3-1.3 3-3v-.5c.3-.1.6-.2.9-.4l.4.4c1.2 1.2 3.1 1.2 4.2 0 1.2-1.2 1.2-3.1 0-4.2l-.4-.4c.1-.3.3-.6.4-.9h.5zm-2 2.6c.4.4.4 1.1 0 1.5s-1 .4-1.4 0l-1.4-1.4c-.9.7-2 1.2-3.2 1.3v2c0 .6-.4 1-1 1s-1-.4-1-1v-2.1c-1.2-.2-2.3-.6-3.2-1.3L6.4 19c-.4.4-1 .4-1.4 0s-.4-1 0-1.4l1.4-1.4c-.7-.9-1.2-2-1.3-3.2H3c-.6 0-1-.4-1-1s.4-1 1-1h2.1c.2-1.2.6-2.3 1.3-3.2L5 6.4c-.4-.4-.4-1 0-1.4s1-.4 1.4 0l1.4 1.4c.9-.7 2-1.2 3.2-1.3V3c0-.6.4-1 1-1s1 .4 1 1v2.1c1.2.2 2.3.6 3.2 1.3L17.6 5c.4-.4 1-.4 1.4 0s.4 1 0 1.4l-1.4 1.4c.7.9 1.2 2 1.3 3.2H21c.6 0 1 .4 1 1s-.4 1-1 1h-2.1c-.2 1.2-.6 2.3-1.3 3.2l1.4 1.4z"/><path d="M12 8c-2.2 0-4 1.8-4 4s1.8 4 4 4 4-1.8 4-4-1.8-4-4-4zm0 6c-1.1 0-2-.9-2-2s.9-2 2-2 2 .9 2 2-.9 2-2 2z"/></g></svg>