<svg xmlns="http://www.w3.org/2000/svg" width="18" height="18" viewBox="0 0 32 32"><path fill="#666" d="M22.4 16.6c3.9 0 7.1 2.5 7.1 5.6 0 1.6-.9 3.2-2.5 4.3l-.1.1-1.1.7h-.1l-.9.2c-.8.2-1.6.3-2.4.3-3.9 0-7.1-2.5-7.1-5.6 0-3.1 3.2-5.6 7.1-5.6m0-2c-5 0-9.1 3.4-9.1 7.6 0 4.2 4.1 7.6 9.1 7.6 1 0 2-.1 2.9-.4 1.2.8 4.3 1.1 4.3 1.1-.7-.5-1.3-1.5-1.6-2.3.1 0 .1-.1.2-.1 2.1-1.4 3.4-3.5 3.4-5.9 0-4.2-4.1-7.6-9.2-7.6z"/><circle fill="#666" cx="7.3" cy="9.6" r="1.3"/><circle fill="#666" cx="14.2" cy="9.6" r="1.3"/><circle fill="#666" cx="19.8" cy="20" r="1.3"/><circle fill="#666" cx="25.1" cy="20" r="1.3"/><path fill="#666" d="M11.2 5.1c4.7 0 8.5 2.8 9.1 6.4-2.4.4-5 1.2-7 3.1-1.6 1.5-2.7 3.3-3.2 5.1-.7-.1-1.3-.2-2-.4l-.9-.2-.5.3.2-.4-1.5-.9-.1-.1h-.1c-2-1.4-3.2-3.4-3.2-5.6 0-4 4.1-7.3 9.2-7.3m0-2C5 3.1 0 7.3 0 12.4c0 2.9 1.6 5.5 4.2 7.3.1.1.2.1.2.2-.4 1-1.1 2.2-2.1 2.7 0 0 3.8-.4 5.3-1.3 1.1.3 2.3.5 3.6.5h.6c.2-1.6.9-3.7 3-5.7 2.1-2.1 5.6-2.6 7.6-2.8v-.8c0-5.2-5-9.4-11.2-9.4z"/></svg>