<svg xmlns="http://www.w3.org/2000/svg" width="18" height="18" viewBox="0 0 327 327"><path fill="#475993" d="M283 0H44.1C19.7 0 0 19.7 0 44.1V283c0 24.3 19.7 44 44.1 44h117.8l.2-116.9h-30.4c-3.9 0-7.1-3.2-7.2-7.1l-.1-37.7c0-4 3.2-7.2 7.2-7.2h30.3v-36.4c0-42.2 25.8-65.2 63.5-65.2h30.9c4 0 7.2 3.2 7.2 7.2v31.8c0 4-3.2 7.2-7.2 7.2h-19c-20.5 0-24.5 9.7-24.5 24v31.5h45c4.3 0 7.6 3.7 7.1 8l-4.5 37.7c-.4 3.6-3.5 6.3-7.1 6.3h-40.4V327H283c24.3 0 44.1-19.7 44.1-44.1V44.1C327 19.7 307.3 0 283 0zm0 0"/></svg>