<svg xmlns="http://www.w3.org/2000/svg" width="18" height="18" viewBox="0 0 18 18"><g fill="#333"><path d="M18 12.1l-3.3-.5-1.5-3.1-1.5 3.1-3.3.5 2.4 2.4-.4 3.5 2.9-1.6 2.9 1.6-.6-3.4 2.4-2.5zm-3.3 2.6l.2 1.5-1.2-.7-.5-.2-.5.2-1.2.7.2-1.5.1-.5-.3-.3-1-1.1 1.5-.2.5-.1.2-.5.6-1.3.7 1.3.2.5.5.1 1.5.2-1.1 1.1-.3.3-.1.5zM6.6 7.1c1.8 0 3.4.8 4.4 2.1l.7-.7c-.9-1.1-2.2-1.9-3.6-2.2 1.1-.5 1.9-1.7 1.9-3C9.9 1.5 8.5 0 6.6 0S3.3 1.5 3.3 3.3c0 1.3.8 2.5 1.9 3C2.2 7 0 9.6 0 12.8h.9c0-3.1 2.6-5.7 5.7-5.7zM4.3 3.3C4.3 2 5.3.9 6.7.9S9 2 9 3.3 8 5.7 6.6 5.7 4.3 4.6 4.3 3.3zM1.4 16.1h6.2v.9H1.4zm1.4-2.4h4.7v.9H2.8z"/><path d="M4.3 11.4h3.3v.9H4.3z"/></g></svg>