<svg xmlns="http://www.w3.org/2000/svg" width="18" height="18" viewBox="0 0 32 32"><path fill="#666" d="M23.8 2c3.3 0 5.9 3.2 5.9 7.1 0 2.4-.3 5.7-2.6 8.8-1.6 2.3-7.3 7.7-11.2 11.3-3.9-3.6-9.6-9-11.2-11.3-2.3-3.2-2.6-6.4-2.6-8.8C2.3 5.2 4.9 2 8.2 2c4.4 0 5.4 2 5.7 3.5.2 1 1.1 1.7 2.1 1.7s1.9-.7 2.1-1.7C18.4 4 19.4 2 23.8 2m0-2c-3.7 0-6.8 1.3-7.7 5 0 .1-.1.1-.1.1-.1 0-.1 0-.1-.1-.9-3.8-4-5-7.7-5C3.8 0 .3 4.1.3 9.1c0 3 .4 6.5 2.9 10 2.3 3.3 11.5 11.7 12.7 12.8h.2c1.2-1.1 10.4-9.5 12.7-12.8 2.5-3.5 2.9-7 2.9-10 .1-5-3.5-9.1-7.9-9.1z"/><path fill="none" stroke="#666" stroke-width="2" stroke-miterlimit="10" d="M16 5.3v5.4l-4.4 2.5 7.7 3.8-7.1 4.1 3.8 2.4v7.7"/></svg>