<svg xmlns="http://www.w3.org/2000/svg" width="18" height="18" viewBox="0 0 60 60"><path fill="#FFF" d="M53 60H7V0h30l16 16z"/><path fill="#DF5C26" d="M37 0H7v60h46V16L37 0zm13.2 16H37V2.8L50.2 16zM9 42V2h26v16h16v24H9z"/><path d="M18.7 46.5h3.1c2 0 3.6.7 3.6 2.9 0 2.1-1.6 3.1-3.5 3.1h-1v3h-2.1v-9zm3.1 4.3c1 0 1.5-.5 1.5-1.4 0-.9-.6-1.2-1.6-1.2h-.9v2.6h1zm5.1-4.3H30c2 0 3.6.7 3.6 2.9 0 2.1-1.6 3.1-3.5 3.1h-1v3H27v-9zm3.1 4.3c1 0 1.5-.5 1.5-1.4 0-.9-.6-1.2-1.6-1.2H29v2.6h1zm6.7-2.5h-2.4v-1.8h7v1.8h-2.4v7.1h-2.1v-7.1z" fill="#FFF"/></svg>