<svg xmlns="http://www.w3.org/2000/svg" viewBox="0 0 59 59"><path fill="#666" d="M48.3 37.6c-4.3 0-7.9 2.5-9.6 6.1L20.9 33.3c.3-1 .5-2 .5-3 0-1.7-.4-3.3-1.1-4.7L38.5 15c1.6 3.8 5.4 6.4 9.8 6.4 5.9 0 10.7-4.8 10.7-10.7C59 4.8 54.2 0 48.3 0S37.6 4.8 37.6 10.7c0 .3.1.6.1.9L18.4 22.8c-1.9-2-4.7-3.3-7.7-3.3C4.8 19.5 0 24.3 0 30.2 0 36.2 4.8 41 10.7 41c3.7 0 6.9-1.9 8.8-4.7L37.7 47c-.1.4-.1.9-.1 1.3 0 5.9 4.8 10.7 10.7 10.7S59 54.2 59 48.3c0-5.9-4.8-10.7-10.7-10.7zm0-34.3c4.1 0 7.4 3.3 7.4 7.4s-3.3 7.4-7.4 7.4-7.4-3.3-7.4-7.4 3.3-7.4 7.4-7.4zM10.7 37.7c-4.1 0-7.4-3.3-7.4-7.4s3.3-7.4 7.4-7.4 7.4 3.3 7.4 7.4-3.3 7.4-7.4 7.4zm37.6 18c-4.1 0-7.4-3.3-7.4-7.4s3.3-7.4 7.4-7.4 7.4 3.3 7.4 7.4-3.3 7.4-7.4 7.4z"/></svg>