<svg xmlns="http://www.w3.org/2000/svg" width="18" height="18" viewBox="0 0 60 60"><path fill="#FFF" d="M53 60H7V0h30l16 16z"/><path fill="#565757" d="M37 0H7v60h46V16L37 0zm13.2 16H37V2.8L50.2 16zm.8 42H9V2h26v16h16v40z"/><path fill="#565757" d="M7 42h46v18H7z"/><path fill="#FFF" d="M21.4 48.3H19v-1.8h7v1.8h-2.4v7.1h-2.1v-7.1zm7.3 2.6l-2.3-4.3h2.4l.7 1.6c.2.4.4.9.6 1.5.2-.6.4-1 .6-1.5l.6-1.6h2.3L31.3 51l2.5 4.5h-2.4l-.8-1.7c-.2-.5-.4-.9-.7-1.5-.2.6-.4 1-.6 1.5l-.8 1.7h-2.3l2.5-4.6zm7.7-2.6H34v-1.8h7v1.8h-2.4v7.1h-2.1v-7.1z"/></svg>