<svg xmlns="http://www.w3.org/2000/svg" viewBox="0 0 1021.4 718.3"><path fill="#FFF" d="M405.2 491.7l276-143-276-144v287z"/><path opacity=".12" fill-rule="evenodd" clip-rule="evenodd" fill="#420000" d="M405.2 204.7l242 161.6 34-17.6-276-144z"/><linearGradient id="a" gradientUnits="userSpaceOnUse" x1="510.724" y1="-.008" x2="510.724" y2="718.415"><stop offset="0" stop-color="#e52d27"/><stop offset="1" stop-color="#bf171d"/></linearGradient><path fill="url(#a)" d="M1011.2 155s-10-70.4-40.6-101.4c-38.8-40.7-82.4-40.9-102.3-43.3C725.4 0 510.9 0 510.9 0h-.4S296.1 0 153.1 10.3c-20 2.4-63.5 2.6-102.3 43.3C20.2 84.6 10.2 155 10.2 155S0 237.6 0 320.3v77.5c0 82.7 10.2 165.3 10.2 165.3s10 70.4 40.6 101.4c38.9 40.7 89.9 39.4 112.6 43.7 81.7 7.8 347.3 10.3 347.3 10.3s214.6-.3 357.6-10.7c20-2.4 63.5-2.6 102.3-43.3 30.6-31 40.6-101.4 40.6-101.4s10.2-82.7 10.2-165.3v-77.5c0-82.7-10.2-165.3-10.2-165.3zM405.3 491.7v-287l276 144-276 143z"/></svg>