<svg xmlns="http://www.w3.org/2000/svg" width="18" height="18" viewBox="0 0 65 65"><g fill="#FFF"><path d="M37.9 0H27.1C9.7 0 0 13.2 0 28.3v8.5C0 56.3 11.5 65 27.1 65h10.8C58 65 65 49.1 65 36.7v-8.5C65 13 55 0 37.9 0zM63 36.7c0 6.5-2 12.9-5.6 17.5-2.1 2.7-4.6 4.8-7.7 6.2-3.4 1.6-7.4 2.5-11.8 2.5H27.1c-7.5 0-13.8-2.2-18-6.2C4.4 52.3 2 45.5 2 36.7v-8.5C2 21 4.3 14.5 8.5 9.8 13.1 4.7 19.5 2 27.1 2h10.8c7.5 0 13.9 2.7 18.4 7.7 4.3 4.8 6.6 11.3 6.6 18.5v8.5z"/><path d="M22.2 46.4l24.2-13.9-24.2-13.9z"/></g></svg>