<svg xmlns="http://www.w3.org/2000/svg" width="18" height="18" viewBox="0 0 18 18"><path fill="#666" d="M3 4.7c.2.1.5.2.8.3H14v12H4c-.5 0-.9-.4-1-.8V4.7M2 1.9zm0 0v14.4c.1 1 1 1.7 2 1.7h11V4H4c-1.1-.2-2-1.1-2-2.1z"/><path fill="#666" d="M14 1v3H3.9c-.5 0-.9-.4-.9-.9V1.6c.1-.3.5-.6.9-.6H14m1-1H3.9C3 0 2.2.6 2 1.4v1.7C2 4.2 2.8 5 3.9 5H15V0z"/><path fill="none" stroke="#666" stroke-miterlimit="10" d="M4.2 2.5H13"/><path d="M4 7h1v4H4zm3 1h1v3H7zM5 7h2v1H5zm3 7h2v1H8zm1-2h3v1H9zm0 3h3v1H9zm-1-4h1v1H8zm-3 0h1v1H5zm1 1h1v1H6zm1 1h1v1H7zm4 0h1v1h-1zm1 1h1v1h-1zm0-11h1v1h-1z" fill="#666"/></svg>