<svg xmlns="http://www.w3.org/2000/svg" viewBox="0 0 18 18"><path d="M8.2 10.2c1.3-.5 2.3-1.8 2.3-3.3 0-2-1.6-3.6-3.6-3.6S3.3 4.9 3.3 6.9c0 1.5.9 2.8 2.3 3.3-3.1.6-5.6 3.5-5.6 6.9h1c0-3.3 2.7-6 6-6s5.9 2.7 5.9 6h1c.1-3.4-2.4-6.3-5.7-6.9zM4.4 6.9c0-1.4 1.2-2.6 2.6-2.6s2.6 1.2 2.6 2.6S8.4 9.5 7 9.5 4.4 8.3 4.4 6.9zm9.5.4c.8-.7 1.3-1.7 1.3-2.8 0-2-1.6-3.6-3.6-3.6-.7 0-1.3.2-1.9.5l.5.9c.4-.3.9-.4 1.4-.4 1.4 0 2.6 1.2 2.6 2.6 0 1.2-.8 2.2-2 2.5l.1 1c1.9 0 4.6 2 4.6 6.4h1c.1-4-2-6.3-4-7.1z" fill="#FFF"/></svg>