<svg xmlns="http://www.w3.org/2000/svg" width="18" height="18" viewBox="0 0 36 36"><path fill="none" stroke="#666" stroke-width="2" stroke-miterlimit="10" d="M12 30h12"/><path fill="#666" d="M18 2h10c0 2.1 0 4.1-.1 4.6-.1.4-1 2.2-2.9 3.8l-3.2 2.7h.1c-2.2 2-2.3 2.4-2.5 2.8-.1.4-.8 2.7.1 4.5.4.8 1.6 2 5.1 5.1.4.3.8.7.9.8l.1.1c1.1 1.2 1.8 2.4 2 3.1.2.7.3 2.7.3 4.5H8c0-1.6.1-3.6.3-4.6.1-.5.7-1.6 1.9-3l.1-.1c.2-.2.6-.5.9-.8 3.6-3.1 4.7-4.3 5.1-5.1.9-1.9.2-4.1.1-4.5-.1-.4-.3-.8-2.5-2.8h.2L11 10.4C9.1 8.8 8.3 7.1 8.2 6.7 8.1 5.9 8 3.8 8 2h10m0-2H6s0 5.3.2 7c.1 1 1.3 3.1 3.5 4.9 0 0 4.7 4.1 4.9 4.6.2.5.5 2 0 3S8.7 25 8.8 25c-1.4 1.5-2.3 3-2.5 4-.3 2.1-.3 7-.3 7h24s.1-5.2-.3-7c-.3-1-1.1-2.6-2.5-4 .1 0-5.3-4.5-5.8-5.5s-.2-2.5 0-3 4.9-4.6 4.9-4.6c2.2-1.8 3.3-4 3.5-4.9.2-1.1.2-7 .2-7H18z"/></svg>