<svg xmlns="http://www.w3.org/2000/svg" width="18" height="18" viewBox="0 0 15 15"><g fill="#666"><path d="M14.9 6.3C14.3 2.7 11.2 0 7.5 0h-.1C3.4.1.1 3.4 0 7.4c-.1 3.7 2.6 6.9 6.3 7.5h.2c.9.1 1.5-.6 1.5-1.4v-5c0-.2.3-.5.5-.5h4.9c.4 0 .9-.2 1.2-.5.3-.3.4-.8.3-1.2zm-1.1.6c-.1.1-.2.1-.3.1h-5C7.7 7 7 7.7 7 8.5v4.9c0 .3-.2.6-.4.6h-.1C3.3 13.4 1 10.6 1 7.4 1.1 4 4 1.1 7.5 1c3.2 0 5.9 2.3 6.4 5.4.1.3 0 .4-.1.5z"/><path d="M6.5 2.1c-.1 0-.3 0-.4.1-.8.2-1.3 1-1.1 1.8.2.7.8 1.1 1.4 1.1.1 0 .3 0 .4-.1.8-.2 1.3-1 1.1-1.8-.2-.6-.8-1.1-1.4-1.1zM7 3.9c-.1.2-.2.2-.4.3h-.1c-.3 0-.5-.2-.6-.4 0-.1 0-.3.1-.4l.3-.3h.1c.3 0 .5.2.5.4.2.1.1.3.1.4zm3.3-.7c-.4 0-.8.1-1.1.4-.6.6-.6 1.5 0 2.1.4.3.7.5 1.1.5.4 0 .8-.1 1.1-.4.6-.6.6-1.5 0-2.1-.3-.4-.7-.5-1.1-.5zm.4 1.9c-.1.1-.2.2-.4.2s-.3-.1-.4-.2c-.2-.2-.2-.6 0-.8.1-.1.2-.2.4-.2s.3.1.4.2c.3.2.3.6 0 .8zM3.6 8c.7 0 1.3-.4 1.4-1.1.3-.8-.2-1.6-1-1.9h-.4c-.7 0-1.3.4-1.4 1.1-.3.8.2 1.6 1 1.8.1.1.3.1.4.1zm-.5-1.6c.1-.2.3-.4.5-.4h.1c.2 0 .3.1.4.2s.1.3.1.4c-.1.3-.3.5-.6.5h-.1c-.2-.1-.3-.2-.4-.3s-.1-.3 0-.4zm1.6 2.5c-.4 0-.8.1-1.1.4-.6.6-.6 1.6 0 2.2.3.3.7.4 1.1.4.4 0 .8-.1 1.1-.4.6-.6.6-1.5 0-2.1-.4-.3-.8-.5-1.1-.5zm.4 1.9c-.2.1-.3.2-.4.2-.2 0-.3-.1-.4-.2-.3-.2-.3-.6-.1-.8.1-.1.2-.2.4-.2s.3.1.4.2c.3.2.3.6.1.8z"/></g></svg>