<svg xmlns="http://www.w3.org/2000/svg" width="18" height="18" viewBox="286 -285 589 589"><circle fill="#2DAAE1" cx="580.5" cy="9.5" r="294.5"/><path fill="#FFF" d="M769.3-107.6c-13.9 6.2-28.8 10.3-44.5 12.2 16-9.6 28.3-24.8 34.1-42.9-15 8.9-31.5 15.3-49.2 18.8-14.1-15.1-34.3-24.5-56.6-24.5-42.8 0-77.5 34.7-77.5 77.5 0 6.1.7 12 2 17.7-64.4-3.2-121.5-34.1-159.7-80.9-6.7 11.4-10.5 24.8-10.5 39 0 26.9 13.7 50.6 34.5 64.5-12.7-.4-24.6-3.9-35.1-9.7v1c0 37.5 26.7 68.8 62.1 76-6.5 1.8-13.3 2.7-20.4 2.7-5 0-9.8-.5-14.6-1.4 9.9 30.8 38.5 53.2 72.4 53.8-26.5 20.8-59.9 33.2-96.2 33.2-6.3 0-12.4-.4-18.5-1.1 34.3 22 75 34.8 118.8 34.8 142.5 0 220.4-118.1 220.4-220.4 0-3.4-.1-6.7-.2-10 15.2-11.2 28.3-24.8 38.7-40.3z"/></svg>