<svg xmlns="http://www.w3.org/2000/svg" width="18" height="18" viewBox="0 0 60 60"><path fill="#FFF" d="M53 60H7V0h30l16 16z"/><path fill="#4289C9" d="M37 0H7v60h46V16L37 0zm13.2 16H37V2.8L50.2 16zM9 42V2h26v16h16v24H9z"/><path d="M16.4 46.5h2.1v3.4h2.9v-3.4h2.1v8.9h-2.1v-3.7h-2.9v3.7h-2.1v-8.9zm8.4 0H27l.6 4.1.4 2.8c.2-.9.3-1.9.5-2.8l.9-4.1h1.8l.9 4.1c.2.9.3 1.9.5 2.8h.1c.1-1 .2-1.9.3-2.8l.6-4.1h2l-1.5 8.9h-2.7l-.8-3.9c-.1-.7-.3-1.4-.3-2.1h-.1l-.3 2.1-.8 3.9h-2.7l-1.6-8.9zm12.1 0H40c2 0 3.6.7 3.6 2.9 0 2.1-1.6 3.1-3.5 3.1h-1v3H37v-9zm3.1 4.3c1 0 1.5-.5 1.5-1.4 0-.9-.6-1.2-1.6-1.2H39v2.6h1z" fill="#FFF"/></svg>