<svg xmlns="http://www.w3.org/2000/svg" width="18" height="18" viewBox="0 0 147.6 137.6"><g fill="#42D31A"><circle cx="32.4" cy="55.9" r="5.1"/><circle cx="82.8" cy="55.7" r="5.5"/><path d="M128.5 0H19.8C8.9 0 0 8.9 0 19.8v64.5c0 11 8.9 19.8 19.8 19.8h38.4l13.1 30.7s.9 2.7 3.1 2.7 3.1-2.7 3.1-2.7l13.1-30.7h38c11 0 19.8-8.9 19.8-19.8V19.8C148.3 8.9 139.5 0 128.5 0zM46.6 57c-.1 11.8-12.3 12.1-12.3 12.1-4.7 0-7.3-3.1-7.3-3.1v2.1h-8.9V31.5c.5.1 8.9 0 8.9 0v14c2.1-3.6 8.1-3.5 8.1-3.5 13.1 1.2 11.5 15 11.5 15zm15.6-13.9v25.1h-8.7V43.4c0-3.4-4.2-4.3-4.2-4.3v-8.8c13.9.6 12.9 12.8 12.9 12.8zm20.6 26c-8 0-14.6-6-14.6-13.4s6.5-13.4 14.6-13.4c8 0 14.6 6 14.6 13.4s-6.5 13.4-14.6 13.4zm47.6 0s.1 12.7-12.8 12.7h-3.9v-8.3h2.4s5.4.5 5.4-7.9c0 0-1.1 3.4-8.7 3.4 0 0-10.8-.8-10.8-11.3v-4s.3-10.9 12.1-11.8c0 0 4.7-.5 7.6 3.4v-2.7h8.8v26.5z"/><circle cx="116.6" cy="55.7" r="5.4"/></g></svg>