<svg xmlns="http://www.w3.org/2000/svg" width="18" height="18" viewBox="0 0 60 60"><path fill="#FFF" d="M53 60H7V0h30l16 16z"/><path fill="#A0A5A9" d="M37 0H7v60h46V16L37 0zm13.2 16H37V2.8L50.2 16zM9 42V2h26v16h16v24H9z"/><path d="M19.2 46.5h5.7v1.8h-3.5V50h3v1.8h-3v1.9H25v1.8h-5.8v-9zm9.3 1.8h-2.4v-1.8h7v1.8h-2.4v7.1h-2.1v-7.1zm5.2 2.7c0-3 2-4.7 4.3-4.7 1.2 0 2.1.5 2.7 1.2l-1.1 1.4c-.4-.4-.9-.7-1.5-.7-1.2 0-2.1 1-2.1 2.8 0 1.8.8 2.8 2.1 2.8.7 0 1.3-.4 1.7-.8l1.1 1.3c-.8.9-1.8 1.3-2.9 1.3-2.4 0-4.3-1.5-4.3-4.6z" fill="#FFF"/></svg>