<svg xmlns="http://www.w3.org/2000/svg" width="18" height="18" viewBox="0 0 18 18"><path d="M4.4 10V9h3.7v3.3c-.6.5-1.2.8-1.8 1-.6.2-1.2.3-1.9.3-.9 0-1.7-.2-2.4-.6-.7-.4-1.2-.9-1.6-1.6S0 9.9 0 9c0-.9.2-1.7.5-2.4.4-.7.9-1.2 1.6-1.6.7-.4 1.4-.5 2.3-.5.6 0 1.2.1 1.7.3.5.2 1 .5 1.2.8.3.4.6.9.7 1.5l-1 .3c-.2-.5-.3-.8-.5-1.1-.2-.3-.5-.5-.9-.6s-.7-.3-1.2-.3-1 .1-1.4.2-.7.5-.9.7l-.6.9c-.2.5-.3 1.1-.3 1.8 0 .8.1 1.4.4 2 .3.5.7.9 1.2 1.2s1.1.4 1.6.4 1-.1 1.5-.3.8-.4 1.1-.6V10H4.4zm5.2-.9c0-1.5.4-2.6 1.2-3.4.8-.8 1.8-1.2 3-1.2.8 0 1.5.2 2.2.6.7.4 1.2.9 1.5 1.6.3.6.5 1.4.5 2.3 0 .9-.2 1.7-.5 2.4-.4.7-.9 1.2-1.5 1.6-.7.4-1.4.5-2.1.5-.8 0-1.6-.2-2.2-.6-.7-.4-1.1-.9-1.5-1.6-.5-.7-.6-1.4-.6-2.2zm1.2 0c0 1.1.3 1.9.9 2.5s1.3.9 2.1.9c.9 0 1.6-.3 2.2-.9.6-.6.8-1.5.8-2.6 0-.7-.1-1.3-.4-1.9-.2-.5-.6-.9-1.1-1.2-.5-.3-1-.4-1.6-.4-.8 0-1.5.3-2.1.9s-.8 1.4-.8 2.7z" fill="#666"/></svg>