<svg xmlns="http://www.w3.org/2000/svg" width="18" height="18" viewBox="0 0 15 15"><path fill="#666" d="M7.4 3c.7 0 1.3.5 1.5 1.2l.2.8H13c.6 0 1 .4 1 1v7c0 .6-.4 1-1 1H2c-.6 0-1-.4-1-1V6c0-.6.4-1 1-1h3.8l.2-.8c.1-.7.7-1.2 1.4-1.2m0-1C6.2 2 5.2 2.9 5 4H2C.9 4 0 4.9 0 6v7c0 1.1.9 2 2 2h11c1.1 0 2-.9 2-2V6c0-1.1-.9-2-2-2H9.9c-.3-1.1-1.3-2-2.5-2z"/><path fill="#666" d="M7.5 7c.4 0 .7.3.7.7 0 .2-.1.3-.2.5-.1.1-.3.2-.5.2-.4 0-.7-.3-.7-.7 0-.4.3-.7.7-.7m0-1.2c-1 0-1.8.8-1.8 1.8s.8 1.8 1.8 1.8 1.8-.8 1.8-1.8c0-.9-.8-1.8-1.8-1.8z"/><path fill="none" stroke="#666" stroke-width="1.122" stroke-miterlimit="10" d="M4.2 12.8c0-1.8 1.5-3.3 3.3-3.3 1.8 0 3.3 1.5 3.3 3.3"/></svg>