<svg xmlns="http://www.w3.org/2000/svg" width="18" height="18" viewBox="0 0 60 60"><path fill="#FFF" d="M53 60H7V0h30l16 16z"/><path fill="#1C73BA" d="M37 0H7v60h46V16L37 0zm0 2.8L50.2 16H37V2.8zM9 2h26v16h16v24H9V2z"/><path fill="#FFF" d="M17.6 46.5h2.6c2.7 0 4.5 1.3 4.5 4.4 0 3.1-1.8 4.5-4.4 4.5h-2.7v-8.9zm2.4 7.2c1.4 0 2.5-.7 2.5-2.8s-1-2.7-2.5-2.7h-.3v5.5h.3zm5.9-2.7c0-2.9 1.7-4.6 4.1-4.6s4.1 1.7 4.1 4.6c0 2.9-1.7 4.7-4.1 4.7s-4.1-1.8-4.1-4.7zm6 0c0-1.7-.7-2.7-1.9-2.7s-1.9 1-1.9 2.7c0 1.7.7 2.8 1.9 2.8s1.9-1.1 1.9-2.8zm3.4 0c0-3 2-4.7 4.3-4.7 1.2 0 2.1.5 2.7 1.2l-1.1 1.4c-.4-.4-.9-.7-1.5-.7-1.2 0-2.1 1-2.1 2.8 0 1.8.8 2.8 2.1 2.8.7 0 1.3-.4 1.7-.8l1.1 1.3c-.8.9-1.8 1.3-2.9 1.3-2.3 0-4.3-1.5-4.3-4.6z"/></svg>