<svg xmlns="http://www.w3.org/2000/svg" width="18" height="18" viewBox="0 0 15 15"><path fill="#16A765" d="M7.5 1C11.1 1 14 3.9 14 7.5S11.1 14 7.5 14 1 11.1 1 7.5 3.9 1 7.5 1m0-1C3.4 0 0 3.4 0 7.5S3.4 15 7.5 15 15 11.6 15 7.5 11.6 0 7.5 0z"/><path fill="#16A765" d="M6.9 10.1v-.4c0-.5.1-.9.2-1.3.1-.2.2-.4.5-.7.1-.2.4-.5.8-.8s.7-.7.9-.9c.1-.2.2-.5.2-.7 0-.5-.2-.9-.6-1.3-.4-.4-.8-.6-1.4-.6-.5 0-1 .2-1.3.5s-.6.8-.7 1.5l-1.2-.1c.1-.9.5-1.6 1-2.1s1.3-.7 2.2-.7c1 0 1.8.3 2.3.8.6.5.9 1.2.9 1.9 0 .4-.1.8-.3 1.2s-.6.8-1.2 1.3l-.8.8c-.2.2-.2.3-.2.6s-.1.6-.1 1.1H6.9v-.1zm-.1 2.5v-1.4h1.4v1.4H6.8z"/></svg>