<svg xmlns="http://www.w3.org/2000/svg" width="18" height="18" viewBox="0 0 15 15"><path fill="#FFF" d="M6.5 2.9c.7 0 1.3.6 1.3 1.3s-.6 1.3-1.3 1.3S5.2 5 5.2 4.2s.5-1.3 1.3-1.3m0-.8c-1.2 0-2.2 1-2.2 2.2s1 2.2 2.2 2.2 2.2-1 2.2-2.2-1-2.2-2.2-2.2zm4.3 8.8h-.9c0-1.9-1.5-3.4-3.4-3.4S3 9 3 10.9h-.8c0-2.4 1.9-4.3 4.3-4.3s4.3 1.9 4.3 4.3z"/><path fill="#FFF" d="M6.5 12.9C2.9 12.9 0 10 0 6.5 0 2.9 2.9 0 6.5 0c3.5 0 6.4 2.9 6.4 6.4 0 1.7-.6 3.3-1.8 4.5-1.2 1.3-2.9 2-4.6 2zm0-12C3.4.9.9 3.4.9 6.5c0 3.1 2.5 5.6 5.6 5.6 1.5 0 2.9-.6 4-1.7 1-1 1.6-2.4 1.6-3.9C12 3.4 9.5.9 6.5.9z"/><path fill="#FFF" d="M6.5 12.9C2.9 12.9 0 10 0 6.5 0 2.9 2.9 0 6.5 0c3.5 0 6.4 2.9 6.4 6.4 0 1.7-.6 3.3-1.8 4.5-1.2 1.3-2.9 2-4.6 2zm0-12C3.4.9.9 3.4.9 6.5c0 3.1 2.5 5.6 5.6 5.6 1.5 0 2.9-.6 4-1.7 1-1 1.6-2.4 1.6-3.9C12 3.4 9.5.9 6.5.9z"/><path fill="#FFF" d="M10.957 10.286l4.039 4.163-.646.627-4.039-4.163z"/></svg>