<svg xmlns="http://www.w3.org/2000/svg" width="18" height="18" viewBox="0 0 18 18"><path d="M12.7 1.5l2.6 1.7c.1.1.3.2.4.3.8.7 1.3 1.1 1.3 1.7 0 1.1-.9 1.9-1.9 1.9-1.4 0-1.9-2.1-1.9-2.1l-.2-.8H5l-.1.9c0 .1-.3 2-2 2-1 0-1.9-.9-1.9-1.9 0-.6.4-1 1.4-1.7.2-.1.3-.2.5-.3l2.3-1.6h7.5M13 .5H4.9L2.3 2.3C1.2 3.2 0 3.8 0 5.2c0 1.6 1.3 2.9 2.9 2.9 2.6 0 3-2.9 3-2.9h6.3s.7 2.9 2.9 2.9c1.6 0 2.9-1.3 2.9-2.9 0-1.3-1.2-2-2.1-2.8L13 .5zm-2.2 8.6v1.4l.5.3 5.7 3.1v2.5H1v-2.5l5.7-3.1.5-.3V9.1h3.6m1-1H6.2v1.8L0 13.4v4.1h18v-4.1L11.8 10V8.1z" fill="#666"/></svg>