<svg xmlns="http://www.w3.org/2000/svg" viewBox="0 0 18 18"><g fill="#666"><path d="M15.8 9.7V8.4l2.1-1.9-2.3-4-2.6 1-1.1-.7-.6-2.8H6.6l-.4 2.8-1.3.7-2.6-1L0 6.6l2.2 1.8v1.3L.1 11.6l2.3 4 2.6-1 1.1.7.6 2.7h4.7l.5-2.8 1.1-.7 2.7.9 2.3-4-2.2-1.7zm-.6 4.6l-2.3-.8-1.9 1.1-.5 2.4h-3L7 14.6l-1.9-1.1-2.3.9-1.5-2.6 1.8-1.6V8L1.3 6.3l1.5-2.6 2.2.9 2.1-1.1.4-2.5h3l.5 2.4 1.9 1.1 2.3-.9 1.5 2.6-1.8 1.6V10l1.9 1.5-1.6 2.8z"/><path d="M9 5.7C7.2 5.7 5.7 7.2 5.7 9s1.5 3.3 3.3 3.3 3.3-1.5 3.3-3.3S10.8 5.7 9 5.7zm0 5.6c-1.3 0-2.3-1-2.3-2.3s1-2.3 2.3-2.3 2.3 1 2.3 2.3-1 2.3-2.3 2.3z"/></g></svg>