<svg xmlns="http://www.w3.org/2000/svg" width="18" height="18" viewBox="0 0 428.2 427.3"><radialGradient id="a" cx="124.454" cy="426.265" r="431.683" gradientUnits="userSpaceOnUse"><stop offset="0" stop-color="#fdd955"/><stop offset=".246" stop-color="#f89832"/><stop offset=".379" stop-color="#fd361c"/><stop offset=".539" stop-color="#de234d"/><stop offset=".7" stop-color="#c01278"/><stop offset=".912" stop-color="#6e3e97"/><stop offset=".985" stop-color="#504ba0"/></radialGradient><path fill="url(#a)" d="M428.2 333.7c0 51.7-41.7 93.6-93.2 93.6H93.2C41.7 427.3 0 385.4 0 333.7V93.6C0 41.9 41.7 0 93.2 0H335c51.5 0 93.2 41.9 93.2 93.6v240.1z"/><path fill="none" stroke="#FFF" stroke-width="35.065" stroke-miterlimit="10" d="M357.9 282.6c0 43.9-35.6 79.6-79.6 79.6H149.9c-43.9 0-79.6-35.6-79.6-79.6v-137c0-43.9 35.6-79.6 79.6-79.6h128.4c43.9 0 79.6 35.6 79.6 79.6v137z"/><path fill="none" stroke="#FFF" stroke-width="42.857" stroke-miterlimit="10" d="M284.7 213.7c-.9 39-31.6 70.6-70.6 70.6s-70.6-31.6-70.6-70.6 31.6-71.7 70.6-70.6c47.5 1.4 71.4 31.7 70.6 70.6z"/><circle fill="#FFF" cx="301" cy="126.4" r="19.8"/></svg>