<svg xmlns="http://www.w3.org/2000/svg" width="18" height="18" viewBox="0 0 512 512"><path fill="#FFF" d="M0 0h512v512H0z"/><linearGradient id="a" gradientUnits="userSpaceOnUse" x1="384" y1="196.24" x2="384" y2="616.245"><stop offset="0" stop-color="#fff"/><stop offset=".816" stop-color="#c5d0d3"/></linearGradient><path fill="url(#a)" d="M256 435.2L512 275V0H256.5z"/><path fill="#A4E099" d="M0 459.2h512v4H0zm0-102h512v4H0zm0-103h512v4H0zm0-102h512v4H0zm0-103h512v4H0z"/><path fill="#F1E5C7" d="M358 258L256 435.2l-104-177z"/><path fill="#00C63B" d="M194 0h121v258H194z"/><path fill="#00DF2E" d="M152 0h43v258h-43z"/><path fill="#00A21C" d="M315 0h43v258h-43zM195 188.2h120v3H195z"/><path fill="#E3D1A6" d="M256 435.2L358 258l-43 .1-59 176.1"/><path fill="#25414E" d="M224.3 381.2h62.8l-31.1 54z"/><path opacity=".2" fill="#F1E5C7" d="M358 258l-.1.2H152z"/><path fill="#FFF" d="M195 68.2h120v120H195z"/><path fill="#00C63B" d="M221 97.2v62h24v-31l21 31h24v-62h-24v31l-22-31z"/><path fill="#00A318" d="M223 99.2h22.4l-1.4-2h-23v62h2zm45 31.9V99.2h22v-2h-24v31z"/></svg>