<svg xmlns="http://www.w3.org/2000/svg" width="18" height="18" viewBox="0 0 18 18"><path fill="#FFF" d="M9 1.2c4.3 0 7.8 3.5 7.8 7.8s-3.5 7.8-7.8 7.8S1.2 13.3 1.2 9 4.7 1.2 9 1.2M9 0C4.1 0 0 4.1 0 9s4.1 9 9 9 9-4.1 9-9-4.1-9-9-9z"/><path fill="#FFF" d="M8.3 12.1v-.5c0-.6.1-1.1.2-1.6.1-.2.2-.5.6-.8.1-.2.5-.6 1-1s.8-.8 1.1-1.1c.1-.2.2-.6.2-.8 0-.6-.2-1.1-.7-1.6-.5-.5-1-.7-1.7-.7-.6 0-1.2.2-1.6.6-.3.4-.7 1-.8 1.9l-1.4-.1c.1-1.1.6-1.9 1.2-2.5S7.9 3 9 3c1.2 0 2.2.4 2.8 1 .7.6 1.1 1.4 1.1 2.3 0 .5-.1 1-.4 1.4s-.7 1-1.4 1.6l-1 1c-.2.2-.2.4-.2.7 0 .4-.1.7-.1 1.3H8.3v-.2zm-.1 3v-1.7h1.7v1.7H8.2z"/></svg>