<svg xmlns="http://www.w3.org/2000/svg" width="18" height="18" viewBox="0 0 60 60"><path fill="#FFF" d="M53 60H7V0h30l16 16z"/><path fill="#EB4F3E" d="M37 0H7v60h46V16L37 0zm0 2.8L50.2 16H37V2.8zM9 42V2h26v16h16v24H9z"/><path d="M18.7 46.5h3.1c2 0 3.6.7 3.6 2.9 0 2.1-1.6 3.1-3.5 3.1h-1v3h-2.1v-9zm3 4.3c1 0 1.5-.5 1.5-1.4 0-.9-.6-1.2-1.6-1.2h-.9v2.6h1zm5.2-4.3h2.6c2.7 0 4.5 1.3 4.5 4.4 0 3.1-1.8 4.5-4.4 4.5h-2.7v-8.9zm2.4 7.2c1.4 0 2.5-.7 2.5-2.8 0-2.1-1-2.7-2.5-2.7H29v5.5h.3zm6.3-7.2h5.7v1.8h-3.5v2h3v1.8h-3v3.4h-2.1v-9z" fill="#FFF"/></svg>