<svg xmlns="http://www.w3.org/2000/svg" viewBox="0 0 13 13"><g fill="#666"><path d="M2.1 5.8c1.9 0 2.2-2.1 2.2-2.1h4.4s.5 2.1 2.1 2.1c1.2 0 2.1-.9 2.1-2.1 0-1-.9-1.5-1.5-2L9.4.4H3.6L1.7 1.7c-.8.6-1.7 1-1.7 2 0 1.2.9 2.1 2.1 2.1zm-.2-3c.1-.1.3-.2.4-.3l1.6-1.1h5.2l1.8 1.2c.1.1.2.1.3.2.5.4.8.7.8 1 0 .6-.5 1.1-1.1 1.1-.8 0-1.1-1.3-1.1-1.3l-.2-.8H3.5l-.2.8c0 .2-.3 1.2-1.2 1.2-.6 0-1.1-.4-1.1-1.1 0-.3.2-.4.9-.9z"/><path d="M8.5 7.2V5.8h-4v1.3L0 9.6v3h13v-3L8.5 7.2zm3.5 4.4H1v-1.4L5 8l.5-.3v-.9h2.1v.9l.4.4 4 2.2v1.3z"/></g></svg>