<svg xmlns="http://www.w3.org/2000/svg" width="18" height="18" viewBox="0 0 60 60"><path fill="#FFF" d="M53 60H7V0h30l16 16z"/><path fill="#10743B" d="M37 0H7v60h46V16L37 0zm13.2 16H37V2.8L50.2 16zM9 2h26v16h16v24H9V2z"/><path fill="#FFF" d="M21.6 50.9l-2.3-4.3h2.4l.7 1.6c.2.4.4.9.6 1.5.2-.6.4-1 .6-1.5l.6-1.6h2.3L24.3 51l2.5 4.5h-2.4l-.8-1.7c-.2-.5-.4-.9-.7-1.5-.2.6-.4 1-.6 1.5l-.8 1.7h-2.3l2.4-4.6zm6.3-4.4H30v7.1h3.5v1.8h-5.6v-8.9zm6.2 7.8l1.2-1.5c.6.5 1.5.9 2.2.9.8 0 1.2-.3 1.2-.8s-.5-.7-1.3-1l-1.1-.5c-.9-.4-1.8-1.2-1.8-2.4 0-1.5 1.3-2.7 3.2-2.7 1 0 2.1.4 2.9 1.2l-1.1 1.3c-.6-.4-1.1-.7-1.8-.7s-1.1.3-1.1.7c0 .5.6.7 1.4 1l1.1.4c1.1.4 1.8 1.2 1.8 2.4 0 1.5-1.2 2.8-3.4 2.8-1.2.2-2.5-.2-3.4-1.1z"/></svg>