<svg xmlns="http://www.w3.org/2000/svg" width="18" height="18" viewBox="0 0 50 50"><path fill="#B99AFF" d="M29.2 0h-8.3C7.5 0 0 10.2 0 21.7v6.5C0 43.3 8.8 50 20.8 50h8.3C44.6 50 50 37.8 50 28.3v-6.5C50 10 42.3 0 29.2 0z"/><path fill="#FFF" d="M35.8 22.3h3.8v1.6h-3.8zM21.6 35.4h6.8v1.7h-6.8zm.8 2.9h5.2V40h-5.2zm-12-16h3.8v1.6h-3.8zM24.3 10h1.6v3.8h-1.6zm-9.418 3.684l2.687 2.687-1.131 1.13-2.687-2.686zm20.528-.077l1.132 1.132-2.687 2.687-1.131-1.132z"/><path fill="none" d="M25 17.3c-3.6 0-6.5 2.9-6.5 6.5 0 2.7 1.7 5.1 4.2 6.1l.3.1h2v1.7h-1.7v.8h3.4v-2.4l.6-.2c2.5-.9 4.2-3.4 4.2-6.1 0-3.6-2.9-6.5-6.5-6.5z"/><path fill="#FFF" d="M33.2 23.7c0-4.5-3.7-8.2-8.2-8.2s-8.2 3.7-8.2 8.2c0 3.2 1.9 6.1 4.8 7.4v3h6.8v-3c2.9-1.3 4.8-4.2 4.8-7.4zm-5.9 6.1l-.6.2v2.4h-3.4v-.8h1.4v-1.7H23l-.3-.1c-2.5-.9-4.2-3.4-4.2-6.1 0-3.6 2.9-6.5 6.5-6.5s6.5 2.9 6.5 6.5c0 2.7-1.7 5.1-4.2 6.1z"/></svg>