<svg xmlns="http://www.w3.org/2000/svg" width="18" height="18" viewBox="0 0 50 50"><path fill="#F691B2" d="M29.2 0h-8.3C7.5 0 0 10.2 0 21.7v6.5C0 43.3 8.8 50 20.8 50h8.3C44.6 50 50 37.8 50 28.3v-6.5C50 10 42.3 0 29.2 0z"/><path d="M27.1 22.4c-2.9-2.9-6.5-4.1-8.1-2.5-.3.3-.5.6-.6 1L10.1 37c0 .1-.4 1.4.3 2.3.4.4.9.7 1.6.7.2 0 .4 0 .7-.1l16-8.9c.3-.1.6-.3.8-.5.8-.8.9-2.2.4-3.8-.5-1.5-1.5-3-2.8-4.3zm-7-1.4c.2-.2.4-.3.8-.3 1.1 0 3.1.9 5 2.8 1.2 1.2 2.1 2.5 2.5 3.7.4 1 .4 1.8 0 2.1-.7.7-3.3 0-5.8-2.5-2.5-2.6-3.1-5.2-2.5-5.8zm-7.7 17.3c-.4 0-.6 0-.7-.1-.1-.1-.1-.5-.1-.6l7.1-13.8c.5 1.3 1.5 2.8 2.8 4.1 1.4 1.4 2.9 2.4 4.2 2.9l-13.3 7.5zm13.3-24.4c.3 2.4-1.5 4.7-1.5 4.7l1.3 1c.1-.1 2.3-2.9 1.8-5.9-.2-1.5-1-2.7-2.2-3.6l-.9 1.3c.8.7 1.3 1.5 1.5 2.5zm10.7 8.5c-3-.4-6 1.8-6.1 1.9l1 1.2s2.5-1.9 4.9-1.6c1 .1 1.9.7 2.6 1.6l1.3-.9c-1.1-1.3-2.3-2-3.7-2.2zm-5.721-10.306l1.53.468-1.495 4.876-1.53-.468zm6.815 5.57l.47 1.53-4.874 1.5-.47-1.53zM33.6 26.5h1.8v1.8h-1.8zm-4.7-7.2h1.8v1.8h-1.8zm5.4-5.2h1.8v1.8h-1.8zm-14.9 1.4h1.8v1.8h-1.8z" fill="#FFF"/></svg>