<svg xmlns="http://www.w3.org/2000/svg" width="18" height="18" viewBox="0 0 30 30"><path d="M17.1 12.3C14.2 9.4 10.6 8.2 9 9.7c-.3.3-.5.6-.6 1L.1 26.9c0 .1-.4 1.4.3 2.3.4.4.9.7 1.6.7.2 0 .4 0 .7-.1l16-8.9c.3-.1.6-.3.8-.5.8-.8.9-2.2.4-3.8-.5-1.5-1.5-3-2.8-4.3zm-7-1.4c.2-.2.4-.3.8-.3 1.1 0 3.1.9 5 2.8 1.2 1.2 2.1 2.5 2.5 3.7.4 1 .4 1.8 0 2.1-.7.7-3.3 0-5.8-2.5-2.5-2.6-3.1-5.2-2.5-5.8zM2.4 28.2c-.4 0-.6 0-.7-.1-.1-.1-.1-.5-.1-.6l7.1-13.8c.5 1.3 1.5 2.8 2.8 4.1 1.4 1.4 2.9 2.4 4.2 2.9L2.4 28.2zM15.7 3.9c.3 2.4-1.5 4.7-1.5 4.7l1.3 1c.1-.1 2.3-2.9 1.8-5.9-.2-1.5-1-2.7-2.3-3.7l-.9 1.3c.9.7 1.4 1.5 1.6 2.6zm10.7 8.4c-3-.4-6 1.8-6.1 1.9l1 1.2s2.5-1.9 4.9-1.6c1 .1 1.9.7 2.6 1.6l1.3-.9c-1.1-1.3-2.3-2-3.7-2.2zM20.68 1.994l1.53.468-1.494 4.876-1.53-.468zm6.817 5.571l.471 1.53-4.875 1.5-.47-1.53zM23.6 16.5h1.8v1.8h-1.8zm-4.7-7.3h1.8V11h-1.8zM24.3 4h1.8v1.8h-1.8zM9.4 5.4h1.8v1.8H9.4z" fill="#F691B2"/></svg>