<svg xmlns="http://www.w3.org/2000/svg" width="18" height="18" viewBox="0 0 50 50"><path fill="#FFAD46" d="M29.2 0h-8.3C7.5 0 0 10.2 0 21.7v6.5C0 43.3 8.8 50 20.8 50h8.3C44.6 50 50 37.8 50 28.3v-6.5C50 10 42.3 0 29.2 0z"/><path fill="none" d="M21.8 17.5l2 2.5h-5.1zm10.9 17.4h.3c.4.1.7.4.7.8 0 .5-.4.9-.9.9s-.9-.4-.9-.9c.1-.4.4-.7.8-.8zm-8.2-16.8h2.9V20H26zm9.3 12.4H19.7l-2.3-8.8h19.7zm-1-10.5l3.1-6 1.8.9-2.6 5.1zM19.7 34.9h.3c.4.1.7.4.7.8 0 .5-.4.9-.9.9s-.8-.4-.8-.8c0-.5.3-.8.7-.9z"/><path fill="#FFF" d="M10 13.4v1.7h4l4.7 18.4c-.8.4-1.4 1.3-1.4 2.3 0 1.4 1.1 2.6 2.6 2.6s2.6-1.1 2.6-2.6c0-.3-.1-.6-.1-.8h8.1c-.1.3-.1.5-.1.8 0 1.4 1.1 2.6 2.6 2.6 1.4 0 2.6-1.1 2.6-2.6 0-1.3-.9-2.3-2.1-2.5H20.4l-.3-1H35L39.6 20H37l3-5.8-4.8-2.5-4.3 8.3h-1.7v-3.6h-6L22 15.1l-5.2 4.3-1.5-5.9H10zm22 22.4c0-.4.3-.8.7-.8h.3c.4.1.7.4.7.8 0 .5-.4.9-.9.9-.5-.1-.8-.5-.8-.9zM23.8 20h-5.1l3-2.5 2.1 2.5zm3.6 0H26l-1.5-1.8h2.9V20zm10.3-5.1L35.1 20h-2.3l3.1-6 1.8.9zM19 35.8c0-.4.3-.8.7-.8h.3c.4.1.7.4.7.8 0 .5-.4.9-.9.9s-.8-.5-.8-.9zm-1.6-14.1h19.7l-3.3 8.8H19.7l-2.3-8.8z"/></svg>