<svg xmlns="http://www.w3.org/2000/svg" width="18" height="18" viewBox="0 0 30 30"><g fill="#7ECEF4"><path d="M199.7 80.5h-6.9l-4 3.5v-3.5h-4.5v-16h23.9v10.7h1.8V62.8h-27.5v19.4h4.5l.1 5.7 6.4-5.7h6.2zm9.1-3l-9.9 9.9-1.8 5.4 5.6-1.7 9.9-9.9-3.8-3.7zm1.3 3.7l-1.5 1.5-1.3-1.3 1.5-1.5 1.3 1.3zm-2.8 2.7l-4.4 4.4-1.3-1.3 4.4-4.4 1.3 1.3zm-7.6 6.3l.6-1.8 1.3 1.3-1.9.5z"/><path d="M192.8 71.7h11.6v1.7h-11.6zm0-3.8h11.6v1.7h-11.6zm0 7.2h11.6v1.7h-11.6zm-4.7 0h2.3v1.7h-2.3zm0-3.4h2.3v1.7h-2.3zm0-3.8h2.3v1.7h-2.3z"/></g><g fill="#7ECEF4"><path d="M17.2 17.7h-6.9l-4 3.5v-3.5H1.8v-16h23.9v10.8h1.8V0H0v19.4h4.5l.1 5.7 6.4-5.7h6.2zm9.1-3l-9.9 9.9-1.9 5.4 5.6-1.7 9.9-9.9-3.7-3.7zm1.3 3.7l-1.5 1.5-1.3-1.3 1.5-1.5 1.3 1.3zm-2.8 2.7l-4.4 4.4-1.3-1.3 4.4-4.4 1.3 1.3zm-7.6 6.3l.6-1.8 1.3 1.3-1.9.5z"/><path d="M10.3 8.9h11.6v1.7H10.3zm0-3.7h11.6v1.7H10.3zm0 7.1h11.6V14H10.3zm-4.7 0h2.3V14H5.6zm0-3.4h2.3v1.7H5.6zm0-3.7h2.3v1.7H5.6z"/></g></svg>