<svg xmlns="http://www.w3.org/2000/svg" width="18" height="18" viewBox="0 0 30 30"><g fill="#7ECEF4"><path d="M199.7 80.5h-6.9l-4 3.5v-3.5h-4.5v-16h23.9v10.7h1.8V62.8h-27.5v19.4h4.5l.1 5.7 6.4-5.7h6.2zm9.1-3l-9.9 9.9-1.8 5.4 5.6-1.7 9.9-9.9-3.8-3.7zm1.3 3.7l-1.5 1.5-1.3-1.3 1.5-1.5 1.3 1.3zm-2.8 2.7l-4.4 4.4-1.3-1.3 4.4-4.4 1.3 1.3zm-7.6 6.3l.6-1.8 1.3 1.3-1.9.5z"/><path d="M192.8 71.7h11.6v1.7h-11.6zm0-3.8h11.6v1.7h-11.6zm0 7.2h11.6v1.7h-11.6zm-4.7 0h2.3v1.7h-2.3zm0-3.4h2.3v1.7h-2.3zm0-3.8h2.3v1.7h-2.3z"/></g><g fill="#FAD165"><path d="M8.6 20.1c1.5-.8 2.6-2.3 2.6-4.1 0-2.6-2.1-4.6-4.6-4.6S2 13.5 2 16c0 1.8 1 3.3 2.6 4.1-2.7.8-4.6 3.2-4.6 6.1V30h13v-3.8c0-2.9-1.8-5.3-4.4-6.1zm-5.1-4.2c0-1.6 1.3-2.9 3-2.9 1.6 0 3 1.3 3 2.9s-1.3 2.9-3 2.9c-1.6.1-3-1.2-3-2.9zm7.8 12.4H1.7v-2.1c0-2.7 2.2-4.8 4.8-4.8 2.7 0 4.8 2.2 4.8 4.8v2.1zm14.3-8.2c1.5-.8 2.6-2.3 2.6-4.1 0-2.6-2.1-4.6-4.6-4.6S19 13.5 19 16c0 1.8 1 3.3 2.6 4.1-2.6.9-4.4 3.3-4.4 6.1V30h13v-3.8c-.2-2.9-2.1-5.3-4.6-6.1zm-5.1-4.2c0-1.6 1.3-2.9 3-2.9 1.6 0 3 1.3 3 2.9s-1.3 2.9-3 2.9c-1.6.1-3-1.2-3-2.9zm7.8 12.4h-9.7v-2.1c0-2.7 2.2-4.8 4.8-4.8 2.7 0 4.8 2.2 4.8 4.8v2.1zM22.9 8.2V1.8c0-1-.8-1.8-1.8-1.8H11c-1 0-1.8.8-1.8 1.8v6.3c0 1 .8 1.8 1.8 1.8h.9v2.8l3.7-2.8H21c1.1.1 1.9-.7 1.9-1.7zm-7.8.1l-.4.3-1.1.8V8.3H11c-.1 0-.1-.1-.1-.1V1.8c0-.1.1-.1.1-.1h10c.1 0 .1.1.1.1v6.3c0 .1-.1.1-.1.1h-5.9z"/><path d="M12.2 4.2H14V6h-1.8zm2.9 0h1.8V6h-1.8zm3 0h1.8V6h-1.8z"/></g></svg>