<svg xmlns="http://www.w3.org/2000/svg" width="18" height="18" viewBox="0 0 50 50"><path fill="#FAD165" d="M29.2 0h-8.3C7.5 0 0 10.2 0 21.7v6.5C0 43.3 8.8 50 20.8 50h8.3C44.6 50 50 37.8 50 28.3v-6.5C50 10 42.3 0 29.2 0z"/><path fill="none" d="M16.5 31.4c-2.7 0-4.8 2.2-4.8 4.8v2.1h9.7v-2.1c-.1-2.7-2.2-4.8-4.9-4.8z"/><ellipse fill="none" cx="16.5" cy="25.9" rx="3" ry="2.9"/><path fill="none" d="M31.2 18.2v-6.3c0-.1-.1-.1-.1-.1H21c-.1 0-.1.1-.1.1v6.3c0 .1.1.1.1.1h2.6v1.1l1.1-.8.4-.3h6l.1-.1zM24 16h-1.8v-1.8H24V16zm2.9 0h-1.8v-1.8h1.8V16zm3 0h-1.8v-1.8h1.8V16z"/><ellipse fill="none" cx="33.5" cy="25.9" rx="3" ry="2.9"/><path fill="none" d="M33.5 31.4c-2.7 0-4.8 2.2-4.8 4.8v2.1h9.7v-2.1c-.1-2.7-2.2-4.8-4.9-4.8z"/><path fill="#FFF" d="M18.6 30.1c1.5-.8 2.6-2.3 2.6-4.1 0-2.6-2.1-4.6-4.6-4.6S12 23.5 12 26c0 1.8 1 3.3 2.6 4.1-2.6.9-4.4 3.3-4.4 6.1V40h13v-3.8c-.2-2.9-2-5.3-4.6-6.1zm-5.1-4.2c0-1.6 1.3-2.9 3-2.9 1.6 0 3 1.3 3 2.9s-1.3 2.9-3 2.9c-1.6.1-3-1.2-3-2.9zm7.8 12.4h-9.7v-2.1c0-2.7 2.2-4.8 4.8-4.8 2.7 0 4.8 2.2 4.8 4.8v2.1zm14.3-8.2c1.5-.8 2.6-2.3 2.6-4.1 0-2.6-2.1-4.6-4.6-4.6S29 23.5 29 26c0 1.8 1 3.3 2.6 4.1-2.6.9-4.4 3.3-4.4 6.1V40h13v-3.8c-.2-2.9-2.1-5.3-4.6-6.1zm-5.1-4.2c0-1.6 1.3-2.9 3-2.9 1.6 0 3 1.3 3 2.9s-1.3 2.9-3 2.9c-1.6.1-3-1.2-3-2.9zm7.8 12.4h-9.7v-2.1c0-2.7 2.2-4.8 4.8-4.8 2.7 0 4.8 2.2 4.8 4.8v2.1zm-5.4-20.1v-6.3c0-1-.8-1.8-1.8-1.8H21c-1 0-1.8.8-1.8 1.8v6.3c0 1 .8 1.8 1.8 1.8h.9v2.8l3.7-2.8H31c1.1 0 1.9-.8 1.9-1.8zm-7.8.1l-.4.3-1.1.8v-1.1H21c-.1 0-.1-.1-.1-.1v-6.3c0-.1.1-.1.1-.1h10c.1 0 .1.1.1.1v6.3c0 .1-.1.1-.1.1h-5.9z"/><path fill="#FFF" d="M22.2 14.2H24V16h-1.8zm2.9 0h1.8V16h-1.8zm3 0h1.8V16h-1.8z"/></svg>