<svg xmlns="http://www.w3.org/2000/svg" width="18" height="18" viewBox="0 0 30 30"><g fill="#CFE188"><path d="M24.7 21l-.9-1.5-4.8-1.7-5.3 1.8H8.6L8.1 23l8.1 1.3.2-1.7-6.4-1 .1-.3h3.7l5.2-1.7 3.6 1.2.8 1.4 4.2 2.4-1.9 3.2-5.6-2.8-7.7 1.3-2.3-.7L3.6 20l-1.4-2.8.4-.2 1.9 2.5 2 2.1 1.2-1.2-1.9-2-.7-.8.3-.2 2.4 1.9L8.9 18l-3.3-2.5-1.5.7-.9-1.3L0 16.4l2.1 4.4 7 6.2 3.3 1 7.4-1.3 6.5 3.3 3.7-6z"/><path d="M21.8 11.9V8.5l4-3.1v-4l-2-1.5h-1.4l-2 1.4L18.5 0h-1.4l-2 1.5v3.7l-1.4 1-3.3-2.5h-2L5.5 6.1v5.8l8.2 6.4 8.1-6.4zm-5.1-9.5l.9-.7h.4l2.5 1.8L23 1.7h.3l.9.7v2.3l-2.3 1.8V6L19 3.9h-2l-.3.1V2.4zM7.1 6.9L9 5.5h.8l3.8 2.9 2.7-1.9 1.3-.9h.8l1.8 1.3V11l-6.5 5.1L7.1 11V6.9z"/></g></svg>