<svg xmlns="http://www.w3.org/2000/svg" width="18" height="18" viewBox="0 0 30 30"><path fill="none" d="M11.8 7.5l2 2.5H8.7zm10.9 17.4h.3c.4.1.7.4.7.8 0 .5-.4.9-.9.9s-.9-.4-.9-.9c.1-.4.4-.7.8-.8zM14.5 8.1h2.9V10H16zm9.3 12.4H9.7l-2.3-8.8h19.7zm-1-10.5l3.1-6 1.8.9-2.6 5.1zM9.7 24.9h.3c.4.1.7.4.7.8 0 .5-.4.9-.9.9s-.8-.4-.8-.8c0-.5.3-.8.7-.9z"/><path fill="#FFAD46" d="M0 3.4v1.7h4l4.7 18.4c-.8.4-1.4 1.3-1.4 2.3 0 1.4 1.1 2.6 2.6 2.6s2.6-1.1 2.6-2.6c0-.3-.1-.6-.1-.8h8.1c-.1.3-.1.5-.1.8 0 1.4 1.1 2.6 2.6 2.6 1.4 0 2.6-1.1 2.6-2.6 0-1.3-.9-2.3-2.1-2.5H10.4l-.3-1H25L29.6 10H27l3-5.8-4.8-2.5-4.3 8.3h-1.7V6.4h-6L12 5.1 6.8 9.3 5.3 3.4H0zm22 22.4c0-.4.3-.8.7-.8h.3c.4.1.7.4.7.8 0 .5-.4.9-.9.9-.5-.1-.8-.5-.8-.9zM13.8 10H8.7l3-2.5 2.1 2.5zm3.6 0H16l-1.5-1.8h2.9V10zm10.3-5.1L25.1 10h-2.3l3.1-6 1.8.9zM9 25.8c0-.4.3-.8.7-.8h.3c.4.1.7.4.7.8 0 .5-.4.9-.9.9s-.8-.5-.8-.9zM7.4 11.7h19.7l-3.3 8.8H9.7l-2.3-8.8z"/></svg>