<svg xmlns="http://www.w3.org/2000/svg" width="18" height="18" viewBox="0 0 50 50"><path fill="#C2C2C2" d="M29.2 0h-8.3C7.5 0 0 10.2 0 21.7v6.5C0 43.3 8.8 50 20.8 50h8.3C44.6 50 50 37.8 50 28.3v-6.5C50 10 42.3 0 29.2 0z"/><path fill="#FFF" d="M29.5 23l2.7-3.7v-4.7L28.7 10h-7.4l-3.7 4.6v4.8l2.8 3.6-10.3 11.3 5.9-.1 1.2 5.8 8-11 8.6 11 .8-5.7h5.3L29.5 23zm-4.4 3.3l-1 1.4-6 8.3-.7-3.4H14l7.5-8.2 1.1-1.2 2.4-2.6 1.1-1.2 3-3.3-2.1-2.9h-4L20.8 16l3 3.3-2.3 2.5-2.3-3v-3.6l2.9-3.5h5.8l2.7 3.5v3.6l-2.2 3-1 1.4-2.3 3.1zm-.2-8.3l-2-2.2.9-1h2.3l.8.9-2 2.3zm8.2 14.7l-.5 3.2-6.5-8.3 2.4-3.3 7.6 8.3h-3z"/></svg>