<svg xmlns="http://www.w3.org/2000/svg" width="18" height="18" viewBox="0 0 50 50"><path fill="#CFE188" d="M29.2 0h-8.3C7.5 0 0 10.2 0 21.7v6.5C0 43.3 8.8 50 20.8 50h8.3C44.6 50 50 37.8 50 28.3v-6.5C50 10 42.3 0 29.2 0z"/><g fill="#FFF"><path d="M34.7 31l-.9-1.5-4.8-1.7-5.3 1.8h-5l-.5 3.4 8 1.3.2-1.7-6.3-1v-.3h3.7l5.2-1.7 3.7 1.2.8 1.4 4.2 2.4-2 3.2-5.6-2.8-7.6 1.3-2.4-.7-6.5-5.6-1.4-2.8.5-.2 1.8 2.5 2 2.1 1.2-1.2-1.9-2-.7-.8.3-.2 2.4 1.9 1.1-1.3-3.2-2.5-1.6.7-.9-1.3-3.2 1.5 2.2 4.4 7 6.2 3.2 1 7.4-1.3 6.5 3.3 3.7-6z"/><path d="M31.8 21.9v-3.3l4-3.1v-4l-2-1.5h-1.4l-2 1.4-1.9-1.4h-1.4l-2 1.5v3.7l-1.4 1-3.3-2.5h-1.9l-2.9 2.2v5.8l8.2 6.4 8-6.2zm-5-9.5l.9-.7h.3l2.5 1.8 2.5-1.8h.3l.9.7v2.3l-2.3 1.8V16L29 13.9h-1.9l-.3.1v-1.6zm-9.6 4.5l1.8-1.4h.8l3.8 2.9 2.7-1.9 1.3-.9h.8l1.8 1.3V21l-6.5 5.1-6.5-5.1v-4.1z"/></g></svg>