<svg xmlns="http://www.w3.org/2000/svg" width="18" height="18" viewBox="0 0 50 50"><path fill="#7ECEF4" d="M29.2 0h-8.3C7.5 0 0 10.2 0 21.7v6.5C0 43.3 8.8 50 20.8 50h8.3C44.6 50 50 37.8 50 28.3v-6.5C50 10 42.3 0 29.2 0z"/><g fill="#FFF"><path d="M27.2 28.2h-6.9l-4 3.4v-3.4h-4.5v-16h23.9v10.7h1.8V10.5H10v19.4h4.5l.1 5.6 6.4-5.6h6.2zm9.1-3l-9.9 9.9-1.8 5.4 5.6-1.7 9.9-9.9-3.8-3.7zm1.3 3.7l-1.5 1.5-1.3-1.3 1.5-1.5 1.3 1.3zm-2.8 2.7L30.4 36l-1.3-1.3 4.4-4.4 1.3 1.3zm-7.6 6.2l.6-1.8 1.3 1.3-1.9.5z"/><path d="M20.3 19.3h11.6V21H20.3zm0-3.7h11.6v1.7H20.3zm0 7.2h11.6v1.7H20.3zm-4.7 0h2.3v1.7h-2.3zm0-3.5h2.3V21h-2.3zm0-3.7h2.3v1.7h-2.3z"/></g></svg>