<svg xmlns="http://www.w3.org/2000/svg" width="18" height="18" viewBox="0 0 30 30"><g fill="#7ECEF4"><path d="M199.7 80.5h-6.9l-4 3.5v-3.5h-4.5v-16h23.9v10.7h1.8V62.8h-27.5v19.4h4.5l.1 5.7 6.4-5.7h6.2zm9.1-3l-9.9 9.9-1.8 5.4 5.6-1.7 9.9-9.9-3.8-3.7zm1.3 3.7l-1.5 1.5-1.3-1.3 1.5-1.5 1.3 1.3zm-2.8 2.7l-4.4 4.4-1.3-1.3 4.4-4.4 1.3 1.3zm-7.6 6.3l.6-1.8 1.3 1.3-1.9.5z"/><path d="M192.8 71.7h11.6v1.7h-11.6zm0-3.8h11.6v1.7h-11.6zm0 7.2h11.6v1.7h-11.6zm-4.7 0h2.3v1.7h-2.3zm0-3.4h2.3v1.7h-2.3zm0-3.8h2.3v1.7h-2.3z"/></g><g fill="#92E1C0"><path d="M14.2 14.5c-1.6 0-2.9 1.3-2.9 2.9s1.3 2.9 2.9 2.9 2.9-1.3 2.9-2.9-1.3-2.9-2.9-2.9zm0 4.1c-.7 0-1.2-.6-1.2-1.2 0-.7.6-1.2 1.2-1.2.7 0 1.2.6 1.2 1.2 0 .7-.5 1.2-1.2 1.2zm-5.909 7.782l-3.606-3.606 1.202-1.203 3.606 3.607z"/><path d="M28 9l1.2-1.2-.7-.7L30 5.7l-4.5-4.4-1.3 1.3-.8-.8L22.2 3l.8.8-.4.4-.8-.8-1.2 1.2.8.9-1.3 1.4.1 1-4.1 3.9c-.7-.2-1.4-.3-2.1-.4L5.3 2.2C4.1 1 2.1 1 .9 2.2.3 2.7 0 3.5 0 4.4c0 .8.3 1.6.9 2.2l6.6 6.1L9 14.1l-.3.6c-2.6-.5-5.2.4-6.7 2.3-2.3 3-1.2 7.5 2.4 10.4 1.8 1.4 3.7 2.2 5.6 2.2 2.1 0 3.9-.9 5.1-2.5.9-1.2 1.4-2.6 1.3-4 .2-.1.5-.3.8-.5L22 27l.8 2.5H26l1.9-1.8.3-3.1-2.8-.9-5-5.4c.2-1.1-.1-2.4-.6-3.7l4-3.8 1.1-.1.9-.9.7.7 1.2-1.2-.7-.7.4-.4.6.8zM2.1 5.3c-.3-.3-.4-.6-.4-1s.1-.7.4-1c.5-.5 1.5-.5 2 0l6.7 6.9 1.2 1.3c-.8.3-1.4.7-1.9 1.2l-1.3-1.3-6.7-6.1zm24.2 20.6l-.1 1.1-.9.9h-1.2l-.6-1.8-4.9-4.5c.4-.4.8-.9 1.1-1.4l4.7 5.1 1.9.6zM24 9.1l-1.1.1-5.3 5.1.3.6c.8 1.5 1 2.8.6 3.9v.2c-.8 1.9-3.1 2.7-3.1 2.8l-.8.2.1.7c.2 1.2-.1 2.3-.9 3.4-1.8 2.3-5.3 2.4-8.3 0-2.9-2.3-3.8-5.9-2.1-8 .9-1.2 2.2-1.8 3.8-1.8.6 0 1.2.1 1.8.3l.9.3.1-.9s.8-3 3.7-3c.7 0 1.4.2 2.3.5l.5.2L22 8.4v-1l3.6-3.7 2 2L24 9.1z"/><path d="M14.2 7c1.8 0 3.3-1.5 3.3-3.3 0-1.8-1.5-3.3-3.3-3.3s-3.3 1.5-3.3 3.3c0 1.8 1.5 3.3 3.3 3.3zm0-4.9c.9 0 1.6.7 1.6 1.6 0 .9-.7 1.6-1.6 1.6-.9 0-1.6-.7-1.6-1.6 0-.9.7-1.6 1.6-1.6z"/></g></svg>