<svg xmlns="http://www.w3.org/2000/svg" width="210" height="38" viewBox="0 0 133 24"><path d="M39.7 2.6c0 .1-1.3 4.4-1.3 4.4h-4.2l1.3-4.4h-4.8s-3.6 11.8-3.7 12h4.8c0-.1 1.5-5 1.5-5h4.2s-1.5 4.8-1.5 5h4.8c0-.1 3.6-11.8 3.7-12h-4.8zm25.1 1.3l-.2.2.4-1.5h-4.8s-3.6 11.8-3.7 12h4.8c0-.1 2.2-7.2 2.2-7.2.3-1 1.1-1.7 2-1.7h1.2c.4 0 .7.1.9.4.1.2.2.4.2.7 0 .2 0 .4-.1.7 0 0-1.9 6.3-2.2 7.2h4.8c0-.1 2.6-8.5 2.6-8.5.1-.3.2-.7.2-1.2s-.1-1.1-.5-1.5c-.5-.7-1.5-1.1-2.8-1.1-2.5 0-4.2 1-5 1.5M49.7 9.4c.4 0 1.6 0 2.4.4h.1l-.5 1.7c-.8.4-1.8.6-2.7.6-.8 0-1.4-.2-1.6-.5-.1-.1-.2-.3-.2-.5 0-.1 0-.2.1-.4.1-.8 1.1-1.3 2.4-1.3m-3.8-5.9c0 .1.7 2.4.7 2.5.4-.2 2.2-.9 3.8-.9 1.5 0 2.3.2 2.6.6.2.2.2.5.1.8l-.3 1h-.1c-2-.7-3.5-.6-3.6-.6-1.6 0-3 .4-4.1 1.1-1.1.7-1.8 1.7-2.2 3-.3 1.1-.2 2 .2 2.7.6.8 1.7 1.2 3.2 1.2 1.5 0 3-.4 4.5-1.1l.2-.1s-.2.7-.3.9h4.8c0-.1 2.5-8.3 2.5-8.3.1-.3.2-.7.2-1 0-.5-.1-1-.4-1.4-.8-1-2.5-1.6-5.1-1.6-3.2.1-6.2 1-6.7 1.2m37.5-.9l-4.6 3.6 1.1-3.6h-4.8s-3.7 12-3.7 12.2h4.8c0-.1 1.5-4.9 1.5-4.9s3.4 4.9 3.5 4.9h5.1c-.2-.3-4.4-6.2-4.4-6.2s6.8-5.6 7.2-5.9h-5.7z"/><path d="M90 11.3c-.4-.6-.4-1.5 0-2.7.5-1.5 1.5-3.4 4-3.4.9 0 1.6.2 1.9.7.4.6.4 1.5 0 2.7-.5 1.5-1.5 3.4-4 3.4-.9 0-1.5-.2-1.9-.7m-4.6-2.6c-.5 1.7-.3 3.3.6 4.5 1 1.3 2.8 2.1 5 2.1 5.3 0 8.2-2 9.6-6.6.5-1.7.3-3.3-.6-4.5-1-1.3-2.8-2.1-5-2.1-4.8 0-8.3 2.4-9.6 6.6m24.5-3.5c.9 0 1.6.2 1.9.7.4.6.4 1.5 0 2.7-.5 1.5-1.5 3.4-4 3.4-.9 0-1.6-.2-1.9-.7-.4-.6-.4-1.5 0-2.7.5-1.5 1.6-3.4 4-3.4m-8.6 3.5c-.5 1.7-.3 3.3.6 4.5 1 1.3 2.8 2.1 5 2.1 5.3 0 8.2-2 9.6-6.6.5-1.7.3-3.3-.6-4.5-1-1.3-2.8-2.1-5-2.1-4.8 0-8.3 2.4-9.6 6.6m25.9-6.2l-4.6 3.9 1.2-3.9H119s-3.7 12.1-3.8 12.4h4.8c0-.1 1.5-5 1.5-5l3.7 5h5.2c-.2-.3-4.7-6.3-4.7-6.3s6.5-5.8 6.8-6.1h-5.3z"/><path fill="#FF4D00" d="M28.5.6V0h-4c.5 4.8-2.8 10.1-7.5 11.4 0 0-.1 0-.1-.1v-.1c3.9-2.6 6-6.8 5.6-11.2h-4c.2 3.9-2.4 7.4-6.4 8.9 0 0-.1 0-.1-.1v-.1c2.9-2 4.6-4.9 4.5-8.7h-4c0 4.6-4.2 7.8-12.2 7.8.2.1.3.1.4.2 5.3 2.9 8 4.6 11.9 7.8.6.5 1.4.8 2.3.8 10.4-.8 14.1-10 13.6-16"/><path fill="gray" d="M48.1 21.4c-.2-.2-.2-.5-.1-.9.3-1 1.1-1.5 2.2-1.5.8 0 1.4.2 1.7.5-.1.2-.5 1.7-.6 1.8-.7.4-1.3.5-2 .5-.5 0-1-.1-1.2-.4m4.6-4.4s-.4 1.3-.5 1.6c-.5-.3-1.1-.4-1.9-.4-1.8 0-3.2.9-3.6 2.2-.2.6-.1 1.1.2 1.5.4.5 1.1.7 2.1.7.8 0 1.5-.1 2.2-.4 0 .1-.1.4-.1.4h1.4l1.8-5.9-1.6.3zm3.2 1.5l.1-.3h-1.4l-1.3 4.3h1.4l.8-2.4c.2-.7.9-1.1 1.9-1.1.5 0 .8.1 1 .1h.1l.7-.9-.2-.1c-.3-.1-.7-.1-1.2-.1-.7.2-1.4.3-1.9.5m3.5-.3L58 22.5h1.4l1.3-4.3h-1.3zm0-1c0 .1 0 .2.1.3.1.2.4.3.8.3s.9-.2 1-.5c0-.1 0-.2-.1-.3-.1-.2-.4-.3-.7-.3-.5 0-1 .2-1.1.5m7 1s-2.9 3.1-2.9 3.2c-.2-.5-1-3.2-1-3.2H61l1.6 4.3h1.1l4.2-4.3h-1.5zm1.7 0l-1.3 4.3h1.4l1.3-4.3h-1.4zm.1-1c0 .1 0 .2.1.3.1.2.4.3.8.3s.9-.2 1-.5c0-.1 0-.2-.1-.4s-.4-.3-.7-.3c-.6.1-1 .3-1.1.6m3.6 1.4l.1-.3h-1.4l-1.3 4.3h1.4l.7-2.4c.2-.7 1-1.1 2.1-1.1.6 0 1 .1 1.2.3.1.2.1.4 0 .7l-.8 2.5h1.4l.8-2.5c.1-.5.1-.9-.1-1.2-.3-.4-1.1-.7-2.2-.7-.7 0-1.3.1-1.9.4m6 2.8c-.2-.2-.2-.5-.1-.9.3-1 1.1-1.5 2.2-1.5.8 0 1.4.2 1.7.5-.1.2-.5 1.7-.6 1.8-.7.4-1.3.5-2 .5-.6 0-1-.1-1.2-.4m-1.4-1c-.1.3-.1.5-.1.8 0 .3.1.5.3.7.4.5 1.1.7 2.1.7.8 0 1.5-.1 2.2-.4-.3.7-.9 1-3.3 1.1h-.2l.4.8h.1c1.4 0 2.4-.2 3.2-.5.7-.3 1.1-.8 1.3-1.4l1.2-3.8H82s-.1.2-.1.4c-.5-.3-1.1-.4-1.9-.4-1.8-.2-3.2.6-3.6 2M89.5 19c.7 0 1.1.1 1.3.4.1.1.1.2.2.4v.2h-3.6c.4-.7 1.1-1 2.1-1m-3.7 1.3c-.1.2-.1.5-.1.7 0 .3.1.5.3.8.6.8 1.9.9 2.4.9 1.1 0 1.9-.2 2.9-.5l.2-.1-.6-.7h-.1c-.8.3-1.3.4-2.1.4-.6 0-1.1-.1-1.3-.4-.1-.1-.2-.3-.2-.5v-.2h5v-.1c.1-.1.1-.2.2-.3.1-.2.1-.4.1-.6 0-.3-.1-.5-.3-.7-.4-.5-1.2-.8-2.4-.8-2 0-3.6.8-4 2.1m12.6-1.5c-.3-.3-.8-.6-1.9-.6-.7 0-1.3.1-1.8.4l.1-.3h-1.4l-1.3 4.3h1.4l.7-2.4c.2-.8.9-1.1 1.9-1.1.6 0 .9.1 1.1.3.1.2.1.4 0 .7l-.8 2.5h1.4l.7-2.4c.2-.8.9-1.1 1.9-1.1.6 0 .9.1 1.1.3.1.2.1.4 0 .7l-.8 2.5h1.4l.9-2.6c.2-.5.1-.9-.1-1.2-.3-.4-1-.6-2-.6-1.3 0-2 .3-2.5.6m6.4 2.5c-.2-.2-.2-.5-.1-.9.3-.9 1.2-1.5 2.5-1.5.7 0 1.2.2 1.5.5.2.2.2.5.1.9-.3.9-1.2 1.5-2.5 1.5-.7 0-1.3-.2-1.5-.5m0-2.6c-.8.4-1.3 1-1.5 1.6-.2.5-.1 1 .2 1.4.4.6 1.3.9 2.6.9.9 0 1.9-.2 2.6-.6.8-.4 1.3-1 1.5-1.6.2-.5.1-1-.2-1.4-.4-.6-1.3-.9-2.6-.9-1 .1-1.8.2-2.6.6M112 17s-.3 1-.4 1.2h-.9l-.2.8h.9c-.1.4-.8 2.5-.8 2.5 0 .1-.1.3-.1.4 0 .1 0 .3.1.4.2.3.6.4 1.2.4s1 0 1.5-.1h.1l.4-.9-.3.1c-.3.1-.6.1-1.1.1-.4 0-.5-.1-.5-.1v-.2s.6-2 .8-2.5h1.9l.2-.8H113c.1-.3.5-1.6.5-1.6l-1.5.3zm3.6 1.2l-1.3 4.3h1.4l1.3-4.3h-1.4zm0-1c0 .1 0 .2.1.3.1.2.4.3.8.3s.9-.2 1-.5c0-.1 0-.2-.1-.3-.1-.2-.4-.3-.7-.3-.5 0-1 .2-1.1.5m5.2 1.8c.7 0 1.2.2 1.5.5.2.2.2.5.1.9-.3.9-1.2 1.5-2.5 1.5-.7 0-1.2-.2-1.4-.5-.1-.1-.1-.3-.1-.4 0-.1 0-.3.1-.5.1-1 1-1.5 2.3-1.5m-2.4-.3c-.8.4-1.3 1-1.5 1.6-.2.5-.1 1 .2 1.4.4.6 1.3.9 2.6.9.9 0 1.9-.2 2.6-.6.8-.4 1.3-1 1.5-1.6.2-.5.1-1-.2-1.4-.4-.6-1.3-.9-2.6-.9-1 .1-1.9.2-2.6.6m7.8-.1l.1-.3h-1.4l-1.3 4.3h1.4l.7-2.4c.3-1 1.6-1.1 2.1-1.1.6 0 1 .1 1.2.3.1.2.1.4 0 .7l-.8 2.5h1.4l.8-2.5c.1-.5.1-.9-.1-1.2-.3-.4-1.1-.7-2.2-.7-.7 0-1.4.1-1.9.4"/></svg>