<svg xmlns="http://www.w3.org/2000/svg" width="210" height="38" viewBox="0 0 236.6 42.9"><path fill="#777" d="M70.4 4.7c-.1.2-2.4 7.8-2.4 7.8h-7.5L63 4.7h-8.5s-6.4 21.1-6.6 21.5h8.5c.1-.2 2.8-9 2.8-9h7.5s-2.6 8.6-2.8 9h8.5c.1-.2 6.4-21.1 6.6-21.5h-8.6zm44.9 2.4l-.4.3.8-2.6h-8.5s-6.4 21.1-6.6 21.5h8.5c.1-.2 4-13 4-13 .6-1.8 2-3 3.5-3h2.2c.7 0 1.2.2 1.6.7.2.3.4.8.4 1.3 0 .4-.1.7-.2 1.2 0 0-3.4 11.2-3.9 12.9h8.5c.1-.2 4.6-15.1 4.6-15.1.1-.4.3-1.2.3-2.1 0-.9-.2-1.9-.8-2.8-.9-1.3-2.6-1.9-5-1.9-4.6-.2-7.6 1.5-9 2.6m-33.8-.8c.1.3 1.2 4.2 1.3 4.6.8-.3 4-1.6 6.7-1.6 2.6 0 4.1.4 4.7 1.1.3.4.3.9.1 1.5l-.5 1.7-.2-.1c-3.6-1.2-6.3-1.1-6.3-1.1-2.8 0-5.4.7-7.4 2.1-1.9 1.3-3.3 3.1-4 5.3-.6 1.9-.4 3.6.4 4.7 1 1.4 3 2.1 5.8 2.1 2.6 0 5.5-.7 8-1.9l.3-.2s-.4 1.3-.5 1.6h8.5c.1-.2 4.5-14.8 4.5-14.8.2-.6.3-1.2.3-1.8 0-.9-.3-1.8-.8-2.5-1.4-1.9-4.5-2.8-9.1-2.8-5.5.1-10.9 1.8-11.8 2.1m6.8 10.5c.6 0 2.9.1 4.2.7l.1.1-1 3.1h-.1c-1.4.6-3.3 1.1-4.8 1.1-1.4 0-2.4-.3-2.9-1-.2-.3-.3-.6-.3-.9 0-.2 0-.4.1-.6.6-1.6 2.3-2.5 4.7-2.5m60.2-12.2c-.1.1-8.2 6.4-8.2 6.4l2-6.4h-8.5s-6.5 21.4-6.7 21.8h8.5c.1-.2 2.7-8.9 2.7-8.9s6.1 8.7 6.2 8.9h9.1c-.3-.5-7.8-11.2-7.8-11.2S158 5.1 158.7 4.6h-10.2z"/><path fill="#777" d="M152.1 15.5c-.9 3-.6 5.9 1 8 1.8 2.4 4.9 3.7 9 3.7 9.4 0 14.7-3.6 17.2-11.8.9-3 .6-5.9-1-8-1.8-2.4-5-3.7-9-3.7-8.7 0-14.9 4.3-17.2 11.8m8.3 4.8c-.7-1-.8-2.6-.1-4.9.8-2.8 2.8-6 7.1-6 1.7 0 2.8.4 3.4 1.3.7 1 .8 2.6.1 4.9-.8 2.8-2.8 6-7.1 6-1.6-.1-2.8-.5-3.4-1.3m20.1-4.8c-.9 3-.6 5.9 1 8 1.8 2.4 4.9 3.7 9 3.7 9.4 0 14.7-3.6 17.2-11.8.9-3 .6-5.9-1-8-1.8-2.4-5-3.7-9-3.7-8.6 0-14.9 4.3-17.2 11.8m15.4-6.1c1.7 0 2.8.4 3.4 1.3.7 1 .8 2.6.1 4.9-.8 2.8-2.8 6-7.1 6-1.7 0-2.8-.4-3.4-1.3-.7-1-.8-2.6-.1-4.9.8-2.8 2.7-6 7.1-6m31-5c-.1.1-8.3 7-8.3 7l2.1-7h-8.5s-6.7 21.7-6.8 22.1h8.5c.1-.2 2.7-9 2.7-9s6.6 8.9 6.7 9h9.3c-.4-.5-8.4-11.3-8.4-11.3S235.9 5 236.6 4.4h-9.7zM50.4 1l-.1-1h-7.2c.8 8.5-5.1 18-13.4 20.3 0 0-.2 0-.2-.1v-.1c7-4.7 10.7-12.2 10-20.1h-7.1c.3 7-4.4 13.3-11.5 15.9 0 0-.1 0-.2-.1 0 0 0-.1.1-.1C26 12.1 29.1 6.9 29 0h-7.1C21.8 8.2 14.4 13.9 0 13.9l.6.3c9.4 5.1 14.3 8.3 21.2 13.9 1.1.9 2.6 1.4 4 1.4C44.6 28.3 51.3 11.9 50.4 1m43.2 29.5s-.7 2.2-.9 2.8c-.9-.5-1.9-.8-3.3-.8-3.2 0-5.7 1.6-6.5 4-.3 1.1-.2 2 .3 2.7.6.9 1.9 1.3 3.7 1.3 1.4 0 2.6-.3 3.9-.8 0 .1-.2.6-.2.6h2.5l3.2-10.6-2.7.8zm-8.1 7.8c-.3-.4-.3-.9-.1-1.6.6-1.8 1.9-2.7 4-2.7 1.5 0 2.5.4 3 .9-.1.3-1 3.1-1 3.3-1.2.6-2.4 1-3.6 1-1.2-.2-2-.5-2.3-.9m13.9-5.1l.2-.5h-2.5l-2.4 7.7h2.5l1.4-4.4c.4-1.2 1.6-2 3.3-2 1 0 1.5.1 1.8.3l.2.1 1.2-1.5-.4-.1c-.5-.1-1.2-.2-2.1-.2-1.1-.1-2.3.1-3.2.6m6.3-2.4c-.1.2 0 .4.1.6.2.3.7.5 1.4.5.8 0 1.6-.3 1.8-.9.1-.2 0-.4-.1-.6-.2-.3-.7-.5-1.3-.5-.9 0-1.7.4-1.9.9m-.2 1.8l-2.4 7.7h2.5l2.4-7.7h-2.5zm12.6 0s-5.1 5.6-5.2 5.6c-.3-.9-1.7-5.6-1.7-5.6h-2.7l2.8 7.7h2l7.6-7.7h-2.8zm3.2-1.8c-.1.2 0 .4.1.6.2.3.7.5 1.4.5.8 0 1.6-.3 1.8-.9.1-.2 0-.4-.1-.6-.2-.3-.7-.5-1.3-.5-.9 0-1.7.4-1.9.9m-.1 1.8l-2.4 7.7h2.5l2.4-7.7h-2.5zm6.6.6c0-.1.2-.6.2-.6h-2.5l-2.4 7.7h2.5l1.3-4.3c.4-1.3 1.8-2 3.8-2 1.1 0 1.8.2 2.1.6.2.3.2.7 0 1.2l-1.4 4.5h2.5l1.4-4.5c.3-.8.2-1.5-.2-2.1-.6-.8-1.9-1.2-3.9-1.2-1.2 0-2.4.2-3.4.7m8.1 3.3c-.2.5-.2.9-.2 1.3 0 .5.2.9.5 1.3.6.9 1.9 1.3 3.7 1.3 1.4 0 2.6-.3 3.9-.8-.5 1.3-1.6 1.8-5.9 1.9h-.4l.6 1.3h.2c2.5 0 4.4-.3 5.6-.9 1.3-.5 2.1-1.4 2.4-2.6l2.1-6.9H146s-.1.4-.2.6c-.9-.5-1.9-.8-3.3-.8-3.3.3-5.8 1.8-6.6 4.3m2.6 1.8c-.3-.4-.3-.9-.1-1.6.5-1.8 1.9-2.7 4-2.7 1.5 0 2.5.4 3 .9-.1.3-.9 3.1-1 3.3-1.2.6-2.4 1-3.6 1-1.2-.2-2-.5-2.3-.9m14.3-2c-.1.4-.2.9-.2 1.2 0 .5.2 1 .5 1.3 1 1.4 3.3 1.5 4.3 1.5 2 0 3.3-.3 5.1-.8l.4-.1-1.1-1.2-.2.1c-1.4.5-2.4.7-3.8.7-1.1 0-2-.3-2.4-.8-.2-.2-.3-.5-.3-.8v-.3h8.9l.1-.1c.1-.2.2-.3.3-.6.1-.4.2-.8.2-1.1 0-.5-.2-.9-.5-1.3-.7-1-2.2-1.5-4.3-1.5-3.5 0-6.3 1.5-7 3.8m6.7-2.4c1.2 0 2 .2 2.4.7.2.2.3.4.3.7v.3h-6.5c.6-1.1 2-1.7 3.8-1.7m15.8-.3c-.5-.6-1.4-1.1-3.4-1.1-1.2 0-2.3.2-3.2.7l.2-.5h-2.5l-2.4 7.7h2.5l1.3-4.3c.4-1.3 1.6-2 3.4-2 1 0 1.6.2 1.9.5.2.3.2.7 0 1.3l-1.4 4.5h2.5l1.3-4.3c.4-1.3 1.6-2 3.4-2 1 0 1.6.2 1.9.5.2.3.2.7 0 1.3l-1.4 4.5h2.5l1.4-4.5c.3-.9.2-1.6-.2-2.2-.6-.8-1.8-1.1-3.6-1.1-2-.1-3.3.4-4.2 1m11.5-.1c-1.4.7-2.3 1.7-2.7 2.9-.3 1-.2 1.8.3 2.5.8 1 2.4 1.6 4.6 1.6 1.7 0 3.3-.4 4.6-1 1.4-.7 2.3-1.7 2.7-2.9.3-.9.2-1.8-.3-2.5-.8-1-2.4-1.6-4.6-1.6-1.7 0-3.3.3-4.6 1m0 4.7c-.3-.4-.4-.9-.1-1.6.5-1.7 2.1-2.6 4.5-2.6 1.3 0 2.2.3 2.6.8.3.4.3.9.1 1.6-.5 1.7-2.2 2.7-4.5 2.7-1.3-.1-2.2-.4-2.6-.9m12.8-7.7l-.7 2.1h-1.7l-.4 1.4h1.7c-.2.6-1.4 4.4-1.4 4.4-.1.2-.1.5-.1.7 0 .2.1.5.2.6.3.5 1 .7 2.2.7 1 0 1.7-.1 2.6-.2h.1l.7-1.5-.6.1c-.6.1-1.1.2-1.9.2-.7 0-.8-.1-.8-.1v-.3s1.1-3.6 1.4-4.4h3.3l.4-1.4h-3.3c.2-.6.9-2.9.9-2.9l-2.6.6zm6.6.3c-.1.2 0 .4.1.6.2.3.7.5 1.4.5.8 0 1.6-.3 1.8-.9.1-.2 0-.4-.1-.6-.2-.3-.7-.5-1.3-.5-1 0-1.8.4-1.9.9m-.2 1.8l-2.4 7.7h2.5l2.4-7.7H206zm5.1.8c-1.4.7-2.3 1.7-2.7 2.9-.3 1-.2 1.8.3 2.5.8 1 2.4 1.6 4.6 1.6 1.7 0 3.3-.4 4.6-1 1.4-.7 2.3-1.7 2.7-2.9.3-.9.2-1.8-.3-2.5-.8-1-2.4-1.6-4.6-1.6-1.8.1-3.3.4-4.6 1m4.3.5c1.3 0 2.2.3 2.6.8.3.4.3.9.1 1.6-.5 1.7-2.2 2.7-4.5 2.7-1.3 0-2.2-.3-2.6-.8-.2-.2-.3-.5-.3-.8 0-.3 0-.5.1-.9.6-1.6 2.2-2.6 4.6-2.6m9.6-.7c0-.1.2-.6.2-.6h-2.5l-2.4 7.7h2.5l1.3-4.3c.6-1.8 2.8-2 3.8-2 1.1 0 1.8.2 2.1.6.2.3.2.7.1 1.2l-1.4 4.5h2.5l1.4-4.5c.3-.8.2-1.5-.2-2.1-.6-.8-1.9-1.2-3.9-1.2-1.3 0-2.5.2-3.5.7"/></svg>