<svg xmlns="http://www.w3.org/2000/svg" width="18" height="18" viewBox="0 0 18 18"><g fill="#FFF"><path d="M5.4 7.7l-.2.6h-.6l.2-.6h-.6l-.5 1.6h.6l.2-.7h.6s-.2.6-.2.7h.6L6 7.7h-.6zm3.4.2v-.2h-.7l-.5 1.6h.6l.3-1c0-.1.1-.2.3-.2H9c.1 0 .1 0 .1.1v.2s-.3.9-.3 1h.6l.4-1.2V8c0-.1 0-.1-.1-.2.1 0-.1-.1-.3-.1-.3 0-.5.1-.6.2m-2.1.7c.1 0 .2 0 .3.1v.2c-.1.1-.2.1-.4.1-.1 0-.2 0-.2-.1v-.2s.2-.1.3-.1m-.5-.8l.1.3c.1 0 .3-.1.5-.1s.3 0 .4.1v.2h-.6c-.2 0-.4.1-.6.1s-.2.3-.2.5v.4c.1 0 .2.1.5.1.2 0 .4-.1.6-.1v.1h.6l.3-1.1v-.1c0-.1 0-.1-.1-.2 0-.2-.2-.3-.6-.3-.4 0-.8.1-.9.1m5.1-.1l-.6.5.1-.5h-.6s-.5 1.6-.5 1.7h.6l.2-.7.5.7h.7l-.6-.8s.9-.8 1-.8l-.8-.1z"/><path d="M12.2 8.9c-.1-.1-.1-.2 0-.4s.2-.5.5-.5c.1 0 .2 0 .3.1v.4c-.1.2-.2.5-.6.5-.1 0-.2 0-.2-.1m-.6-.3c-.1.2 0 .4.1.6.1.2.4.3.7.3.7 0 1.1-.3 1.3-.9.1-.2 0-.4-.1-.6-.1-.2-.4-.3-.7-.3-.7 0-1.2.3-1.3.9"/><path d="M14.9 8.1c.1 0 .2 0 .3.1.1.1.1.2 0 .4-.1.1-.3.4-.6.4-.1 0-.2 0-.3-.1-.1-.1-.1-.2 0-.4s.2-.4.6-.4m-1.2.5c-.1.2 0 .4.1.6.1.2.4.3.7.3.7 0 1.1-.3 1.3-.9.1-.2 0-.4-.1-.6-.1-.2-.4-.3-.7-.3-.6 0-1.1.3-1.3.9m3.5-.9l-.6.5.2-.5h-.6s-.5 1.6-.5 1.7h.6l.2-.7.5.7h.7l-.6-.9.9-.8h-.8zM3.9 7.5l-.6-.1c.1.6-.4 1.4-1 1.5.5-.4.8-.9.7-1.5h-.5c0 .5-.3 1-.9 1.2.4-.3.6-.7.6-1.2h-.5c0 .6-.6 1-1.7 1h.1c.7.4 1.1.6 1.6 1.1.1.1.2.1.3.1 1.4-.1 1.9-1.3 1.9-2.1m2.6 2.8v-.1c0-.1.1-.2.3-.2.1-.1.2 0 .2 0l-.1.2c-.1.1-.2.1-.3.1h-.1m.6-.6l-.1.2s-.1-.1-.2-.1c-.2 0-.4.1-.5.3v.2c.1.1.1.1.3.1.1 0 .2 0 .3-.1v.1h.2l.2-.8-.2.1zm.5.2h-.2l-.2.6h.2l.1-.3c0-.1.1-.1.3-.1h.1l.1-.3h-.2c-.1 0-.2.1-.2.1m.4-.1l-.2.6H8l.2-.6H8zm0-.1c0 .1.1.1.1.1.1 0 .1 0 .1-.1h-.1c0-.1 0 0-.1 0m1 .1l-.4.4c0-.1-.1-.4-.1-.4h-.2l.2.6h.1l.6-.6H9zm.2 0l-.2.6h.2l.2-.6h-.2zm0-.1c0 .1.1.1.1.1s.1 0 .1-.1v-.1h-.1l-.1.1m.5.2h-.2l-.2.6h.2l.1-.3c.1-.2.2-.2.3-.2h.2v.1l-.1.3h.2l.1-.3v-.2c0-.1-.1-.1-.3-.1-.1 0-.2.1-.3.1m.8.4v-.1c0-.1.1-.2.3-.2.1 0 .2 0 .2.1l-.1.2c-.1.1-.2.1-.3.1 0-.1 0-.1-.1-.1m-.2-.2v.2c.1.1.1.1.3.1.1 0 .2 0 .3-.1 0 .1-.1.1-.4.1l.1.1c.2 0 .3 0 .4-.1.1 0 .1-.1.2-.2l.2-.5h-.2v.1c-.1 0-.1-.1-.3-.1-.3.1-.5.2-.6.4m1.8-.2c.1 0 .1 0 .2.1v.1h-.5c.1-.1.2-.2.3-.2m-.5.2c0 .1 0 .1 0 0v.2c.1.1.3.1.3.1.1 0 .3 0 .4-.1l-.1-.1c-.1 0-.2.1-.3.1-.1 0-.1 0-.2-.1v-.1h.7v-.2c-.1-.1-.2-.1-.3-.1-.2 0-.4.1-.5.3m1.7-.2s-.1-.1-.3-.1c-.1 0-.2 0-.2.1h-.2l-.2.6h.2l.1-.3c0-.1.1-.1.3-.1h.1v.1l-.1.2h.2l.1-.3c0-.1.1-.1.3-.1h.1v.1l-.1.3h.2l.1-.4v-.2c0-.1-.1-.1-.3-.1-.1.1-.2.2-.3.2m.9.4v-.1c0-.1.2-.2.3-.2.1 0 .2 0 .2.1v.1c0 .1-.2.2-.3.2-.1-.1-.2-.1-.2-.1m0-.4c-.1.1-.2.1-.2.2v.2c.1.1.2.1.4.1.1 0 .3 0 .4-.1.1-.1.2-.1.2-.2v-.2c-.1-.1-.2-.1-.4-.1s-.3.1-.4.1m1-.2s0 .1-.1.2H15v.1h.1c0 .1-.1.3-.1.3v.2s.1.1.2.1h.2l.1-.1h-.2l.1-.3h.3v-.1h-.2l.1-.2-.4-.2z"/><path d="M15.6 9.8l-.2.6h.2l.2-.6h-.2zm0-.1c0 .1.1.1.1.1.1 0 .1 0 .1-.1h-.1c0-.1 0 0-.1 0m.7.2c.1 0 .2 0 .2.1v.1c0 .1-.2.2-.3.2-.1 0-.2 0-.2-.1V10c.1 0 .2-.1.3-.1m-.3 0c-.1.1-.2.1-.2.2v.2c.1.1.2.1.4.1.1 0 .3 0 .4-.1.1-.1.2-.1.2-.2v-.2c-.1-.1-.2-.1-.4-.1s-.3.1-.4.1m1.1 0h-.2l-.2.6h.2l.1-.3c0-.1.2-.1.3-.1h.2v.1l-.1.3h.2l.1-.3V10c0-.1-.1-.1-.3-.1-.2-.1-.3 0-.3 0"/></g></svg>