<svg xmlns="http://www.w3.org/2000/svg" viewBox="0 0 59 59"><g fill="#333"><path d="M30.6 26.7h-3.3l-.8 3h-2.6l-.6-3h-2.6l-.8 3h-2.8l-.8-3h-3.1l.8 3h-2.5v3.1h3.3l2.3 8.9h3l2-7.8 2 7.8h3l2.2-8.9h3.4v-3.1H30l.6-3zm-12 8.4l-.6-2.2h1.1l-.5 2.2zm6.9-.2l-.6-2H26l-.5 2z"/><path d="M52.8 26.5V9h-12V0H6.1C2.7 0 0 2.7 0 6.1v46.1C0 55.9 2.8 59 6.2 59h46.6V41H59V26.5h-6.2zM6.1 3.1h31.6V9H6.1c-1.6 0-3-1.3-3-3s1.3-2.9 3-2.9zm43.6 52.8H6.2c-1.6 0-3-1.7-3-3.7V11.4c.8.5 1.8.8 2.9.8h43.6v14.4h-4.5c-4 0-7.3 3.2-7.3 7.2s3.3 7.2 7.3 7.2h4.5v14.9zm6.2-18H45.2c-2.3 0-4.2-1.8-4.2-4.1s1.9-4.1 4.2-4.1h10.7v8.2z"/></g></svg>