<svg xmlns="http://www.w3.org/2000/svg" width="18" height="18" viewBox="0 0 18 18"><g fill="#CFCFCF"><path d="M14.8 7.1c1.2-.7 2-1.9 2-3.4 0-2-1.7-3.7-3.8-3.7S9.1 1.7 9.1 3.8c0 1.4.8 2.7 2 3.4-1.2.7-2 1.9-2 3.4V18h7.7v-7.5c0-1.4-.8-2.7-2-3.4zm-4.7-3.3c0-1.6 1.3-2.9 2.9-2.9 1.6 0 2.9 1.3 2.9 2.9S14.6 6.7 13 6.7h-.2c-1.5 0-2.7-1.3-2.7-2.9zm5.8 13.3h-5.8v-6.6c0-1.6 1.3-2.9 2.9-2.9h.2c1.6 0 2.9 1.3 2.9 2.9l-.2 6.6zM7.6 1.9c.4 0 .7.1 1 .2l.4-.7C8.6 1.1 8 1 7.6 1 5.9 1 4.5 2.4 4.5 4.1c0 1.1.5 2 1.4 2.6-.9.5-1.4 1.5-1.4 2.6v5.6h3.2V14H5.4V9.3c0-1.1.8-2 1.8-2.2h.1c.1 0 .2.1.3.1.4 0 .8-.1 1.2-.2l-.3-.9c-.3.1-.6.2-.9.2-1.2 0-2.2-1-2.2-2.2 0-1.2 1-2.2 2.2-2.2z"/><path d="M4.3 6.4c-.2 0-.3.1-.5.1h-.4c-.7-.1-1.3-.7-1.3-1.5 0-.9.8-1.6 1.6-1.5l.1-.9h-.2C2.3 2.6 1.2 3.7 1.2 5c0 .8.4 1.5 1 1.9-.6.4-1 1.1-1 2v4.3h2.5v-.9H2.1V8.9c0-.8.5-1.4 1.3-1.5H4c.2 0 .5-.1.7-.2l-.4-.8z"/></g></svg>